;PTH Drill file created by EasyEDA 
M48
;Holesize 1 = 0.038 INCH
T01C0.038
;Holesize 2 = 0.015 INCH
T02C0.015
;Holesize 3 = 0.080 INCH
T03C0.080
;Holesize 4 = 0.130 INCH
T04C0.130
;Holesize 5 = 0.012 INCH
T05C0.012
INCH,00.0000
%
G05
G90
T01
X033500Y052500
X033500Y053500
X033500Y054500
X033500Y055500
X033500Y056500
X033500Y057500
X033500Y058500
X033500Y059500
X033500Y060500
X033500Y061500
X033500Y062500
X033500Y063500
X033500Y064500
X033500Y065500
X027500Y065500
X027500Y064500
X027500Y063500
X027500Y062500
X027500Y061500
X027500Y060500
X027500Y059500
X027500Y058500
X027500Y057500
X027500Y056500
X027500Y055500
X027500Y054500
X027500Y053500
X027500Y052500
X028500Y094984
X028500Y096000
X028500Y097015
X041500Y094984
X041500Y096000
X041500Y097015
X054500Y094984
X054500Y096000
X054500Y097015
X015500Y080984
X015500Y082000
X015500Y083015
X028500Y080984
X028500Y082000
X028500Y083015
X041500Y080984
X041500Y082000
X041500Y083015
X054500Y080984
X054500Y082000
X054500Y083015
X015500Y094984
X015500Y096000
X015500Y097015
X036500Y059500
X036500Y058500
X036500Y057500
X036500Y056500
X036500Y055500
X036500Y054500
X024500Y054500
X024500Y055500
X024500Y056500
X024500Y057500
X013000Y091000
X012000Y091000
X011000Y091000
X010000Y091000
X009000Y091000
X008000Y091000
X007000Y091000
X006000Y091000
X005000Y091000
X007000Y102000
X006000Y102000
X005000Y102000
X026000Y091000
X025000Y091000
X024000Y091000
X023000Y091000
X022000Y091000
X021000Y091000
X020000Y091000
X019000Y091000
X018000Y091000
X020000Y102000
X019000Y102000
X018000Y102000
X039000Y091000
X038000Y091000
X037000Y091000
X036000Y091000
X035000Y091000
X034000Y091000
X033000Y091000
X032000Y091000
X031000Y091000
X033000Y102000
X032000Y102000
X031000Y102000
X052000Y091000
X051000Y091000
X050000Y091000
X049000Y091000
X048000Y091000
X047000Y091000
X046000Y091000
X045000Y091000
X044000Y091000
X046000Y102000
X045000Y102000
X044000Y102000
X013000Y075000
X012000Y075000
X011000Y075000
X010000Y075000
X009000Y075000
X008000Y075000
X007000Y075000
X006000Y075000
X005000Y075000
X007000Y086000
X006000Y086000
X005000Y086000
X026000Y075000
X025000Y075000
X024000Y075000
X023000Y075000
X022000Y075000
X021000Y075000
X020000Y075000
X019000Y075000
X018000Y075000
X020000Y086000
X019000Y086000
X018000Y086000
X039000Y075000
X038000Y075000
X037000Y075000
X036000Y075000
X035000Y075000
X034000Y075000
X033000Y075000
X032000Y075000
X031000Y075000
X033000Y086000
X032000Y086000
X031000Y086000
X052000Y075000
X051000Y075000
X050000Y075000
X049000Y075000
X048000Y075000
X047000Y075000
X046000Y075000
X045000Y075000
X044000Y075000
X046000Y086000
X045000Y086000
X044000Y086000
X049000Y062500
X050000Y062500
X051000Y062500
X052000Y062500
X053000Y062500
X049000Y067000
X040500Y067000
X044500Y062500
X043500Y062500
X042500Y062500
X041500Y062500
X040500Y062500
T02
X045269Y058259
X045602Y058261
X045938Y058261
X046271Y058261
X046602Y058261
X045271Y057594
X045604Y057596
X045939Y057596
X046272Y057596
X046604Y057596
X045271Y056928
X045604Y056929
X045939Y056929
X046272Y056929
X046604Y056929
X045272Y056261
X045605Y056263
X045939Y056263
X046272Y056263
X046605Y056263
X046969Y058259
X046971Y057594
X046971Y056928
X046972Y056261
X048019Y058259
X048352Y058261
X048688Y058261
X049021Y058261
X049352Y058261
X048021Y057594
X048354Y057596
X048689Y057596
X049022Y057596
X049354Y057596
X048021Y056928
X048354Y056929
X048689Y056929
X049022Y056929
X049354Y056929
X048022Y056261
X048355Y056263
X048689Y056263
X049022Y056263
X049355Y056263
X049719Y058259
X049721Y057594
X049721Y056928
X049722Y056261
T03
X054700Y062800
X049300Y068200
X040800Y068200
X046200Y062800
T04
X055000Y102500
X002000Y102500
X055000Y053500
X002000Y053500
T05
X031000Y068000
X020000Y068000
X036000Y092000
X023000Y092000
X010000Y092000
X029500Y068000
X030000Y068000
X017000Y068000
X016500Y068000
X038000Y067500
X038500Y067500
X031000Y064000
X035000Y064500
X030000Y067000
X029500Y067000
X029000Y058500
X048500Y070500
X048500Y070000
X037500Y056500
X032000Y068000
X034500Y065000
X026000Y058500
X013500Y089000
X012500Y089000
X026500Y088500
X025500Y088500
X005500Y061000
X017000Y061000
X017000Y062000
X005500Y062000
X013500Y088500
X012500Y088500
X012500Y088000
X013500Y088000
X026500Y088000
X025500Y088000
X039500Y088000
X038500Y088000
X019000Y072500
X036500Y065000
X039000Y072500
X026000Y072500
X025500Y068000
X025500Y067000
X034500Y062000
X036000Y062000
X027000Y057500
M30
