G04 ---------------------------- Layer name :BOTTOM SOLDER LAYER*
G04 easyEDA 0.1*
G04 Scale: 100 percent, Rotated: No, Reflected: No *
G04 Dimensions in inches *
G04 leading zeros omitted , absolute positions ,2 integer and 4 * 
%FSLAX24Y24*%
%MOIN*%
G90*
G70D02*

%ADD11C,0.068000*%
%ADD15R,0.088000X0.068000*%
%ADD16R,0.068000X0.088000*%
%ADD17R,0.068000X0.118000*%
%ADD18R,0.258000X0.258000*%
%ADD19C,0.208000*%

%LPD*%
G54D11*
G01X47000Y72900D02*
G01X47000Y73100D01*
G01X48000Y72900D02*
G01X48000Y73100D01*
G01X49000Y72900D02*
G01X49000Y73100D01*
G01X27600Y52500D02*
G01X27400Y52500D01*
G01X27600Y53500D02*
G01X27400Y53500D01*
G01X27600Y54500D02*
G01X27400Y54500D01*
G01X27600Y55500D02*
G01X27400Y55500D01*
G01X27600Y56500D02*
G01X27400Y56500D01*
G01X27600Y57500D02*
G01X27400Y57500D01*
G01X27600Y58500D02*
G01X27400Y58500D01*
G01X27600Y59500D02*
G01X27400Y59500D01*
G01X27600Y60500D02*
G01X27400Y60500D01*
G01X27600Y61500D02*
G01X27400Y61500D01*
G01X27600Y62500D02*
G01X27400Y62500D01*
G01X27600Y63500D02*
G01X27400Y63500D01*
G01X27600Y64500D02*
G01X27400Y64500D01*
G01X21600Y64500D02*
G01X21400Y64500D01*
G01X21600Y63500D02*
G01X21400Y63500D01*
G01X21600Y62500D02*
G01X21400Y62500D01*
G01X21600Y61500D02*
G01X21400Y61500D01*
G01X21600Y60500D02*
G01X21400Y60500D01*
G01X21600Y59500D02*
G01X21400Y59500D01*
G01X21600Y58500D02*
G01X21400Y58500D01*
G01X21600Y57500D02*
G01X21400Y57500D01*
G01X21600Y56500D02*
G01X21400Y56500D01*
G01X21600Y55500D02*
G01X21400Y55500D01*
G01X21600Y54500D02*
G01X21400Y54500D01*
G01X21600Y53500D02*
G01X21400Y53500D01*
G01X21600Y52500D02*
G01X21400Y52500D01*
G01X21600Y51500D02*
G01X21400Y51500D01*
G01X32500Y53100D02*
G01X32500Y52900D01*
G01X30500Y53100D02*
G01X30500Y52900D01*
G01X33500Y53100D02*
G01X33500Y52900D01*
G01X34500Y53100D02*
G01X34500Y52900D01*
G01X35500Y53100D02*
G01X35500Y52900D01*
G01X18000Y53100D02*
G01X18000Y52900D01*
G01X16000Y53100D02*
G01X16000Y52900D01*
G01X19000Y53100D02*
G01X19000Y52900D01*
G01X45000Y90186D02*
G01X45000Y89686D01*
G01X44000Y90186D02*
G01X44000Y89686D01*
G01X43000Y90186D02*
G01X43000Y89686D01*
G01X42000Y90186D02*
G01X42000Y89686D01*
G01X40000Y90186D02*
G01X40000Y89686D01*
G01X39000Y90186D02*
G01X39000Y89686D01*
G01X38000Y90186D02*
G01X38000Y89686D01*
G01X12000Y75186D02*
G01X12000Y74686D01*
G01X11000Y75186D02*
G01X11000Y74686D01*
G01X10000Y75186D02*
G01X10000Y74686D01*
G01X9000Y75186D02*
G01X9000Y74686D01*
G01X7000Y75186D02*
G01X7000Y74686D01*
G01X6000Y75186D02*
G01X6000Y74686D01*
G01X5000Y75186D02*
G01X5000Y74686D01*
G01X23000Y75186D02*
G01X23000Y74686D01*
G01X22000Y75186D02*
G01X22000Y74686D01*
G01X21000Y75186D02*
G01X21000Y74686D01*
G01X20000Y75186D02*
G01X20000Y74686D01*
G01X18000Y75186D02*
G01X18000Y74686D01*
G01X17000Y75186D02*
G01X17000Y74686D01*
G01X16000Y75186D02*
G01X16000Y74686D01*
G01X34000Y75186D02*
G01X34000Y74686D01*
G01X33000Y75186D02*
G01X33000Y74686D01*
G01X32000Y75186D02*
G01X32000Y74686D01*
G01X31000Y75186D02*
G01X31000Y74686D01*
G01X29000Y75186D02*
G01X29000Y74686D01*
G01X28000Y75186D02*
G01X28000Y74686D01*
G01X27000Y75186D02*
G01X27000Y74686D01*
G01X43000Y64400D02*
G01X43000Y64600D01*
G01X44000Y64400D02*
G01X44000Y64600D01*
G01X45000Y64400D02*
G01X45000Y64600D01*
G01X47000Y64400D02*
G01X47000Y64600D01*
G01X34500Y64400D02*
G01X34500Y64600D01*
G01X35500Y64400D02*
G01X35500Y64600D01*
G01X36500Y64400D02*
G01X36500Y64600D01*
G01X38500Y64400D02*
G01X38500Y64600D01*
G01X45000Y75186D02*
G01X45000Y74686D01*
G01X44000Y75186D02*
G01X44000Y74686D01*
G01X43000Y75186D02*
G01X43000Y74686D01*
G01X42000Y75186D02*
G01X42000Y74686D01*
G01X40000Y75186D02*
G01X40000Y74686D01*
G01X39000Y75186D02*
G01X39000Y74686D01*
G01X38000Y75186D02*
G01X38000Y74686D01*
G01X12000Y90186D02*
G01X12000Y89686D01*
G01X11000Y90186D02*
G01X11000Y89686D01*
G01X10000Y90186D02*
G01X10000Y89686D01*
G01X9000Y90186D02*
G01X9000Y89686D01*
G01X7000Y90186D02*
G01X7000Y89686D01*
G01X6000Y90186D02*
G01X6000Y89686D01*
G01X5000Y90186D02*
G01X5000Y89686D01*
G01X23000Y90186D02*
G01X23000Y89686D01*
G01X22000Y90186D02*
G01X22000Y89686D01*
G01X21000Y90186D02*
G01X21000Y89686D01*
G01X20000Y90186D02*
G01X20000Y89686D01*
G01X18000Y90186D02*
G01X18000Y89686D01*
G01X17000Y90186D02*
G01X17000Y89686D01*
G01X16000Y90186D02*
G01X16000Y89686D01*
G01X34000Y90186D02*
G01X34000Y89686D01*
G01X33000Y90186D02*
G01X33000Y89686D01*
G01X32000Y90186D02*
G01X32000Y89686D01*
G01X31000Y90186D02*
G01X31000Y89686D01*
G01X29000Y90186D02*
G01X29000Y89686D01*
G01X28000Y90186D02*
G01X28000Y89686D01*
G01X27000Y90186D02*
G01X27000Y89686D01*
G54D15*
G01X27500Y51500D03*
G54D16*
G01X31500Y53000D03*
G01X17000Y53000D03*
G54D17*
G01X46000Y89936D03*
G01X41000Y89936D03*
G01X40000Y100936D03*
G01X38000Y100936D03*
G01X13000Y74936D03*
G01X8000Y74936D03*
G01X7000Y85936D03*
G01X5000Y85936D03*
G01X24000Y74936D03*
G01X19000Y74936D03*
G01X18000Y85936D03*
G01X16000Y85936D03*
G01X35000Y74936D03*
G01X30000Y74936D03*
G01X29000Y85936D03*
G01X27000Y85936D03*
G54D18*
G01X40125Y56375D03*
G01X42875Y56375D03*
G54D16*
G01X46000Y64500D03*
G01X37500Y64500D03*
G54D17*
G01X46000Y74936D03*
G01X41000Y74936D03*
G01X40000Y85936D03*
G01X38000Y85936D03*
G01X13000Y89936D03*
G01X8000Y89936D03*
G01X7000Y100936D03*
G01X5000Y100936D03*
G01X24000Y89936D03*
G01X19000Y89936D03*
G01X18000Y100936D03*
G01X16000Y100936D03*
G01X35000Y89936D03*
G01X30000Y89936D03*
G01X29000Y100936D03*
G01X27000Y100936D03*
G54D19*
G01X49000Y99936D03*
G01X2000Y99936D03*
G01X49000Y53000D03*
G01X2000Y53000D03*

M00*
M02*