;PTH Drill file created by EasyEDA 
M48
;Holesize 1 = 0.038 INCH
T01C0.038
;Holesize 2 = 0.012 INCH
T02C0.012
;Holesize 3 = 0.015 INCH
T03C0.015
;Holesize 4 = 0.130 INCH
T04C0.130
INCH,00.0000
%
G05
G90
T01
X047000Y073000
X048000Y073000
X049000Y073000
X027500Y051500
X027500Y052500
X027500Y053500
X027500Y054500
X027500Y055500
X027500Y056500
X027500Y057500
X027500Y058500
X027500Y059500
X027500Y060500
X027500Y061500
X027500Y062500
X027500Y063500
X027500Y064500
X021500Y064500
X021500Y063500
X021500Y062500
X021500Y061500
X021500Y060500
X021500Y059500
X021500Y058500
X021500Y057500
X021500Y056500
X021500Y055500
X021500Y054500
X021500Y053500
X021500Y052500
X021500Y051500
X031500Y053000
X032500Y053000
X030500Y053000
X033500Y053000
X034500Y053000
X035500Y053000
X017000Y053000
X018000Y053000
X016000Y053000
X019000Y053000
X046000Y089936
X045000Y089936
X044000Y089936
X043000Y089936
X042000Y089936
X041000Y089936
X040000Y089936
X039000Y089936
X038000Y089936
X040000Y100936
X038000Y100936
X013000Y074936
X012000Y074936
X011000Y074936
X010000Y074936
X009000Y074936
X008000Y074936
X007000Y074936
X006000Y074936
X005000Y074936
X007000Y085936
X005000Y085936
X024000Y074936
X023000Y074936
X022000Y074936
X021000Y074936
X020000Y074936
X019000Y074936
X018000Y074936
X017000Y074936
X016000Y074936
X018000Y085936
X016000Y085936
X035000Y074936
X034000Y074936
X033000Y074936
X032000Y074936
X031000Y074936
X030000Y074936
X029000Y074936
X028000Y074936
X027000Y074936
X029000Y085936
X027000Y085936
X043000Y064500
X044000Y064500
X045000Y064500
X046000Y064500
X047000Y064500
X034500Y064500
X035500Y064500
X036500Y064500
X037500Y064500
X038500Y064500
X046000Y074936
X045000Y074936
X044000Y074936
X043000Y074936
X042000Y074936
X041000Y074936
X040000Y074936
X039000Y074936
X038000Y074936
X040000Y085936
X038000Y085936
X013000Y089936
X012000Y089936
X011000Y089936
X010000Y089936
X009000Y089936
X008000Y089936
X007000Y089936
X006000Y089936
X005000Y089936
X007000Y100936
X005000Y100936
X024000Y089936
X023000Y089936
X022000Y089936
X021000Y089936
X020000Y089936
X019000Y089936
X018000Y089936
X017000Y089936
X016000Y089936
X018000Y100936
X016000Y100936
X035000Y089936
X034000Y089936
X033000Y089936
X032000Y089936
X031000Y089936
X030000Y089936
X029000Y089936
X028000Y089936
X027000Y089936
X029000Y100936
X027000Y100936
T02
X044200Y089636
X043800Y089636
X043800Y090236
X044200Y090236
X046200Y089636
X045800Y089636
X045800Y090236
X046200Y090236
X045200Y089636
X044800Y089636
X044800Y090236
X045200Y090236
X043200Y089636
X042800Y089636
X042800Y090236
X043200Y090236
X042200Y089636
X041800Y089636
X041800Y090236
X042200Y090236
X041200Y089636
X040800Y089636
X040800Y090236
X041200Y090236
X040200Y089636
X039800Y089636
X039800Y090236
X040200Y090236
X039200Y089636
X038800Y089636
X038800Y090236
X039200Y090236
X038200Y089636
X037800Y089636
X037800Y090236
X038200Y090236
X038200Y100636
X037800Y100636
X037800Y101236
X038200Y101236
X040200Y100636
X039800Y100636
X039800Y101236
X040200Y101236
X011200Y074636
X010800Y074636
X010800Y075236
X011200Y075236
X013200Y074636
X012800Y074636
X012800Y075236
X013200Y075236
X012200Y074636
X011800Y074636
X011800Y075236
X012200Y075236
X010200Y074636
X009800Y074636
X009800Y075236
X010200Y075236
X009200Y074636
X008800Y074636
X008800Y075236
X009200Y075236
X008200Y074636
X007800Y074636
X007800Y075236
X008200Y075236
X007200Y074636
X006800Y074636
X006800Y075236
X007200Y075236
X006200Y074636
X005800Y074636
X005800Y075236
X006200Y075236
X005200Y074636
X004800Y074636
X004800Y075236
X005200Y075236
X005200Y085636
X004800Y085636
X004800Y086236
X005200Y086236
X007200Y085636
X006800Y085636
X006800Y086236
X007200Y086236
X022200Y074636
X021800Y074636
X021800Y075236
X022200Y075236
X024200Y074636
X023800Y074636
X023800Y075236
X024200Y075236
X023200Y074636
X022800Y074636
X022800Y075236
X023200Y075236
X021200Y074636
X020800Y074636
X020800Y075236
X021200Y075236
X020200Y074636
X019800Y074636
X019800Y075236
X020200Y075236
X019200Y074636
X018800Y074636
X018800Y075236
X019200Y075236
X018200Y074636
X017800Y074636
X017800Y075236
X018200Y075236
X017200Y074636
X016800Y074636
X016800Y075236
X017200Y075236
X016200Y074636
X015800Y074636
X015800Y075236
X016200Y075236
X016200Y085636
X015800Y085636
X015800Y086236
X016200Y086236
X018200Y085636
X017800Y085636
X017800Y086236
X018200Y086236
X033200Y074636
X032800Y074636
X032800Y075236
X033200Y075236
X035200Y074636
X034800Y074636
X034800Y075236
X035200Y075236
X034200Y074636
X033800Y074636
X033800Y075236
X034200Y075236
X032200Y074636
X031800Y074636
X031800Y075236
X032200Y075236
X031200Y074636
X030800Y074636
X030800Y075236
X031200Y075236
X030200Y074636
X029800Y074636
X029800Y075236
X030200Y075236
X029200Y074636
X028800Y074636
X028800Y075236
X029200Y075236
X028200Y074636
X027800Y074636
X027800Y075236
X028200Y075236
X027200Y074636
X026800Y074636
X026800Y075236
X027200Y075236
X027200Y085636
X026800Y085636
X026800Y086236
X027200Y086236
X029200Y085636
X028800Y085636
X028800Y086236
X029200Y086236
X044200Y074636
X043800Y074636
X043800Y075236
X044200Y075236
X046200Y074636
X045800Y074636
X045800Y075236
X046200Y075236
X045200Y074636
X044800Y074636
X044800Y075236
X045200Y075236
X043200Y074636
X042800Y074636
X042800Y075236
X043200Y075236
X042200Y074636
X041800Y074636
X041800Y075236
X042200Y075236
X041200Y074636
X040800Y074636
X040800Y075236
X041200Y075236
X040200Y074636
X039800Y074636
X039800Y075236
X040200Y075236
X039200Y074636
X038800Y074636
X038800Y075236
X039200Y075236
X038200Y074636
X037800Y074636
X037800Y075236
X038200Y075236
X038200Y085636
X037800Y085636
X037800Y086236
X038200Y086236
X040200Y085636
X039800Y085636
X039800Y086236
X040200Y086236
X011200Y089636
X010800Y089636
X010800Y090236
X011200Y090236
X013200Y089636
X012800Y089636
X012800Y090236
X013200Y090236
X012200Y089636
X011800Y089636
X011800Y090236
X012200Y090236
X010200Y089636
X009800Y089636
X009800Y090236
X010200Y090236
X009200Y089636
X008800Y089636
X008800Y090236
X009200Y090236
X008200Y089636
X007800Y089636
X007800Y090236
X008200Y090236
X007200Y089636
X006800Y089636
X006800Y090236
X007200Y090236
X006200Y089636
X005800Y089636
X005800Y090236
X006200Y090236
X005200Y089636
X004800Y089636
X004800Y090236
X005200Y090236
X005200Y100636
X004800Y100636
X004800Y101236
X005200Y101236
X007200Y100636
X006800Y100636
X006800Y101236
X007200Y101236
X022200Y089636
X021800Y089636
X021800Y090236
X022200Y090236
X024200Y089636
X023800Y089636
X023800Y090236
X024200Y090236
X023200Y089636
X022800Y089636
X022800Y090236
X023200Y090236
X021200Y089636
X020800Y089636
X020800Y090236
X021200Y090236
X020200Y089636
X019800Y089636
X019800Y090236
X020200Y090236
X019200Y089636
X018800Y089636
X018800Y090236
X019200Y090236
X018200Y089636
X017800Y089636
X017800Y090236
X018200Y090236
X017200Y089636
X016800Y089636
X016800Y090236
X017200Y090236
X016200Y089636
X015800Y089636
X015800Y090236
X016200Y090236
X016200Y100636
X015800Y100636
X015800Y101236
X016200Y101236
X018200Y100636
X017800Y100636
X017800Y101236
X018200Y101236
X033200Y089636
X032800Y089636
X032800Y090236
X033200Y090236
X035200Y089636
X034800Y089636
X034800Y090236
X035200Y090236
X034200Y089636
X033800Y089636
X033800Y090236
X034200Y090236
X032200Y089636
X031800Y089636
X031800Y090236
X032200Y090236
X031200Y089636
X030800Y089636
X030800Y090236
X031200Y090236
X030200Y089636
X029800Y089636
X029800Y090236
X030200Y090236
X029200Y089636
X028800Y089636
X028800Y090236
X029200Y090236
X028200Y089636
X027800Y089636
X027800Y090236
X028200Y090236
X027200Y089636
X026800Y089636
X026800Y090236
X027200Y090236
X027200Y100636
X026800Y100636
X026800Y101236
X027200Y101236
X029200Y100636
X028800Y100636
X028800Y101236
X029200Y101236
X010000Y092500
X021000Y092500
X032000Y092500
X043000Y092500
X026500Y054000
X017000Y064000
X017500Y060000
X025000Y059500
X025000Y058500
X020000Y058000
X005500Y064000
X025000Y055500
X016500Y059000
X016500Y064000
X004000Y073000
X021000Y072500
X006000Y064000
X010000Y072000
X032000Y072500
X029500Y057500
X026500Y064500
X007000Y098500
X005000Y098500
X016000Y098500
X018000Y098500
X027000Y098500
X029000Y098500
X038000Y098500
X040000Y098500
X005000Y083500
X007000Y083500
X016000Y083500
X018000Y083500
X027000Y083500
X029000Y083500
X038000Y083500
X040000Y083500
T03
X039275Y057375
X039607Y057376
X039943Y057376
X040276Y057376
X040607Y057376
X039276Y056709
X039609Y056711
X039943Y056711
X040277Y056711
X040609Y056711
X039276Y056042
X039609Y056044
X039943Y056044
X040277Y056044
X040609Y056044
X039277Y055377
X039610Y055378
X039944Y055378
X040277Y055378
X040610Y055378
X040975Y057375
X040976Y056709
X040976Y056042
X040977Y055377
X042025Y057375
X042357Y057376
X042693Y057376
X043026Y057376
X043357Y057376
X042026Y056709
X042359Y056711
X042693Y056711
X043027Y056711
X043359Y056711
X042026Y056042
X042359Y056044
X042693Y056044
X043027Y056044
X043359Y056044
X042027Y055377
X042360Y055378
X042694Y055378
X043027Y055378
X043360Y055378
X043725Y057375
X043726Y056709
X043726Y056042
X043727Y055377
T04
X049000Y099936
X002000Y099936
X049000Y053000
X002000Y053000
M30
