G04 ---------------------------- Layer name :TOP LAYER*
G04 easyEDA 0.1*
G04 Scale: 100 percent, Rotated: No, Reflected: No *
G04 Dimensions in inches *
G04 leading zeros omitted , absolute positions ,2 integer and 4 * 
%FSLAX24Y24*%
%MOIN*%
G90*
G70D02*

%ADD11C,0.016000*%
%ADD12C,0.024000*%
%ADD13C,0.025000*%
%ADD14C,0.024400*%
%ADD15C,0.060000*%
%ADD17R,0.080000X0.060000*%
%ADD18R,0.060000X0.060000*%
%ADD19R,0.250000X0.250000*%
%ADD20C,0.100000*%
%ADD22C,0.059000*%
%ADD24R,0.059000X0.059000*%
%ADD25C,0.200000*%

%LPD*%
G36*
G01X0Y52000D02*
G01X0Y104000D01*
G01X57000Y104000D01*
G01X57000Y52000D01*
G01X50623Y52000D01*
G01X50623Y56000D01*
G01X50218Y56000D01*
G01X50219Y56009D01*
G01X50219Y56636D01*
G01X49493Y56636D01*
G01X49493Y56436D01*
G01X49423Y56478D01*
G01X49330Y56486D01*
G01X49242Y56457D01*
G01X49188Y56409D01*
G01X49172Y56430D01*
G01X49092Y56478D01*
G01X48997Y56486D01*
G01X48910Y56457D01*
G01X48854Y56407D01*
G01X48838Y56430D01*
G01X48757Y56478D01*
G01X48664Y56486D01*
G01X48576Y56457D01*
G01X48519Y56407D01*
G01X48504Y56430D01*
G01X48423Y56478D01*
G01X48330Y56486D01*
G01X48246Y56459D01*
G01X48246Y56636D01*
G01X47519Y56636D01*
G01X47519Y56009D01*
G01X47522Y56000D01*
G01X47468Y56000D01*
G01X47469Y56009D01*
G01X47469Y58509D01*
G01X47465Y58540D01*
G01X47450Y58567D01*
G01X47427Y58590D01*
G01X47400Y58605D01*
G01X47369Y58609D01*
G01X46719Y58609D01*
G01X46719Y60407D01*
G01X47092Y60780D01*
G01X50500Y60780D01*
G01X50534Y60782D01*
G01X50568Y60790D01*
G01X50600Y60804D01*
G01X50630Y60821D01*
G01X50656Y60844D01*
G01X51156Y61344D01*
G01X51177Y61369D01*
G01X51196Y61400D01*
G01X51210Y61432D01*
G01X51218Y61465D01*
G01X51219Y61500D01*
G01X51219Y62178D01*
G01X51246Y62192D01*
G01X51326Y62278D01*
G01X51376Y62384D01*
G01X51393Y62500D01*
G01X51376Y62615D01*
G01X51326Y62721D01*
G01X51246Y62807D01*
G01X51143Y62865D01*
G01X51030Y62892D01*
G01X50911Y62884D01*
G01X50802Y62842D01*
G01X50711Y62767D01*
G01X50646Y62669D01*
G01X50610Y62557D01*
G01X50610Y62442D01*
G01X50646Y62330D01*
G01X50711Y62232D01*
G01X50780Y62176D01*
G01X50780Y61592D01*
G01X50407Y61219D01*
G01X47000Y61219D01*
G01X46965Y61217D01*
G01X46931Y61209D01*
G01X46900Y61196D01*
G01X46869Y61178D01*
G01X46843Y61155D01*
G01X46343Y60655D01*
G01X46322Y60630D01*
G01X46304Y60600D01*
G01X46289Y60567D01*
G01X46281Y60534D01*
G01X46280Y60500D01*
G01X46280Y58609D01*
G01X46219Y58609D01*
G01X46219Y59500D01*
G01X46214Y59548D01*
G01X46197Y59594D01*
G01X46173Y59636D01*
G01X46139Y59669D01*
G01X46097Y59696D01*
G01X45097Y60196D01*
G01X45080Y60205D01*
G01X45060Y60211D01*
G01X45019Y60219D01*
G01X43092Y60219D01*
G01X42719Y60592D01*
G01X42719Y62178D01*
G01X42746Y62192D01*
G01X42826Y62278D01*
G01X42876Y62384D01*
G01X42893Y62500D01*
G01X42876Y62615D01*
G01X42826Y62721D01*
G01X42746Y62807D01*
G01X42643Y62865D01*
G01X42530Y62892D01*
G01X42411Y62884D01*
G01X42302Y62842D01*
G01X42211Y62767D01*
G01X42146Y62669D01*
G01X42110Y62557D01*
G01X42110Y62442D01*
G01X42146Y62330D01*
G01X42211Y62232D01*
G01X42280Y62176D01*
G01X42280Y60500D01*
G01X42281Y60465D01*
G01X42289Y60432D01*
G01X42304Y60400D01*
G01X42322Y60369D01*
G01X42343Y60344D01*
G01X42843Y59844D01*
G01X42869Y59821D01*
G01X42900Y59804D01*
G01X42931Y59790D01*
G01X42965Y59782D01*
G01X43000Y59780D01*
G01X44950Y59780D01*
G01X45780Y59363D01*
G01X45780Y58609D01*
G01X44869Y58609D01*
G01X44839Y58605D01*
G01X44811Y58590D01*
G01X44789Y58567D01*
G01X44773Y58540D01*
G01X44769Y58509D01*
G01X44769Y56009D01*
G01X44772Y56000D01*
G01X44373Y56000D01*
G01X44373Y52000D01*
G01X0Y52000D01*
G37*

%LPC*%
G36*
G01X7030Y101602D02*
G01X7146Y101628D01*
G01X7250Y101688D01*
G01X7330Y101773D01*
G01X7381Y101882D01*
G01X7400Y102000D01*
G01X7381Y102117D01*
G01X7330Y102226D01*
G01X7250Y102311D01*
G01X7146Y102371D01*
G01X7030Y102398D01*
G01X6910Y102390D01*
G01X6800Y102346D01*
G01X6706Y102271D01*
G01X6639Y102173D01*
G01X6603Y102059D01*
G01X6603Y101940D01*
G01X6639Y101826D01*
G01X6706Y101728D01*
G01X6800Y101654D01*
G01X6910Y101609D01*
G01X7030Y101602D01*
G37*
G36*
G01X27530Y52102D02*
G01X27646Y52128D01*
G01X27750Y52188D01*
G01X27830Y52273D01*
G01X27831Y52280D01*
G01X28500Y52280D01*
G01X28535Y52288D01*
G01X28572Y52292D01*
G01X28584Y52300D01*
G01X28596Y52302D01*
G01X28626Y52326D01*
G01X28656Y52344D01*
G01X29092Y52780D01*
G01X33215Y52780D01*
G01X33206Y52771D01*
G01X33139Y52673D01*
G01X33131Y52650D01*
G01X33350Y52650D01*
G01X33350Y52780D01*
G01X33650Y52780D01*
G01X33650Y52650D01*
G01X33865Y52650D01*
G01X33830Y52726D01*
G01X33780Y52780D01*
G01X35000Y52780D01*
G01X35034Y52782D01*
G01X35068Y52790D01*
G01X35100Y52804D01*
G01X35130Y52821D01*
G01X35156Y52844D01*
G01X36411Y54100D01*
G01X36800Y54100D01*
G01X36830Y54104D01*
G01X36857Y54119D01*
G01X36880Y54142D01*
G01X36896Y54169D01*
G01X36900Y54200D01*
G01X36900Y54280D01*
G01X39500Y54280D01*
G01X39534Y54282D01*
G01X39568Y54290D01*
G01X39600Y54304D01*
G01X39630Y54321D01*
G01X39656Y54344D01*
G01X40156Y54844D01*
G01X40177Y54869D01*
G01X40196Y54900D01*
G01X40210Y54932D01*
G01X40218Y54965D01*
G01X40219Y55000D01*
G01X40219Y62226D01*
G01X40302Y62157D01*
G01X40411Y62115D01*
G01X40530Y62107D01*
G01X40643Y62134D01*
G01X40746Y62192D01*
G01X40826Y62278D01*
G01X40876Y62384D01*
G01X40893Y62500D01*
G01X40876Y62615D01*
G01X40826Y62721D01*
G01X40746Y62807D01*
G01X40643Y62865D01*
G01X40530Y62892D01*
G01X40411Y62884D01*
G01X40302Y62842D01*
G01X40219Y62773D01*
G01X40219Y62907D01*
G01X40592Y63280D01*
G01X43907Y63280D01*
G01X44280Y62907D01*
G01X44280Y62823D01*
G01X44211Y62767D01*
G01X44146Y62669D01*
G01X44110Y62557D01*
G01X44110Y62442D01*
G01X44146Y62330D01*
G01X44211Y62232D01*
G01X44302Y62157D01*
G01X44411Y62115D01*
G01X44530Y62107D01*
G01X44643Y62134D01*
G01X44746Y62192D01*
G01X44826Y62278D01*
G01X44876Y62384D01*
G01X44893Y62500D01*
G01X44876Y62615D01*
G01X44826Y62721D01*
G01X44746Y62807D01*
G01X44719Y62821D01*
G01X44719Y63000D01*
G01X44718Y63034D01*
G01X44710Y63067D01*
G01X44696Y63100D01*
G01X44677Y63130D01*
G01X44656Y63155D01*
G01X44156Y63655D01*
G01X44130Y63678D01*
G01X44100Y63696D01*
G01X44068Y63709D01*
G01X44034Y63717D01*
G01X44000Y63719D01*
G01X40500Y63719D01*
G01X40465Y63717D01*
G01X40431Y63709D01*
G01X40400Y63696D01*
G01X40369Y63678D01*
G01X40343Y63655D01*
G01X39843Y63155D01*
G01X39822Y63130D01*
G01X39804Y63100D01*
G01X39789Y63067D01*
G01X39781Y63034D01*
G01X39780Y63000D01*
G01X39780Y55092D01*
G01X39407Y54719D01*
G01X36900Y54719D01*
G01X36900Y54800D01*
G01X36896Y54830D01*
G01X36880Y54857D01*
G01X36857Y54880D01*
G01X36830Y54896D01*
G01X36800Y54900D01*
G01X36200Y54900D01*
G01X36169Y54896D01*
G01X36142Y54880D01*
G01X36119Y54857D01*
G01X36104Y54830D01*
G01X36100Y54800D01*
G01X36100Y54411D01*
G01X34907Y53219D01*
G01X33780Y53219D01*
G01X33830Y53273D01*
G01X33881Y53382D01*
G01X33900Y53500D01*
G01X33881Y53617D01*
G01X33830Y53726D01*
G01X33750Y53811D01*
G01X33735Y53819D01*
G01X34000Y53819D01*
G01X34027Y53821D01*
G01X34056Y53828D01*
G01X34081Y53840D01*
G01X34106Y53854D01*
G01X34127Y53871D01*
G01X36076Y55819D01*
G01X36265Y55819D01*
G01X36206Y55771D01*
G01X36139Y55673D01*
G01X36131Y55650D01*
G01X36350Y55650D01*
G01X36350Y55819D01*
G01X36650Y55819D01*
G01X36650Y55650D01*
G01X36865Y55650D01*
G01X36830Y55726D01*
G01X36750Y55811D01*
G01X36735Y55819D01*
G01X37000Y55819D01*
G01X37027Y55821D01*
G01X37056Y55828D01*
G01X37081Y55840D01*
G01X37106Y55854D01*
G01X37127Y55871D01*
G01X37543Y56288D01*
G01X37568Y56290D01*
G01X37647Y56336D01*
G01X37700Y56409D01*
G01X37719Y56500D01*
G01X37700Y56590D01*
G01X37647Y56663D01*
G01X37568Y56709D01*
G01X37477Y56717D01*
G01X37389Y56690D01*
G01X37322Y56630D01*
G01X37284Y56546D01*
G01X37284Y56540D01*
G01X36923Y56180D01*
G01X36735Y56180D01*
G01X36750Y56188D01*
G01X36830Y56273D01*
G01X36881Y56382D01*
G01X36900Y56500D01*
G01X36881Y56617D01*
G01X36830Y56726D01*
G01X36750Y56811D01*
G01X36646Y56871D01*
G01X36530Y56898D01*
G01X36410Y56890D01*
G01X36300Y56846D01*
G01X36206Y56771D01*
G01X36139Y56673D01*
G01X36104Y56559D01*
G01X36104Y56440D01*
G01X36139Y56326D01*
G01X36206Y56228D01*
G01X36265Y56180D01*
G01X36000Y56180D01*
G01X35972Y56178D01*
G01X35943Y56171D01*
G01X35918Y56159D01*
G01X35893Y56146D01*
G01X35872Y56128D01*
G01X33923Y54180D01*
G01X33735Y54180D01*
G01X33750Y54188D01*
G01X33830Y54273D01*
G01X33881Y54382D01*
G01X33900Y54500D01*
G01X33881Y54617D01*
G01X33830Y54726D01*
G01X33750Y54811D01*
G01X33646Y54871D01*
G01X33530Y54898D01*
G01X33410Y54890D01*
G01X33300Y54846D01*
G01X33206Y54771D01*
G01X33139Y54673D01*
G01X33104Y54559D01*
G01X33104Y54440D01*
G01X33139Y54326D01*
G01X33206Y54228D01*
G01X33265Y54180D01*
G01X32576Y54180D01*
G01X30127Y56628D01*
G01X30106Y56646D01*
G01X30081Y56659D01*
G01X30056Y56671D01*
G01X30027Y56678D01*
G01X30000Y56680D01*
G01X27852Y56680D01*
G01X27830Y56726D01*
G01X27750Y56811D01*
G01X27735Y56819D01*
G01X31923Y56819D01*
G01X32372Y56371D01*
G01X32393Y56354D01*
G01X32418Y56340D01*
G01X32443Y56328D01*
G01X32472Y56321D01*
G01X32500Y56319D01*
G01X33143Y56319D01*
G01X33206Y56228D01*
G01X33300Y56154D01*
G01X33410Y56109D01*
G01X33530Y56102D01*
G01X33646Y56128D01*
G01X33750Y56188D01*
G01X33830Y56273D01*
G01X33881Y56382D01*
G01X33900Y56500D01*
G01X33881Y56617D01*
G01X33830Y56726D01*
G01X33750Y56811D01*
G01X33646Y56871D01*
G01X33530Y56898D01*
G01X33410Y56890D01*
G01X33300Y56846D01*
G01X33206Y56771D01*
G01X33143Y56680D01*
G01X32576Y56680D01*
G01X32127Y57128D01*
G01X32106Y57146D01*
G01X32081Y57159D01*
G01X32056Y57171D01*
G01X32027Y57178D01*
G01X32000Y57180D01*
G01X27735Y57180D01*
G01X27750Y57188D01*
G01X27830Y57273D01*
G01X27881Y57382D01*
G01X27900Y57500D01*
G01X27881Y57617D01*
G01X27880Y57623D01*
G01X28784Y58528D01*
G01X28784Y58454D01*
G01X28822Y58369D01*
G01X28889Y58309D01*
G01X28977Y58282D01*
G01X29068Y58290D01*
G01X29147Y58336D01*
G01X29200Y58409D01*
G01X29210Y58454D01*
G01X30076Y59319D01*
G01X33143Y59319D01*
G01X33206Y59228D01*
G01X33300Y59154D01*
G01X33410Y59109D01*
G01X33530Y59102D01*
G01X33646Y59128D01*
G01X33750Y59188D01*
G01X33830Y59273D01*
G01X33881Y59382D01*
G01X33900Y59500D01*
G01X33881Y59617D01*
G01X33830Y59726D01*
G01X33750Y59811D01*
G01X33646Y59871D01*
G01X33530Y59898D01*
G01X33410Y59890D01*
G01X33300Y59846D01*
G01X33206Y59771D01*
G01X33143Y59680D01*
G01X30000Y59680D01*
G01X29972Y59678D01*
G01X29943Y59671D01*
G01X29918Y59659D01*
G01X29914Y59657D01*
G01X32076Y61819D01*
G01X33265Y61819D01*
G01X33206Y61771D01*
G01X33139Y61673D01*
G01X33104Y61559D01*
G01X33104Y61440D01*
G01X33139Y61326D01*
G01X33206Y61228D01*
G01X33300Y61154D01*
G01X33410Y61109D01*
G01X33530Y61102D01*
G01X33646Y61128D01*
G01X33750Y61188D01*
G01X33830Y61273D01*
G01X33852Y61319D01*
G01X35000Y61319D01*
G01X35027Y61321D01*
G01X35056Y61328D01*
G01X35081Y61340D01*
G01X35106Y61354D01*
G01X35127Y61371D01*
G01X35627Y61871D01*
G01X35646Y61894D01*
G01X35660Y61917D01*
G01X35672Y61944D01*
G01X35677Y61971D01*
G01X35680Y62000D01*
G01X35680Y64500D01*
G01X35677Y64528D01*
G01X35672Y64555D01*
G01X35660Y64582D01*
G01X35646Y64605D01*
G01X35627Y64628D01*
G01X35127Y65128D01*
G01X35106Y65146D01*
G01X35081Y65159D01*
G01X35056Y65171D01*
G01X35027Y65178D01*
G01X35000Y65180D01*
G01X34619Y65180D01*
G01X34568Y65209D01*
G01X34477Y65217D01*
G01X34389Y65190D01*
G01X34322Y65130D01*
G01X34284Y65046D01*
G01X34284Y64954D01*
G01X34322Y64869D01*
G01X34389Y64809D01*
G01X34477Y64782D01*
G01X34568Y64790D01*
G01X34619Y64819D01*
G01X34923Y64819D01*
G01X35030Y64713D01*
G01X34977Y64717D01*
G01X34889Y64690D01*
G01X34822Y64630D01*
G01X34784Y64546D01*
G01X34784Y64540D01*
G01X34372Y64128D01*
G01X34354Y64105D01*
G01X34339Y64082D01*
G01X34327Y64055D01*
G01X34322Y64028D01*
G01X34319Y64000D01*
G01X34319Y62576D01*
G01X33923Y62180D01*
G01X33735Y62180D01*
G01X33750Y62188D01*
G01X33830Y62273D01*
G01X33881Y62382D01*
G01X33900Y62500D01*
G01X33881Y62617D01*
G01X33830Y62726D01*
G01X33750Y62811D01*
G01X33646Y62871D01*
G01X33530Y62898D01*
G01X33410Y62890D01*
G01X33300Y62846D01*
G01X33206Y62771D01*
G01X33139Y62673D01*
G01X33104Y62559D01*
G01X33104Y62440D01*
G01X33139Y62326D01*
G01X33206Y62228D01*
G01X33265Y62180D01*
G01X32000Y62180D01*
G01X31972Y62178D01*
G01X31943Y62171D01*
G01X31918Y62159D01*
G01X31893Y62146D01*
G01X31872Y62128D01*
G01X27622Y57878D01*
G01X27530Y57898D01*
G01X27410Y57890D01*
G01X27300Y57846D01*
G01X27206Y57771D01*
G01X27139Y57673D01*
G01X27103Y57559D01*
G01X27103Y57440D01*
G01X27139Y57326D01*
G01X27206Y57228D01*
G01X27265Y57180D01*
G01X27076Y57180D01*
G01X26680Y57576D01*
G01X26680Y58000D01*
G01X26677Y58028D01*
G01X26672Y58055D01*
G01X26660Y58082D01*
G01X26646Y58105D01*
G01X26627Y58128D01*
G01X26210Y58546D01*
G01X26200Y58590D01*
G01X26147Y58663D01*
G01X26068Y58709D01*
G01X25977Y58717D01*
G01X25889Y58690D01*
G01X25822Y58630D01*
G01X25784Y58546D01*
G01X25784Y58454D01*
G01X25822Y58369D01*
G01X25889Y58309D01*
G01X25953Y58290D01*
G01X26319Y57923D01*
G01X26319Y57500D01*
G01X26322Y57471D01*
G01X26327Y57444D01*
G01X26339Y57417D01*
G01X26353Y57394D01*
G01X26372Y57371D01*
G01X26872Y56871D01*
G01X26893Y56854D01*
G01X26918Y56840D01*
G01X26943Y56828D01*
G01X26972Y56821D01*
G01X27000Y56819D01*
G01X27265Y56819D01*
G01X27206Y56771D01*
G01X27139Y56673D01*
G01X27103Y56559D01*
G01X27103Y56440D01*
G01X27139Y56326D01*
G01X27206Y56228D01*
G01X27300Y56154D01*
G01X27410Y56109D01*
G01X27530Y56102D01*
G01X27646Y56128D01*
G01X27750Y56188D01*
G01X27830Y56273D01*
G01X27852Y56319D01*
G01X29923Y56319D01*
G01X32372Y53871D01*
G01X32393Y53854D01*
G01X32418Y53840D01*
G01X32443Y53828D01*
G01X32472Y53821D01*
G01X32500Y53819D01*
G01X33265Y53819D01*
G01X33206Y53771D01*
G01X33139Y53673D01*
G01X33104Y53559D01*
G01X33104Y53440D01*
G01X33139Y53326D01*
G01X33206Y53228D01*
G01X33215Y53219D01*
G01X29000Y53219D01*
G01X28965Y53217D01*
G01X28931Y53209D01*
G01X28900Y53196D01*
G01X28869Y53178D01*
G01X28843Y53155D01*
G01X28407Y52719D01*
G01X27831Y52719D01*
G01X27830Y52726D01*
G01X27750Y52811D01*
G01X27646Y52871D01*
G01X27530Y52898D01*
G01X27410Y52890D01*
G01X27300Y52846D01*
G01X27206Y52771D01*
G01X27169Y52719D01*
G01X27092Y52719D01*
G01X26719Y53092D01*
G01X26719Y54000D01*
G01X26718Y54034D01*
G01X26710Y54067D01*
G01X26696Y54100D01*
G01X26677Y54130D01*
G01X26656Y54155D01*
G01X26156Y54655D01*
G01X26130Y54678D01*
G01X26100Y54696D01*
G01X26068Y54709D01*
G01X26034Y54717D01*
G01X26000Y54719D01*
G01X24900Y54719D01*
G01X24900Y54800D01*
G01X24896Y54830D01*
G01X24880Y54857D01*
G01X24857Y54880D01*
G01X24830Y54896D01*
G01X24800Y54900D01*
G01X24200Y54900D01*
G01X24169Y54896D01*
G01X24142Y54880D01*
G01X24119Y54857D01*
G01X24103Y54830D01*
G01X24100Y54800D01*
G01X24100Y54200D01*
G01X24103Y54169D01*
G01X24119Y54142D01*
G01X24142Y54119D01*
G01X24169Y54104D01*
G01X24200Y54100D01*
G01X24800Y54100D01*
G01X24830Y54104D01*
G01X24857Y54119D01*
G01X24880Y54142D01*
G01X24896Y54169D01*
G01X24900Y54200D01*
G01X24900Y54280D01*
G01X25907Y54280D01*
G01X26280Y53907D01*
G01X26280Y53000D01*
G01X26281Y52965D01*
G01X26289Y52932D01*
G01X26303Y52900D01*
G01X26322Y52869D01*
G01X26343Y52844D01*
G01X26843Y52344D01*
G01X26869Y52321D01*
G01X26900Y52304D01*
G01X26931Y52290D01*
G01X26965Y52282D01*
G01X27000Y52280D01*
G01X27169Y52280D01*
G01X27206Y52228D01*
G01X27300Y52154D01*
G01X27410Y52109D01*
G01X27530Y52102D01*
G37*
G36*
G01X33650Y52130D02*
G01X33750Y52188D01*
G01X33830Y52273D01*
G01X33865Y52350D01*
G01X33650Y52350D01*
G01X33650Y52130D01*
G37*
G36*
G01X33350Y52134D02*
G01X33350Y52350D01*
G01X33131Y52350D01*
G01X33139Y52326D01*
G01X33206Y52228D01*
G01X33300Y52154D01*
G01X33350Y52134D01*
G37*
G36*
G01X6030Y101602D02*
G01X6146Y101628D01*
G01X6250Y101688D01*
G01X6330Y101773D01*
G01X6381Y101882D01*
G01X6400Y102000D01*
G01X6381Y102117D01*
G01X6330Y102226D01*
G01X6250Y102311D01*
G01X6146Y102371D01*
G01X6030Y102398D01*
G01X5910Y102390D01*
G01X5800Y102346D01*
G01X5706Y102271D01*
G01X5639Y102173D01*
G01X5603Y102059D01*
G01X5603Y101940D01*
G01X5639Y101826D01*
G01X5706Y101728D01*
G01X5800Y101654D01*
G01X5910Y101609D01*
G01X6030Y101602D01*
G37*
G36*
G01X1950Y52402D02*
G01X2148Y52409D01*
G01X2340Y52454D01*
G01X2521Y52532D01*
G01X2686Y52640D01*
G01X2828Y52776D01*
G01X2944Y52936D01*
G01X3030Y53113D01*
G01X3082Y53304D01*
G01X3100Y53500D01*
G01X3082Y53696D01*
G01X3030Y53886D01*
G01X2944Y54063D01*
G01X2828Y54223D01*
G01X2686Y54359D01*
G01X2521Y54467D01*
G01X2340Y54546D01*
G01X2148Y54590D01*
G01X1950Y54598D01*
G01X1755Y54571D01*
G01X1567Y54511D01*
G01X1394Y54417D01*
G01X1240Y54296D01*
G01X1109Y54146D01*
G01X1007Y53978D01*
G01X940Y53792D01*
G01X903Y53598D01*
G01X903Y53402D01*
G01X940Y53207D01*
G01X1007Y53021D01*
G01X1109Y52854D01*
G01X1240Y52704D01*
G01X1394Y52582D01*
G01X1567Y52488D01*
G01X1755Y52428D01*
G01X1950Y52402D01*
G37*
G36*
G01X54950Y52402D02*
G01X55147Y52409D01*
G01X55339Y52454D01*
G01X55522Y52532D01*
G01X55685Y52640D01*
G01X55827Y52776D01*
G01X55943Y52936D01*
G01X56030Y53113D01*
G01X56081Y53304D01*
G01X56100Y53500D01*
G01X56081Y53696D01*
G01X56030Y53886D01*
G01X55943Y54063D01*
G01X55827Y54223D01*
G01X55685Y54359D01*
G01X55522Y54467D01*
G01X55339Y54546D01*
G01X55147Y54590D01*
G01X54950Y54598D01*
G01X54756Y54571D01*
G01X54568Y54511D01*
G01X54393Y54417D01*
G01X54239Y54296D01*
G01X54110Y54146D01*
G01X54007Y53978D01*
G01X53939Y53792D01*
G01X53904Y53598D01*
G01X53904Y53402D01*
G01X53939Y53207D01*
G01X54007Y53021D01*
G01X54110Y52854D01*
G01X54239Y52704D01*
G01X54393Y52582D01*
G01X54568Y52488D01*
G01X54756Y52428D01*
G01X54950Y52402D01*
G37*
G36*
G01X5030Y101602D02*
G01X5146Y101628D01*
G01X5250Y101688D01*
G01X5330Y101773D01*
G01X5381Y101882D01*
G01X5400Y102000D01*
G01X5381Y102117D01*
G01X5330Y102226D01*
G01X5250Y102311D01*
G01X5146Y102371D01*
G01X5030Y102398D01*
G01X4910Y102390D01*
G01X4800Y102346D01*
G01X4706Y102271D01*
G01X4639Y102173D01*
G01X4603Y102059D01*
G01X4603Y101940D01*
G01X4639Y101826D01*
G01X4706Y101728D01*
G01X4800Y101654D01*
G01X4910Y101609D01*
G01X5030Y101602D01*
G37*
G36*
G01X20030Y101602D02*
G01X20146Y101628D01*
G01X20250Y101688D01*
G01X20330Y101773D01*
G01X20381Y101882D01*
G01X20400Y102000D01*
G01X20381Y102117D01*
G01X20330Y102226D01*
G01X20250Y102311D01*
G01X20146Y102371D01*
G01X20030Y102398D01*
G01X19910Y102390D01*
G01X19800Y102346D01*
G01X19706Y102271D01*
G01X19639Y102173D01*
G01X19603Y102059D01*
G01X19603Y101940D01*
G01X19639Y101826D01*
G01X19706Y101728D01*
G01X19800Y101654D01*
G01X19910Y101609D01*
G01X20030Y101602D01*
G37*
G36*
G01X19030Y101602D02*
G01X19146Y101628D01*
G01X19250Y101688D01*
G01X19330Y101773D01*
G01X19381Y101882D01*
G01X19400Y102000D01*
G01X19381Y102117D01*
G01X19330Y102226D01*
G01X19250Y102311D01*
G01X19146Y102371D01*
G01X19030Y102398D01*
G01X18910Y102390D01*
G01X18800Y102346D01*
G01X18706Y102271D01*
G01X18639Y102173D01*
G01X18603Y102059D01*
G01X18603Y101940D01*
G01X18639Y101826D01*
G01X18706Y101728D01*
G01X18800Y101654D01*
G01X18910Y101609D01*
G01X19030Y101602D01*
G37*
G36*
G01X18030Y101602D02*
G01X18146Y101628D01*
G01X18250Y101688D01*
G01X18330Y101773D01*
G01X18381Y101882D01*
G01X18400Y102000D01*
G01X18381Y102117D01*
G01X18330Y102226D01*
G01X18250Y102311D01*
G01X18146Y102371D01*
G01X18030Y102398D01*
G01X17910Y102390D01*
G01X17800Y102346D01*
G01X17706Y102271D01*
G01X17639Y102173D01*
G01X17603Y102059D01*
G01X17603Y101940D01*
G01X17639Y101826D01*
G01X17706Y101728D01*
G01X17800Y101654D01*
G01X17910Y101609D01*
G01X18030Y101602D01*
G37*
G36*
G01X27530Y53102D02*
G01X27646Y53128D01*
G01X27750Y53188D01*
G01X27830Y53273D01*
G01X27881Y53382D01*
G01X27900Y53500D01*
G01X27881Y53617D01*
G01X27830Y53726D01*
G01X27750Y53811D01*
G01X27646Y53871D01*
G01X27530Y53898D01*
G01X27410Y53890D01*
G01X27300Y53846D01*
G01X27206Y53771D01*
G01X27139Y53673D01*
G01X27103Y53559D01*
G01X27103Y53440D01*
G01X27139Y53326D01*
G01X27206Y53228D01*
G01X27300Y53154D01*
G01X27410Y53109D01*
G01X27530Y53102D01*
G37*
G36*
G01X33030Y101602D02*
G01X33146Y101628D01*
G01X33250Y101688D01*
G01X33330Y101773D01*
G01X33381Y101882D01*
G01X33400Y102000D01*
G01X33381Y102117D01*
G01X33330Y102226D01*
G01X33250Y102311D01*
G01X33146Y102371D01*
G01X33030Y102398D01*
G01X32910Y102390D01*
G01X32800Y102346D01*
G01X32706Y102271D01*
G01X32639Y102173D01*
G01X32603Y102059D01*
G01X32603Y101940D01*
G01X32639Y101826D01*
G01X32706Y101728D01*
G01X32800Y101654D01*
G01X32910Y101609D01*
G01X33030Y101602D01*
G37*
G36*
G01X32030Y101602D02*
G01X32146Y101628D01*
G01X32250Y101688D01*
G01X32330Y101773D01*
G01X32381Y101882D01*
G01X32400Y102000D01*
G01X32381Y102117D01*
G01X32330Y102226D01*
G01X32250Y102311D01*
G01X32146Y102371D01*
G01X32030Y102398D01*
G01X31910Y102390D01*
G01X31800Y102346D01*
G01X31706Y102271D01*
G01X31639Y102173D01*
G01X31603Y102059D01*
G01X31603Y101940D01*
G01X31639Y101826D01*
G01X31706Y101728D01*
G01X31800Y101654D01*
G01X31910Y101609D01*
G01X32030Y101602D01*
G37*
G36*
G01X31030Y101602D02*
G01X31146Y101628D01*
G01X31250Y101688D01*
G01X31330Y101773D01*
G01X31381Y101882D01*
G01X31400Y102000D01*
G01X31381Y102117D01*
G01X31330Y102226D01*
G01X31250Y102311D01*
G01X31146Y102371D01*
G01X31030Y102398D01*
G01X30910Y102390D01*
G01X30800Y102346D01*
G01X30706Y102271D01*
G01X30639Y102173D01*
G01X30603Y102059D01*
G01X30603Y101940D01*
G01X30639Y101826D01*
G01X30706Y101728D01*
G01X30800Y101654D01*
G01X30910Y101609D01*
G01X31030Y101602D01*
G37*
G36*
G01X27530Y54102D02*
G01X27646Y54128D01*
G01X27750Y54188D01*
G01X27830Y54273D01*
G01X27881Y54382D01*
G01X27900Y54500D01*
G01X27881Y54617D01*
G01X27830Y54726D01*
G01X27750Y54811D01*
G01X27646Y54871D01*
G01X27530Y54898D01*
G01X27410Y54890D01*
G01X27300Y54846D01*
G01X27206Y54771D01*
G01X27139Y54673D01*
G01X27103Y54559D01*
G01X27103Y54440D01*
G01X27139Y54326D01*
G01X27206Y54228D01*
G01X27300Y54154D01*
G01X27410Y54109D01*
G01X27530Y54102D01*
G37*
G36*
G01X46030Y101602D02*
G01X46146Y101628D01*
G01X46250Y101688D01*
G01X46330Y101773D01*
G01X46381Y101882D01*
G01X46400Y102000D01*
G01X46381Y102117D01*
G01X46330Y102226D01*
G01X46250Y102311D01*
G01X46146Y102371D01*
G01X46030Y102398D01*
G01X45910Y102390D01*
G01X45800Y102346D01*
G01X45706Y102271D01*
G01X45639Y102173D01*
G01X45604Y102059D01*
G01X45604Y101940D01*
G01X45639Y101826D01*
G01X45706Y101728D01*
G01X45800Y101654D01*
G01X45910Y101609D01*
G01X46030Y101602D01*
G37*
G36*
G01X45030Y101602D02*
G01X45146Y101628D01*
G01X45250Y101688D01*
G01X45330Y101773D01*
G01X45381Y101882D01*
G01X45400Y102000D01*
G01X45381Y102117D01*
G01X45330Y102226D01*
G01X45250Y102311D01*
G01X45146Y102371D01*
G01X45030Y102398D01*
G01X44910Y102390D01*
G01X44800Y102346D01*
G01X44706Y102271D01*
G01X44639Y102173D01*
G01X44604Y102059D01*
G01X44604Y101940D01*
G01X44639Y101826D01*
G01X44706Y101728D01*
G01X44800Y101654D01*
G01X44910Y101609D01*
G01X45030Y101602D01*
G37*
G36*
G01X44030Y101602D02*
G01X44146Y101628D01*
G01X44250Y101688D01*
G01X44330Y101773D01*
G01X44381Y101882D01*
G01X44400Y102000D01*
G01X44381Y102117D01*
G01X44330Y102226D01*
G01X44250Y102311D01*
G01X44146Y102371D01*
G01X44030Y102398D01*
G01X43910Y102390D01*
G01X43800Y102346D01*
G01X43706Y102271D01*
G01X43639Y102173D01*
G01X43604Y102059D01*
G01X43604Y101940D01*
G01X43639Y101826D01*
G01X43706Y101728D01*
G01X43800Y101654D01*
G01X43910Y101609D01*
G01X44030Y101602D01*
G37*
G36*
G01X54950Y101402D02*
G01X55147Y101409D01*
G01X55339Y101454D01*
G01X55522Y101532D01*
G01X55685Y101640D01*
G01X55827Y101776D01*
G01X55943Y101936D01*
G01X56030Y102113D01*
G01X56081Y102304D01*
G01X56100Y102500D01*
G01X56081Y102696D01*
G01X56030Y102886D01*
G01X55943Y103063D01*
G01X55827Y103223D01*
G01X55685Y103359D01*
G01X55522Y103467D01*
G01X55339Y103546D01*
G01X55147Y103590D01*
G01X54950Y103598D01*
G01X54756Y103571D01*
G01X54568Y103511D01*
G01X54393Y103417D01*
G01X54239Y103296D01*
G01X54110Y103146D01*
G01X54007Y102978D01*
G01X53939Y102792D01*
G01X53904Y102598D01*
G01X53904Y102402D01*
G01X53939Y102208D01*
G01X54007Y102021D01*
G01X54110Y101854D01*
G01X54239Y101704D01*
G01X54393Y101582D01*
G01X54568Y101488D01*
G01X54756Y101428D01*
G01X54950Y101402D01*
G37*
G36*
G01X27530Y55102D02*
G01X27646Y55128D01*
G01X27750Y55188D01*
G01X27830Y55273D01*
G01X27881Y55382D01*
G01X27900Y55500D01*
G01X27881Y55617D01*
G01X27830Y55726D01*
G01X27750Y55811D01*
G01X27646Y55871D01*
G01X27530Y55898D01*
G01X27410Y55890D01*
G01X27300Y55846D01*
G01X27206Y55771D01*
G01X27143Y55680D01*
G01X27076Y55680D01*
G01X26627Y56128D01*
G01X26606Y56146D01*
G01X26581Y56159D01*
G01X26556Y56171D01*
G01X26527Y56178D01*
G01X26500Y56180D01*
G01X26076Y56180D01*
G01X25680Y56576D01*
G01X25680Y66882D01*
G01X25700Y66909D01*
G01X25719Y67000D01*
G01X25700Y67090D01*
G01X25647Y67163D01*
G01X25568Y67209D01*
G01X25477Y67217D01*
G01X25389Y67190D01*
G01X25322Y67130D01*
G01X25284Y67046D01*
G01X25284Y66954D01*
G01X25319Y66873D01*
G01X25319Y56500D01*
G01X25322Y56471D01*
G01X25327Y56444D01*
G01X25339Y56417D01*
G01X25353Y56394D01*
G01X25372Y56371D01*
G01X25872Y55871D01*
G01X25893Y55854D01*
G01X25918Y55840D01*
G01X25943Y55828D01*
G01X25972Y55821D01*
G01X26000Y55819D01*
G01X26423Y55819D01*
G01X26872Y55371D01*
G01X26893Y55354D01*
G01X26918Y55340D01*
G01X26943Y55328D01*
G01X26972Y55321D01*
G01X27000Y55319D01*
G01X27143Y55319D01*
G01X27206Y55228D01*
G01X27300Y55154D01*
G01X27410Y55109D01*
G01X27530Y55102D01*
G37*
G36*
G01X33530Y55102D02*
G01X33646Y55128D01*
G01X33750Y55188D01*
G01X33830Y55273D01*
G01X33881Y55382D01*
G01X33900Y55500D01*
G01X33881Y55617D01*
G01X33830Y55726D01*
G01X33750Y55811D01*
G01X33646Y55871D01*
G01X33530Y55898D01*
G01X33410Y55890D01*
G01X33300Y55846D01*
G01X33206Y55771D01*
G01X33139Y55673D01*
G01X33104Y55559D01*
G01X33104Y55440D01*
G01X33139Y55326D01*
G01X33206Y55228D01*
G01X33300Y55154D01*
G01X33410Y55109D01*
G01X33530Y55102D01*
G37*
G36*
G01X24650Y55130D02*
G01X24750Y55188D01*
G01X24830Y55273D01*
G01X24865Y55350D01*
G01X24650Y55350D01*
G01X24650Y55130D01*
G37*
G36*
G01X36650Y55130D02*
G01X36750Y55188D01*
G01X36830Y55273D01*
G01X36865Y55350D01*
G01X36650Y55350D01*
G01X36650Y55130D01*
G37*
G36*
G01X24350Y55134D02*
G01X24350Y55350D01*
G01X24131Y55350D01*
G01X24139Y55326D01*
G01X24206Y55228D01*
G01X24300Y55154D01*
G01X24350Y55134D01*
G37*
G36*
G01X36350Y55134D02*
G01X36350Y55350D01*
G01X36131Y55350D01*
G01X36139Y55326D01*
G01X36206Y55228D01*
G01X36300Y55154D01*
G01X36350Y55134D01*
G37*
G36*
G01X1950Y101402D02*
G01X2148Y101409D01*
G01X2340Y101454D01*
G01X2521Y101532D01*
G01X2686Y101640D01*
G01X2828Y101776D01*
G01X2944Y101936D01*
G01X3030Y102113D01*
G01X3082Y102304D01*
G01X3100Y102500D01*
G01X3082Y102696D01*
G01X3030Y102886D01*
G01X2944Y103063D01*
G01X2828Y103223D01*
G01X2686Y103359D01*
G01X2521Y103467D01*
G01X2340Y103546D01*
G01X2148Y103590D01*
G01X1950Y103598D01*
G01X1755Y103571D01*
G01X1567Y103511D01*
G01X1394Y103417D01*
G01X1240Y103296D01*
G01X1109Y103146D01*
G01X1007Y102978D01*
G01X940Y102792D01*
G01X903Y102598D01*
G01X903Y102402D01*
G01X940Y102208D01*
G01X1007Y102021D01*
G01X1109Y101854D01*
G01X1240Y101704D01*
G01X1394Y101582D01*
G01X1567Y101488D01*
G01X1755Y101428D01*
G01X1950Y101402D01*
G37*
G36*
G01X24650Y55650D02*
G01X24865Y55650D01*
G01X24830Y55726D01*
G01X24750Y55811D01*
G01X24650Y55869D01*
G01X24650Y55650D01*
G37*
G36*
G01X24131Y55650D02*
G01X24350Y55650D01*
G01X24350Y55865D01*
G01X24300Y55846D01*
G01X24206Y55771D01*
G01X24139Y55673D01*
G01X24131Y55650D01*
G37*
G36*
G01X28100Y96615D02*
G01X28900Y96615D01*
G01X28930Y96619D01*
G01X28957Y96636D01*
G01X28980Y96658D01*
G01X28996Y96686D01*
G01X29000Y96715D01*
G01X29000Y97315D01*
G01X28996Y97346D01*
G01X28980Y97373D01*
G01X28957Y97396D01*
G01X28930Y97411D01*
G01X28900Y97415D01*
G01X28100Y97415D01*
G01X28069Y97411D01*
G01X28042Y97396D01*
G01X28019Y97373D01*
G01X28003Y97346D01*
G01X28000Y97315D01*
G01X28000Y96715D01*
G01X28003Y96686D01*
G01X28019Y96658D01*
G01X28042Y96636D01*
G01X28069Y96619D01*
G01X28100Y96615D01*
G37*
G36*
G01X41100Y96615D02*
G01X41900Y96615D01*
G01X41930Y96619D01*
G01X41957Y96636D01*
G01X41980Y96658D01*
G01X41996Y96686D01*
G01X42000Y96715D01*
G01X42000Y97315D01*
G01X41996Y97346D01*
G01X41980Y97373D01*
G01X41957Y97396D01*
G01X41930Y97411D01*
G01X41900Y97415D01*
G01X41100Y97415D01*
G01X41069Y97411D01*
G01X41042Y97396D01*
G01X41019Y97373D01*
G01X41004Y97346D01*
G01X41000Y97315D01*
G01X41000Y96715D01*
G01X41004Y96686D01*
G01X41019Y96658D01*
G01X41042Y96636D01*
G01X41069Y96619D01*
G01X41100Y96615D01*
G37*
G36*
G01X54100Y96615D02*
G01X54900Y96615D01*
G01X54930Y96619D01*
G01X54957Y96636D01*
G01X54980Y96658D01*
G01X54996Y96686D01*
G01X55000Y96715D01*
G01X55000Y97315D01*
G01X54996Y97346D01*
G01X54980Y97373D01*
G01X54957Y97396D01*
G01X54930Y97411D01*
G01X54900Y97415D01*
G01X54100Y97415D01*
G01X54069Y97411D01*
G01X54042Y97396D01*
G01X54019Y97373D01*
G01X54004Y97346D01*
G01X54000Y97315D01*
G01X54000Y96715D01*
G01X54004Y96686D01*
G01X54019Y96658D01*
G01X54042Y96636D01*
G01X54069Y96619D01*
G01X54100Y96615D01*
G37*
G36*
G01X15100Y96615D02*
G01X15900Y96615D01*
G01X15930Y96619D01*
G01X15957Y96636D01*
G01X15980Y96658D01*
G01X15996Y96686D01*
G01X16000Y96715D01*
G01X16000Y97315D01*
G01X15996Y97346D01*
G01X15980Y97373D01*
G01X15957Y97396D01*
G01X15930Y97411D01*
G01X15900Y97415D01*
G01X15100Y97415D01*
G01X15069Y97411D01*
G01X15042Y97396D01*
G01X15019Y97373D01*
G01X15003Y97346D01*
G01X15000Y97315D01*
G01X15000Y96715D01*
G01X15003Y96686D01*
G01X15019Y96658D01*
G01X15042Y96636D01*
G01X15069Y96619D01*
G01X15100Y96615D01*
G37*
G36*
G01X28000Y95134D02*
G01X28300Y95134D01*
G01X28300Y95384D01*
G01X28100Y95384D01*
G01X28069Y95380D01*
G01X28042Y95363D01*
G01X28019Y95342D01*
G01X28003Y95313D01*
G01X28000Y95284D01*
G01X28000Y95134D01*
G37*
G36*
G01X28700Y95134D02*
G01X29000Y95134D01*
G01X29000Y95284D01*
G01X28996Y95313D01*
G01X28980Y95342D01*
G01X28957Y95363D01*
G01X28930Y95380D01*
G01X28900Y95384D01*
G01X28700Y95384D01*
G01X28700Y95134D01*
G37*
G36*
G01X41000Y95134D02*
G01X41300Y95134D01*
G01X41300Y95384D01*
G01X41100Y95384D01*
G01X41069Y95380D01*
G01X41042Y95363D01*
G01X41019Y95342D01*
G01X41004Y95313D01*
G01X41000Y95284D01*
G01X41000Y95134D01*
G37*
G36*
G01X41700Y95134D02*
G01X42000Y95134D01*
G01X42000Y95284D01*
G01X41996Y95313D01*
G01X41980Y95342D01*
G01X41957Y95363D01*
G01X41930Y95380D01*
G01X41900Y95384D01*
G01X41700Y95384D01*
G01X41700Y95134D01*
G37*
G36*
G01X54000Y95134D02*
G01X54300Y95134D01*
G01X54300Y95384D01*
G01X54100Y95384D01*
G01X54069Y95380D01*
G01X54042Y95363D01*
G01X54019Y95342D01*
G01X54004Y95313D01*
G01X54000Y95284D01*
G01X54000Y95134D01*
G37*
G36*
G01X54700Y95134D02*
G01X55000Y95134D01*
G01X55000Y95284D01*
G01X54996Y95313D01*
G01X54980Y95342D01*
G01X54957Y95363D01*
G01X54930Y95380D01*
G01X54900Y95384D01*
G01X54700Y95384D01*
G01X54700Y95134D01*
G37*
G36*
G01X24530Y56102D02*
G01X24646Y56128D01*
G01X24750Y56188D01*
G01X24830Y56273D01*
G01X24881Y56382D01*
G01X24900Y56500D01*
G01X24881Y56617D01*
G01X24830Y56726D01*
G01X24750Y56811D01*
G01X24646Y56871D01*
G01X24530Y56898D01*
G01X24410Y56890D01*
G01X24300Y56846D01*
G01X24206Y56771D01*
G01X24139Y56673D01*
G01X24103Y56559D01*
G01X24103Y56440D01*
G01X24139Y56326D01*
G01X24206Y56228D01*
G01X24300Y56154D01*
G01X24410Y56109D01*
G01X24530Y56102D01*
G37*
G36*
G01X15000Y95134D02*
G01X15300Y95134D01*
G01X15300Y95384D01*
G01X15100Y95384D01*
G01X15069Y95380D01*
G01X15042Y95363D01*
G01X15019Y95342D01*
G01X15003Y95313D01*
G01X15000Y95284D01*
G01X15000Y95134D01*
G37*
G36*
G01X15700Y95134D02*
G01X16000Y95134D01*
G01X16000Y95284D01*
G01X15996Y95313D01*
G01X15980Y95342D01*
G01X15957Y95363D01*
G01X15930Y95380D01*
G01X15900Y95384D01*
G01X15700Y95384D01*
G01X15700Y95134D01*
G37*
G36*
G01X28100Y94584D02*
G01X28300Y94584D01*
G01X28300Y94834D01*
G01X28000Y94834D01*
G01X28000Y94684D01*
G01X28003Y94654D01*
G01X28019Y94626D01*
G01X28042Y94604D01*
G01X28069Y94588D01*
G01X28100Y94584D01*
G37*
G36*
G01X28700Y94584D02*
G01X28900Y94584D01*
G01X28930Y94588D01*
G01X28957Y94604D01*
G01X28980Y94626D01*
G01X28996Y94654D01*
G01X29000Y94684D01*
G01X29000Y94834D01*
G01X28700Y94834D01*
G01X28700Y94584D01*
G37*
G36*
G01X41100Y94584D02*
G01X41300Y94584D01*
G01X41300Y94834D01*
G01X41000Y94834D01*
G01X41000Y94684D01*
G01X41004Y94654D01*
G01X41019Y94626D01*
G01X41042Y94604D01*
G01X41069Y94588D01*
G01X41100Y94584D01*
G37*
G36*
G01X41700Y94584D02*
G01X41900Y94584D01*
G01X41930Y94588D01*
G01X41957Y94604D01*
G01X41980Y94626D01*
G01X41996Y94654D01*
G01X42000Y94684D01*
G01X42000Y94834D01*
G01X41700Y94834D01*
G01X41700Y94584D01*
G37*
G36*
G01X54100Y94584D02*
G01X54300Y94584D01*
G01X54300Y94834D01*
G01X54000Y94834D01*
G01X54000Y94684D01*
G01X54004Y94654D01*
G01X54019Y94626D01*
G01X54042Y94604D01*
G01X54069Y94588D01*
G01X54100Y94584D01*
G37*
G36*
G01X54700Y94584D02*
G01X54900Y94584D01*
G01X54930Y94588D01*
G01X54957Y94604D01*
G01X54980Y94626D01*
G01X54996Y94654D01*
G01X55000Y94684D01*
G01X55000Y94834D01*
G01X54700Y94834D01*
G01X54700Y94584D01*
G37*
G36*
G01X15100Y94584D02*
G01X15300Y94584D01*
G01X15300Y94834D01*
G01X15000Y94834D01*
G01X15000Y94684D01*
G01X15003Y94654D01*
G01X15019Y94626D01*
G01X15042Y94604D01*
G01X15069Y94588D01*
G01X15100Y94584D01*
G37*
G36*
G01X15700Y94584D02*
G01X15900Y94584D01*
G01X15930Y94588D01*
G01X15957Y94604D01*
G01X15980Y94626D01*
G01X15996Y94654D01*
G01X16000Y94684D01*
G01X16000Y94834D01*
G01X15700Y94834D01*
G01X15700Y94584D01*
G37*
G36*
G01X35977Y91782D02*
G01X36068Y91790D01*
G01X36147Y91836D01*
G01X36200Y91909D01*
G01X36219Y92000D01*
G01X36200Y92090D01*
G01X36180Y92117D01*
G01X36180Y95423D01*
G01X36576Y95819D01*
G01X41000Y95819D01*
G01X41000Y95700D01*
G01X41004Y95669D01*
G01X41019Y95642D01*
G01X41042Y95619D01*
G01X41069Y95604D01*
G01X41100Y95600D01*
G01X41900Y95600D01*
G01X41930Y95604D01*
G01X41957Y95619D01*
G01X41980Y95642D01*
G01X41996Y95669D01*
G01X42000Y95700D01*
G01X42000Y96300D01*
G01X41996Y96330D01*
G01X41980Y96358D01*
G01X41957Y96380D01*
G01X41930Y96396D01*
G01X41900Y96400D01*
G01X41100Y96400D01*
G01X41069Y96396D01*
G01X41042Y96380D01*
G01X41019Y96358D01*
G01X41004Y96330D01*
G01X41000Y96300D01*
G01X41000Y96180D01*
G01X36500Y96180D01*
G01X36472Y96178D01*
G01X36443Y96171D01*
G01X36418Y96159D01*
G01X36393Y96146D01*
G01X36372Y96128D01*
G01X35872Y95628D01*
G01X35854Y95606D01*
G01X35839Y95582D01*
G01X35827Y95556D01*
G01X35822Y95528D01*
G01X35819Y95500D01*
G01X35819Y92126D01*
G01X35784Y92046D01*
G01X35784Y91954D01*
G01X35822Y91869D01*
G01X35889Y91809D01*
G01X35977Y91782D01*
G37*
G36*
G01X47996Y56705D02*
G01X48089Y56713D01*
G01X48169Y56761D01*
G01X48185Y56784D01*
G01X48242Y56736D01*
G01X48330Y56707D01*
G01X48423Y56715D01*
G01X48504Y56763D01*
G01X48519Y56786D01*
G01X48576Y56736D01*
G01X48664Y56707D01*
G01X48757Y56715D01*
G01X48838Y56763D01*
G01X48854Y56786D01*
G01X48910Y56736D01*
G01X48997Y56707D01*
G01X49092Y56715D01*
G01X49172Y56763D01*
G01X49188Y56784D01*
G01X49242Y56736D01*
G01X49330Y56707D01*
G01X49423Y56715D01*
G01X49504Y56763D01*
G01X49534Y56805D01*
G01X49538Y56796D01*
G01X49607Y56734D01*
G01X49696Y56705D01*
G01X49789Y56713D01*
G01X49869Y56761D01*
G01X49923Y56836D01*
G01X49943Y56928D01*
G01X49923Y57019D01*
G01X49869Y57094D01*
G01X49789Y57142D01*
G01X49696Y57150D01*
G01X49607Y57121D01*
G01X49538Y57059D01*
G01X49535Y57054D01*
G01X49504Y57096D01*
G01X49423Y57144D01*
G01X49330Y57152D01*
G01X49242Y57123D01*
G01X49188Y57076D01*
G01X49172Y57096D01*
G01X49092Y57144D01*
G01X48997Y57152D01*
G01X48910Y57123D01*
G01X48854Y57073D01*
G01X48838Y57096D01*
G01X48757Y57144D01*
G01X48664Y57152D01*
G01X48576Y57123D01*
G01X48519Y57073D01*
G01X48504Y57096D01*
G01X48423Y57144D01*
G01X48330Y57152D01*
G01X48242Y57123D01*
G01X48184Y57073D01*
G01X48169Y57094D01*
G01X48089Y57142D01*
G01X47996Y57150D01*
G01X47907Y57121D01*
G01X47838Y57059D01*
G01X47800Y56973D01*
G01X47800Y56882D01*
G01X47838Y56796D01*
G01X47907Y56734D01*
G01X47996Y56705D01*
G37*
G36*
G01X22977Y91782D02*
G01X23068Y91790D01*
G01X23147Y91836D01*
G01X23200Y91909D01*
G01X23219Y92000D01*
G01X23200Y92090D01*
G01X23180Y92117D01*
G01X23180Y95423D01*
G01X23576Y95819D01*
G01X28000Y95819D01*
G01X28000Y95700D01*
G01X28003Y95669D01*
G01X28019Y95642D01*
G01X28042Y95619D01*
G01X28069Y95604D01*
G01X28100Y95600D01*
G01X28900Y95600D01*
G01X28930Y95604D01*
G01X28957Y95619D01*
G01X28980Y95642D01*
G01X28996Y95669D01*
G01X29000Y95700D01*
G01X29000Y96300D01*
G01X28996Y96330D01*
G01X28980Y96358D01*
G01X28957Y96380D01*
G01X28930Y96396D01*
G01X28900Y96400D01*
G01X28100Y96400D01*
G01X28069Y96396D01*
G01X28042Y96380D01*
G01X28019Y96358D01*
G01X28003Y96330D01*
G01X28000Y96300D01*
G01X28000Y96180D01*
G01X23500Y96180D01*
G01X23472Y96178D01*
G01X23443Y96171D01*
G01X23418Y96159D01*
G01X23393Y96146D01*
G01X23372Y96128D01*
G01X22872Y95628D01*
G01X22853Y95606D01*
G01X22839Y95582D01*
G01X22827Y95556D01*
G01X22822Y95528D01*
G01X22819Y95500D01*
G01X22819Y92126D01*
G01X22784Y92046D01*
G01X22784Y91954D01*
G01X22822Y91869D01*
G01X22889Y91809D01*
G01X22977Y91782D01*
G37*
G36*
G01X9977Y91782D02*
G01X10068Y91790D01*
G01X10147Y91836D01*
G01X10200Y91909D01*
G01X10219Y92000D01*
G01X10200Y92090D01*
G01X10180Y92117D01*
G01X10180Y95423D01*
G01X10576Y95819D01*
G01X15000Y95819D01*
G01X15000Y95700D01*
G01X15003Y95669D01*
G01X15019Y95642D01*
G01X15042Y95619D01*
G01X15069Y95604D01*
G01X15100Y95600D01*
G01X15900Y95600D01*
G01X15930Y95604D01*
G01X15957Y95619D01*
G01X15980Y95642D01*
G01X15996Y95669D01*
G01X16000Y95700D01*
G01X16000Y96300D01*
G01X15996Y96330D01*
G01X15980Y96358D01*
G01X15957Y96380D01*
G01X15930Y96396D01*
G01X15900Y96400D01*
G01X15100Y96400D01*
G01X15069Y96396D01*
G01X15042Y96380D01*
G01X15019Y96358D01*
G01X15003Y96330D01*
G01X15000Y96300D01*
G01X15000Y96180D01*
G01X10500Y96180D01*
G01X10472Y96178D01*
G01X10443Y96171D01*
G01X10418Y96159D01*
G01X10393Y96146D01*
G01X10372Y96128D01*
G01X9872Y95628D01*
G01X9853Y95606D01*
G01X9839Y95582D01*
G01X9827Y95556D01*
G01X9822Y95528D01*
G01X9819Y95500D01*
G01X9819Y92126D01*
G01X9784Y92046D01*
G01X9784Y91954D01*
G01X9822Y91869D01*
G01X9889Y91809D01*
G01X9977Y91782D01*
G37*
G36*
G01X51631Y91150D02*
G01X51850Y91150D01*
G01X51850Y91365D01*
G01X51800Y91346D01*
G01X51706Y91271D01*
G01X51639Y91173D01*
G01X51631Y91150D01*
G37*
G36*
G01X52150Y91150D02*
G01X52365Y91150D01*
G01X52330Y91226D01*
G01X52250Y91311D01*
G01X52150Y91369D01*
G01X52150Y91150D01*
G37*
G36*
G01X46631Y91150D02*
G01X46850Y91150D01*
G01X46850Y91365D01*
G01X46800Y91346D01*
G01X46706Y91271D01*
G01X46639Y91173D01*
G01X46631Y91150D01*
G37*
G36*
G01X47150Y91150D02*
G01X47365Y91150D01*
G01X47330Y91226D01*
G01X47250Y91311D01*
G01X47150Y91369D01*
G01X47150Y91150D01*
G37*
G36*
G01X7850Y90634D02*
G01X7850Y90850D01*
G01X7631Y90850D01*
G01X7639Y90826D01*
G01X7706Y90728D01*
G01X7800Y90654D01*
G01X7850Y90634D01*
G37*
G36*
G01X38850Y90634D02*
G01X38850Y90850D01*
G01X38631Y90850D01*
G01X38639Y90826D01*
G01X38706Y90728D01*
G01X38800Y90654D01*
G01X38850Y90634D01*
G37*
G36*
G01X51850Y90634D02*
G01X51850Y90850D01*
G01X51631Y90850D01*
G01X51639Y90826D01*
G01X51706Y90728D01*
G01X51800Y90654D01*
G01X51850Y90634D01*
G37*
G36*
G01X46850Y90634D02*
G01X46850Y90850D01*
G01X46631Y90850D01*
G01X46639Y90826D01*
G01X46706Y90728D01*
G01X46800Y90654D01*
G01X46850Y90634D01*
G37*
G36*
G01X24530Y57102D02*
G01X24646Y57128D01*
G01X24750Y57188D01*
G01X24830Y57273D01*
G01X24881Y57382D01*
G01X24900Y57500D01*
G01X24881Y57617D01*
G01X24830Y57726D01*
G01X24750Y57811D01*
G01X24646Y57871D01*
G01X24530Y57898D01*
G01X24410Y57890D01*
G01X24300Y57846D01*
G01X24206Y57771D01*
G01X24139Y57673D01*
G01X24103Y57559D01*
G01X24103Y57440D01*
G01X24139Y57326D01*
G01X24206Y57228D01*
G01X24300Y57154D01*
G01X24410Y57109D01*
G01X24530Y57102D01*
G37*
G36*
G01X36530Y57102D02*
G01X36646Y57128D01*
G01X36750Y57188D01*
G01X36830Y57273D01*
G01X36881Y57382D01*
G01X36900Y57500D01*
G01X36881Y57617D01*
G01X36830Y57726D01*
G01X36750Y57811D01*
G01X36646Y57871D01*
G01X36530Y57898D01*
G01X36410Y57890D01*
G01X36300Y57846D01*
G01X36206Y57771D01*
G01X36139Y57673D01*
G01X36104Y57559D01*
G01X36104Y57440D01*
G01X36139Y57326D01*
G01X36206Y57228D01*
G01X36300Y57154D01*
G01X36410Y57109D01*
G01X36530Y57102D01*
G37*
G36*
G01X33530Y57102D02*
G01X33646Y57128D01*
G01X33750Y57188D01*
G01X33830Y57273D01*
G01X33881Y57382D01*
G01X33900Y57500D01*
G01X33881Y57617D01*
G01X33830Y57726D01*
G01X33750Y57811D01*
G01X33646Y57871D01*
G01X33530Y57898D01*
G01X33410Y57890D01*
G01X33300Y57846D01*
G01X33206Y57771D01*
G01X33139Y57673D01*
G01X33104Y57559D01*
G01X33104Y57440D01*
G01X33139Y57326D01*
G01X33206Y57228D01*
G01X33300Y57154D01*
G01X33410Y57109D01*
G01X33530Y57102D01*
G37*
G36*
G01X8150Y90630D02*
G01X8250Y90688D01*
G01X8330Y90773D01*
G01X8365Y90850D01*
G01X8150Y90850D01*
G01X8150Y90630D01*
G37*
G36*
G01X47996Y57373D02*
G01X48089Y57382D01*
G01X48169Y57430D01*
G01X48185Y57452D01*
G01X48242Y57402D01*
G01X48330Y57373D01*
G01X48423Y57382D01*
G01X48504Y57430D01*
G01X48519Y57452D01*
G01X48576Y57402D01*
G01X48664Y57373D01*
G01X48757Y57382D01*
G01X48838Y57430D01*
G01X48854Y57452D01*
G01X48910Y57402D01*
G01X48997Y57373D01*
G01X49092Y57382D01*
G01X49172Y57430D01*
G01X49188Y57450D01*
G01X49242Y57402D01*
G01X49330Y57373D01*
G01X49423Y57382D01*
G01X49504Y57430D01*
G01X49534Y57471D01*
G01X49538Y57463D01*
G01X49607Y57402D01*
G01X49696Y57373D01*
G01X49789Y57382D01*
G01X49869Y57430D01*
G01X49923Y57504D01*
G01X49943Y57596D01*
G01X49923Y57688D01*
G01X49869Y57761D01*
G01X49789Y57809D01*
G01X49696Y57817D01*
G01X49607Y57790D01*
G01X49538Y57728D01*
G01X49534Y57719D01*
G01X49504Y57761D01*
G01X49423Y57809D01*
G01X49330Y57817D01*
G01X49242Y57790D01*
G01X49188Y57742D01*
G01X49172Y57761D01*
G01X49092Y57809D01*
G01X48997Y57817D01*
G01X48910Y57790D01*
G01X48854Y57740D01*
G01X48838Y57761D01*
G01X48757Y57809D01*
G01X48664Y57817D01*
G01X48576Y57790D01*
G01X48519Y57740D01*
G01X48504Y57761D01*
G01X48423Y57809D01*
G01X48330Y57817D01*
G01X48242Y57790D01*
G01X48185Y57740D01*
G01X48169Y57761D01*
G01X48089Y57809D01*
G01X47996Y57817D01*
G01X47907Y57790D01*
G01X47838Y57728D01*
G01X47800Y57642D01*
G01X47800Y57550D01*
G01X47838Y57463D01*
G01X47907Y57402D01*
G01X47996Y57373D01*
G37*
G36*
G01X39150Y90630D02*
G01X39250Y90688D01*
G01X39330Y90773D01*
G01X39365Y90850D01*
G01X39150Y90850D01*
G01X39150Y90630D01*
G37*
G36*
G01X52150Y90630D02*
G01X52250Y90688D01*
G01X52330Y90773D01*
G01X52365Y90850D01*
G01X52150Y90850D01*
G01X52150Y90630D01*
G37*
G36*
G01X47150Y90630D02*
G01X47250Y90688D01*
G01X47330Y90773D01*
G01X47365Y90850D01*
G01X47150Y90850D01*
G01X47150Y90630D01*
G37*
G36*
G01X51030Y90602D02*
G01X51146Y90628D01*
G01X51250Y90688D01*
G01X51330Y90773D01*
G01X51381Y90882D01*
G01X51400Y91000D01*
G01X51381Y91117D01*
G01X51330Y91226D01*
G01X51250Y91311D01*
G01X51146Y91371D01*
G01X51030Y91398D01*
G01X50910Y91390D01*
G01X50800Y91346D01*
G01X50706Y91271D01*
G01X50639Y91173D01*
G01X50604Y91059D01*
G01X50604Y90940D01*
G01X50639Y90826D01*
G01X50706Y90728D01*
G01X50800Y90654D01*
G01X50910Y90609D01*
G01X51030Y90602D01*
G37*
G36*
G01X50030Y90602D02*
G01X50146Y90628D01*
G01X50250Y90688D01*
G01X50330Y90773D01*
G01X50381Y90882D01*
G01X50400Y91000D01*
G01X50381Y91117D01*
G01X50330Y91226D01*
G01X50250Y91311D01*
G01X50146Y91371D01*
G01X50030Y91398D01*
G01X49910Y91390D01*
G01X49800Y91346D01*
G01X49706Y91271D01*
G01X49639Y91173D01*
G01X49604Y91059D01*
G01X49604Y90940D01*
G01X49639Y90826D01*
G01X49706Y90728D01*
G01X49800Y90654D01*
G01X49910Y90609D01*
G01X50030Y90602D01*
G37*
G36*
G01X45030Y90602D02*
G01X45146Y90628D01*
G01X45250Y90688D01*
G01X45330Y90773D01*
G01X45381Y90882D01*
G01X45400Y91000D01*
G01X45381Y91117D01*
G01X45330Y91226D01*
G01X45250Y91311D01*
G01X45146Y91371D01*
G01X45030Y91398D01*
G01X44910Y91390D01*
G01X44800Y91346D01*
G01X44706Y91271D01*
G01X44639Y91173D01*
G01X44604Y91059D01*
G01X44604Y90940D01*
G01X44639Y90826D01*
G01X44706Y90728D01*
G01X44800Y90654D01*
G01X44910Y90609D01*
G01X45030Y90602D01*
G37*
G36*
G01X38477Y87782D02*
G01X38568Y87790D01*
G01X38619Y87819D01*
G01X39377Y87819D01*
G01X39389Y87809D01*
G01X39477Y87782D01*
G01X39568Y87790D01*
G01X39647Y87836D01*
G01X39700Y87909D01*
G01X39719Y88000D01*
G01X39700Y88090D01*
G01X39647Y88163D01*
G01X39568Y88209D01*
G01X39477Y88217D01*
G01X39389Y88190D01*
G01X39377Y88180D01*
G01X38619Y88180D01*
G01X38568Y88209D01*
G01X38477Y88217D01*
G01X38389Y88190D01*
G01X38322Y88130D01*
G01X38284Y88046D01*
G01X38284Y87954D01*
G01X38322Y87869D01*
G01X38389Y87809D01*
G01X38477Y87782D01*
G37*
G36*
G01X6030Y85602D02*
G01X6146Y85628D01*
G01X6250Y85688D01*
G01X6330Y85773D01*
G01X6381Y85882D01*
G01X6400Y86000D01*
G01X6381Y86117D01*
G01X6330Y86226D01*
G01X6250Y86311D01*
G01X6146Y86371D01*
G01X6030Y86398D01*
G01X5910Y86390D01*
G01X5800Y86346D01*
G01X5706Y86271D01*
G01X5639Y86173D01*
G01X5603Y86059D01*
G01X5603Y85940D01*
G01X5639Y85826D01*
G01X5706Y85728D01*
G01X5800Y85654D01*
G01X5910Y85609D01*
G01X6030Y85602D01*
G37*
G36*
G01X45030Y85602D02*
G01X45146Y85628D01*
G01X45250Y85688D01*
G01X45330Y85773D01*
G01X45381Y85882D01*
G01X45400Y86000D01*
G01X45381Y86117D01*
G01X45330Y86226D01*
G01X45250Y86311D01*
G01X45146Y86371D01*
G01X45030Y86398D01*
G01X44910Y86390D01*
G01X44800Y86346D01*
G01X44706Y86271D01*
G01X44639Y86173D01*
G01X44604Y86059D01*
G01X44604Y85940D01*
G01X44639Y85826D01*
G01X44706Y85728D01*
G01X44800Y85654D01*
G01X44910Y85609D01*
G01X45030Y85602D01*
G37*
G36*
G01X41100Y82615D02*
G01X41900Y82615D01*
G01X41930Y82619D01*
G01X41957Y82636D01*
G01X41980Y82658D01*
G01X41996Y82686D01*
G01X42000Y82715D01*
G01X42000Y83315D01*
G01X41996Y83346D01*
G01X41980Y83373D01*
G01X41957Y83396D01*
G01X41930Y83411D01*
G01X41900Y83415D01*
G01X41100Y83415D01*
G01X41069Y83411D01*
G01X41042Y83396D01*
G01X41019Y83373D01*
G01X41004Y83346D01*
G01X41000Y83315D01*
G01X41000Y82715D01*
G01X41004Y82686D01*
G01X41019Y82658D01*
G01X41042Y82636D01*
G01X41069Y82619D01*
G01X41100Y82615D01*
G37*
G36*
G01X54100Y82615D02*
G01X54900Y82615D01*
G01X54930Y82619D01*
G01X54957Y82636D01*
G01X54980Y82658D01*
G01X54996Y82686D01*
G01X55000Y82715D01*
G01X55000Y83315D01*
G01X54996Y83346D01*
G01X54980Y83373D01*
G01X54957Y83396D01*
G01X54930Y83411D01*
G01X54900Y83415D01*
G01X54100Y83415D01*
G01X54069Y83411D01*
G01X54042Y83396D01*
G01X54019Y83373D01*
G01X54004Y83346D01*
G01X54000Y83315D01*
G01X54000Y82715D01*
G01X54004Y82686D01*
G01X54019Y82658D01*
G01X54042Y82636D01*
G01X54069Y82619D01*
G01X54100Y82615D01*
G37*
G36*
G01X47519Y57884D02*
G01X48246Y57884D01*
G01X48246Y58065D01*
G01X48327Y58040D01*
G01X48422Y58048D01*
G01X48502Y58096D01*
G01X48518Y58117D01*
G01X48576Y58067D01*
G01X48664Y58040D01*
G01X48757Y58048D01*
G01X48838Y58096D01*
G01X48854Y58115D01*
G01X48907Y58067D01*
G01X48996Y58040D01*
G01X49089Y58048D01*
G01X49169Y58096D01*
G01X49185Y58115D01*
G01X49239Y58067D01*
G01X49327Y58040D01*
G01X49422Y58048D01*
G01X49493Y58092D01*
G01X49493Y57884D01*
G01X50219Y57884D01*
G01X50219Y58509D01*
G01X50215Y58540D01*
G01X50200Y58567D01*
G01X50177Y58590D01*
G01X50150Y58605D01*
G01X50119Y58609D01*
G01X49493Y58609D01*
G01X49493Y58432D01*
G01X49422Y58476D01*
G01X49327Y58484D01*
G01X49239Y58455D01*
G01X49185Y58407D01*
G01X49169Y58428D01*
G01X49089Y58476D01*
G01X48996Y58484D01*
G01X48907Y58455D01*
G01X48854Y58407D01*
G01X48838Y58428D01*
G01X48757Y58476D01*
G01X48664Y58484D01*
G01X48576Y58455D01*
G01X48518Y58405D01*
G01X48502Y58428D01*
G01X48422Y58476D01*
G01X48327Y58484D01*
G01X48246Y58457D01*
G01X48246Y58609D01*
G01X47619Y58609D01*
G01X47589Y58605D01*
G01X47561Y58590D01*
G01X47539Y58567D01*
G01X47523Y58540D01*
G01X47519Y58509D01*
G01X47519Y57884D01*
G37*
G36*
G01X41000Y81134D02*
G01X41300Y81134D01*
G01X41300Y81384D01*
G01X41100Y81384D01*
G01X41069Y81380D01*
G01X41042Y81363D01*
G01X41019Y81342D01*
G01X41004Y81313D01*
G01X41000Y81284D01*
G01X41000Y81134D01*
G37*
G36*
G01X41700Y81134D02*
G01X42000Y81134D01*
G01X42000Y81284D01*
G01X41996Y81313D01*
G01X41980Y81342D01*
G01X41957Y81363D01*
G01X41930Y81380D01*
G01X41900Y81384D01*
G01X41700Y81384D01*
G01X41700Y81134D01*
G37*
G36*
G01X54000Y81134D02*
G01X54300Y81134D01*
G01X54300Y81384D01*
G01X54100Y81384D01*
G01X54069Y81380D01*
G01X54042Y81363D01*
G01X54019Y81342D01*
G01X54004Y81313D01*
G01X54000Y81284D01*
G01X54000Y81134D01*
G37*
G36*
G01X54700Y81134D02*
G01X55000Y81134D01*
G01X55000Y81284D01*
G01X54996Y81313D01*
G01X54980Y81342D01*
G01X54957Y81363D01*
G01X54930Y81380D01*
G01X54900Y81384D01*
G01X54700Y81384D01*
G01X54700Y81134D01*
G37*
G36*
G01X41100Y80584D02*
G01X41300Y80584D01*
G01X41300Y80834D01*
G01X41000Y80834D01*
G01X41000Y80684D01*
G01X41004Y80654D01*
G01X41019Y80626D01*
G01X41042Y80604D01*
G01X41069Y80588D01*
G01X41100Y80584D01*
G37*
G36*
G01X36530Y58102D02*
G01X36646Y58128D01*
G01X36750Y58188D01*
G01X36830Y58273D01*
G01X36852Y58319D01*
G01X37000Y58319D01*
G01X37027Y58321D01*
G01X37056Y58328D01*
G01X37081Y58340D01*
G01X37106Y58354D01*
G01X37127Y58371D01*
G01X37627Y58871D01*
G01X37646Y58894D01*
G01X37660Y58917D01*
G01X37672Y58944D01*
G01X37677Y58971D01*
G01X37680Y59000D01*
G01X37680Y65000D01*
G01X37677Y65028D01*
G01X37672Y65055D01*
G01X37660Y65082D01*
G01X37646Y65105D01*
G01X37627Y65128D01*
G01X37127Y65628D01*
G01X37106Y65646D01*
G01X37081Y65659D01*
G01X37056Y65671D01*
G01X37027Y65678D01*
G01X37000Y65680D01*
G01X33852Y65680D01*
G01X33830Y65726D01*
G01X33750Y65811D01*
G01X33646Y65871D01*
G01X33530Y65898D01*
G01X33410Y65890D01*
G01X33300Y65846D01*
G01X33206Y65771D01*
G01X33139Y65673D01*
G01X33104Y65559D01*
G01X33104Y65440D01*
G01X33139Y65326D01*
G01X33206Y65228D01*
G01X33300Y65154D01*
G01X33410Y65109D01*
G01X33530Y65102D01*
G01X33646Y65128D01*
G01X33750Y65188D01*
G01X33830Y65273D01*
G01X33852Y65319D01*
G01X36923Y65319D01*
G01X37319Y64923D01*
G01X37319Y59076D01*
G01X36923Y58680D01*
G01X36852Y58680D01*
G01X36830Y58726D01*
G01X36750Y58811D01*
G01X36646Y58871D01*
G01X36530Y58898D01*
G01X36410Y58890D01*
G01X36300Y58846D01*
G01X36206Y58771D01*
G01X36139Y58673D01*
G01X36104Y58559D01*
G01X36104Y58440D01*
G01X36139Y58326D01*
G01X36206Y58228D01*
G01X36300Y58154D01*
G01X36410Y58109D01*
G01X36530Y58102D01*
G37*
G36*
G01X27530Y58102D02*
G01X27646Y58128D01*
G01X27750Y58188D01*
G01X27830Y58273D01*
G01X27881Y58382D01*
G01X27900Y58500D01*
G01X27881Y58617D01*
G01X27830Y58726D01*
G01X27750Y58811D01*
G01X27646Y58871D01*
G01X27530Y58898D01*
G01X27410Y58890D01*
G01X27377Y58878D01*
G01X26680Y59576D01*
G01X26680Y65923D01*
G01X27076Y66319D01*
G01X29000Y66319D01*
G01X29027Y66321D01*
G01X29056Y66328D01*
G01X29081Y66340D01*
G01X29106Y66354D01*
G01X29127Y66371D01*
G01X29543Y66788D01*
G01X29568Y66790D01*
G01X29647Y66836D01*
G01X29700Y66909D01*
G01X29719Y67000D01*
G01X29700Y67090D01*
G01X29647Y67163D01*
G01X29568Y67209D01*
G01X29477Y67217D01*
G01X29389Y67190D01*
G01X29322Y67130D01*
G01X29284Y67046D01*
G01X29284Y67040D01*
G01X28923Y66680D01*
G01X27000Y66680D01*
G01X26972Y66678D01*
G01X26943Y66671D01*
G01X26918Y66659D01*
G01X26893Y66646D01*
G01X26872Y66628D01*
G01X26372Y66128D01*
G01X26353Y66106D01*
G01X26339Y66082D01*
G01X26327Y66056D01*
G01X26322Y66028D01*
G01X26319Y66000D01*
G01X26319Y59500D01*
G01X26322Y59471D01*
G01X26327Y59444D01*
G01X26339Y59417D01*
G01X26353Y59394D01*
G01X26372Y59371D01*
G01X27123Y58619D01*
G01X27103Y58559D01*
G01X27103Y58440D01*
G01X27139Y58326D01*
G01X27206Y58228D01*
G01X27300Y58154D01*
G01X27410Y58109D01*
G01X27530Y58102D01*
G37*
G36*
G01X33530Y58102D02*
G01X33646Y58128D01*
G01X33750Y58188D01*
G01X33830Y58273D01*
G01X33881Y58382D01*
G01X33900Y58500D01*
G01X33881Y58617D01*
G01X33830Y58726D01*
G01X33750Y58811D01*
G01X33646Y58871D01*
G01X33530Y58898D01*
G01X33410Y58890D01*
G01X33300Y58846D01*
G01X33206Y58771D01*
G01X33139Y58673D01*
G01X33104Y58559D01*
G01X33104Y58440D01*
G01X33139Y58326D01*
G01X33206Y58228D01*
G01X33300Y58154D01*
G01X33410Y58109D01*
G01X33530Y58102D01*
G37*
G36*
G01X41700Y80584D02*
G01X41900Y80584D01*
G01X41930Y80588D01*
G01X41957Y80604D01*
G01X41980Y80626D01*
G01X41996Y80654D01*
G01X42000Y80684D01*
G01X42000Y80834D01*
G01X41700Y80834D01*
G01X41700Y80584D01*
G37*
G36*
G01X54100Y80584D02*
G01X54300Y80584D01*
G01X54300Y80834D01*
G01X54000Y80834D01*
G01X54000Y80684D01*
G01X54004Y80654D01*
G01X54019Y80626D01*
G01X54042Y80604D01*
G01X54069Y80588D01*
G01X54100Y80584D01*
G37*
G36*
G01X54700Y80584D02*
G01X54900Y80584D01*
G01X54930Y80588D01*
G01X54957Y80604D01*
G01X54980Y80626D01*
G01X54996Y80654D01*
G01X55000Y80684D01*
G01X55000Y80834D01*
G01X54700Y80834D01*
G01X54700Y80584D01*
G37*
G36*
G01X7631Y75150D02*
G01X7850Y75150D01*
G01X7850Y75365D01*
G01X7800Y75346D01*
G01X7706Y75271D01*
G01X7639Y75173D01*
G01X7631Y75150D01*
G37*
G36*
G01X8150Y75150D02*
G01X8365Y75150D01*
G01X8330Y75226D01*
G01X8250Y75311D01*
G01X8150Y75369D01*
G01X8150Y75150D01*
G37*
G36*
G01X38631Y75150D02*
G01X38850Y75150D01*
G01X38850Y75365D01*
G01X38800Y75346D01*
G01X38706Y75271D01*
G01X38639Y75173D01*
G01X38631Y75150D01*
G37*
G36*
G01X39150Y75150D02*
G01X39365Y75150D01*
G01X39330Y75226D01*
G01X39250Y75311D01*
G01X39150Y75369D01*
G01X39150Y75150D01*
G37*
G36*
G01X51631Y75150D02*
G01X51850Y75150D01*
G01X51850Y75365D01*
G01X51800Y75346D01*
G01X51706Y75271D01*
G01X51639Y75173D01*
G01X51631Y75150D01*
G37*
G36*
G01X52150Y75150D02*
G01X52365Y75150D01*
G01X52330Y75226D01*
G01X52250Y75311D01*
G01X52150Y75369D01*
G01X52150Y75150D01*
G37*
G36*
G01X46631Y75150D02*
G01X46850Y75150D01*
G01X46850Y75365D01*
G01X46800Y75346D01*
G01X46706Y75271D01*
G01X46639Y75173D01*
G01X46631Y75150D01*
G37*
G36*
G01X36530Y59102D02*
G01X36646Y59128D01*
G01X36750Y59188D01*
G01X36830Y59273D01*
G01X36881Y59382D01*
G01X36900Y59500D01*
G01X36881Y59617D01*
G01X36830Y59726D01*
G01X36750Y59811D01*
G01X36646Y59871D01*
G01X36530Y59898D01*
G01X36410Y59890D01*
G01X36300Y59846D01*
G01X36206Y59771D01*
G01X36139Y59673D01*
G01X36104Y59559D01*
G01X36104Y59440D01*
G01X36139Y59326D01*
G01X36206Y59228D01*
G01X36300Y59154D01*
G01X36410Y59109D01*
G01X36530Y59102D01*
G37*
G36*
G01X27530Y59102D02*
G01X27646Y59128D01*
G01X27750Y59188D01*
G01X27830Y59273D01*
G01X27881Y59382D01*
G01X27900Y59500D01*
G01X27881Y59617D01*
G01X27830Y59726D01*
G01X27750Y59811D01*
G01X27646Y59871D01*
G01X27530Y59898D01*
G01X27410Y59890D01*
G01X27300Y59846D01*
G01X27206Y59771D01*
G01X27139Y59673D01*
G01X27103Y59559D01*
G01X27103Y59440D01*
G01X27139Y59326D01*
G01X27206Y59228D01*
G01X27300Y59154D01*
G01X27410Y59109D01*
G01X27530Y59102D01*
G37*
G36*
G01X47150Y75150D02*
G01X47365Y75150D01*
G01X47330Y75226D01*
G01X47250Y75311D01*
G01X47150Y75369D01*
G01X47150Y75150D01*
G37*
G36*
G01X7850Y74634D02*
G01X7850Y74850D01*
G01X7631Y74850D01*
G01X7639Y74826D01*
G01X7706Y74728D01*
G01X7800Y74654D01*
G01X7850Y74634D01*
G37*
G36*
G01X27530Y60102D02*
G01X27646Y60128D01*
G01X27750Y60188D01*
G01X27830Y60273D01*
G01X27881Y60382D01*
G01X27900Y60500D01*
G01X27881Y60617D01*
G01X27830Y60726D01*
G01X27750Y60811D01*
G01X27646Y60871D01*
G01X27530Y60898D01*
G01X27410Y60890D01*
G01X27300Y60846D01*
G01X27206Y60771D01*
G01X27139Y60673D01*
G01X27103Y60559D01*
G01X27103Y60440D01*
G01X27139Y60326D01*
G01X27206Y60228D01*
G01X27300Y60154D01*
G01X27410Y60109D01*
G01X27530Y60102D01*
G37*
G36*
G01X33530Y60102D02*
G01X33646Y60128D01*
G01X33750Y60188D01*
G01X33830Y60273D01*
G01X33852Y60319D01*
G01X36000Y60319D01*
G01X36027Y60321D01*
G01X36056Y60328D01*
G01X36081Y60340D01*
G01X36106Y60354D01*
G01X36127Y60371D01*
G01X36627Y60871D01*
G01X36646Y60894D01*
G01X36660Y60917D01*
G01X36672Y60944D01*
G01X36677Y60971D01*
G01X36680Y61000D01*
G01X36680Y64882D01*
G01X36700Y64909D01*
G01X36719Y65000D01*
G01X36700Y65090D01*
G01X36647Y65163D01*
G01X36568Y65209D01*
G01X36477Y65217D01*
G01X36389Y65190D01*
G01X36322Y65130D01*
G01X36284Y65046D01*
G01X36284Y64954D01*
G01X36319Y64873D01*
G01X36319Y61076D01*
G01X35923Y60680D01*
G01X33852Y60680D01*
G01X33830Y60726D01*
G01X33750Y60811D01*
G01X33646Y60871D01*
G01X33530Y60898D01*
G01X33410Y60890D01*
G01X33300Y60846D01*
G01X33206Y60771D01*
G01X33139Y60673D01*
G01X33104Y60559D01*
G01X33104Y60440D01*
G01X33139Y60326D01*
G01X33206Y60228D01*
G01X33300Y60154D01*
G01X33410Y60109D01*
G01X33530Y60102D01*
G37*
G36*
G01X38850Y74634D02*
G01X38850Y74850D01*
G01X38631Y74850D01*
G01X38639Y74826D01*
G01X38706Y74728D01*
G01X38800Y74654D01*
G01X38850Y74634D01*
G37*
G36*
G01X5477Y60782D02*
G01X5568Y60790D01*
G01X5619Y60819D01*
G01X16877Y60819D01*
G01X16889Y60809D01*
G01X16977Y60782D01*
G01X17068Y60790D01*
G01X17147Y60836D01*
G01X17200Y60909D01*
G01X17219Y61000D01*
G01X17200Y61090D01*
G01X17147Y61163D01*
G01X17068Y61209D01*
G01X16977Y61217D01*
G01X16889Y61190D01*
G01X16877Y61180D01*
G01X5619Y61180D01*
G01X5568Y61209D01*
G01X5477Y61217D01*
G01X5389Y61190D01*
G01X5322Y61130D01*
G01X5284Y61046D01*
G01X5284Y60954D01*
G01X5322Y60869D01*
G01X5389Y60809D01*
G01X5477Y60782D01*
G37*
G36*
G01X51850Y74634D02*
G01X51850Y74850D01*
G01X51631Y74850D01*
G01X51639Y74826D01*
G01X51706Y74728D01*
G01X51800Y74654D01*
G01X51850Y74634D01*
G37*
G36*
G01X52954Y60826D02*
G01X53046Y60826D01*
G01X53127Y60871D01*
G01X53173Y60954D01*
G01X53173Y61046D01*
G01X53127Y61128D01*
G01X52627Y61628D01*
G01X52546Y61673D01*
G01X52454Y61673D01*
G01X52372Y61628D01*
G01X52326Y61546D01*
G01X52326Y61454D01*
G01X52372Y61371D01*
G01X52872Y60871D01*
G01X52954Y60826D01*
G37*
G36*
G01X27530Y61102D02*
G01X27646Y61128D01*
G01X27750Y61188D01*
G01X27830Y61273D01*
G01X27852Y61319D01*
G01X30000Y61319D01*
G01X30027Y61321D01*
G01X30056Y61328D01*
G01X30081Y61340D01*
G01X30106Y61354D01*
G01X30127Y61371D01*
G01X30627Y61871D01*
G01X30646Y61894D01*
G01X30660Y61917D01*
G01X30672Y61944D01*
G01X30677Y61971D01*
G01X30680Y62000D01*
G01X30680Y63632D01*
G01X30972Y63784D01*
G01X30977Y63782D01*
G01X31068Y63790D01*
G01X31147Y63836D01*
G01X31200Y63909D01*
G01X31219Y64000D01*
G01X31200Y64090D01*
G01X31147Y64163D01*
G01X31068Y64209D01*
G01X30977Y64217D01*
G01X30889Y64190D01*
G01X30822Y64130D01*
G01X30810Y64104D01*
G01X30418Y63902D01*
G01X30384Y63880D01*
G01X30357Y63852D01*
G01X30335Y63817D01*
G01X30323Y63782D01*
G01X30319Y63742D01*
G01X30319Y62076D01*
G01X29923Y61680D01*
G01X27852Y61680D01*
G01X27830Y61726D01*
G01X27750Y61811D01*
G01X27646Y61871D01*
G01X27530Y61898D01*
G01X27410Y61890D01*
G01X27300Y61846D01*
G01X27206Y61771D01*
G01X27139Y61673D01*
G01X27103Y61559D01*
G01X27103Y61440D01*
G01X27139Y61326D01*
G01X27206Y61228D01*
G01X27300Y61154D01*
G01X27410Y61109D01*
G01X27530Y61102D01*
G37*
G36*
G01X46850Y74634D02*
G01X46850Y74850D01*
G01X46631Y74850D01*
G01X46639Y74826D01*
G01X46706Y74728D01*
G01X46800Y74654D01*
G01X46850Y74634D01*
G37*
G36*
G01X8150Y74630D02*
G01X8250Y74688D01*
G01X8330Y74773D01*
G01X8365Y74850D01*
G01X8150Y74850D01*
G01X8150Y74630D01*
G37*
G36*
G01X39150Y74630D02*
G01X39250Y74688D01*
G01X39330Y74773D01*
G01X39365Y74850D01*
G01X39150Y74850D01*
G01X39150Y74630D01*
G37*
G36*
G01X52150Y74630D02*
G01X52250Y74688D01*
G01X52330Y74773D01*
G01X52365Y74850D01*
G01X52150Y74850D01*
G01X52150Y74630D01*
G37*
G36*
G01X5477Y61782D02*
G01X5568Y61790D01*
G01X5619Y61819D01*
G01X16877Y61819D01*
G01X16889Y61809D01*
G01X16977Y61782D01*
G01X17068Y61790D01*
G01X17147Y61836D01*
G01X17200Y61909D01*
G01X17219Y62000D01*
G01X17200Y62090D01*
G01X17147Y62163D01*
G01X17068Y62209D01*
G01X16977Y62217D01*
G01X16889Y62190D01*
G01X16877Y62180D01*
G01X5619Y62180D01*
G01X5568Y62209D01*
G01X5477Y62217D01*
G01X5389Y62190D01*
G01X5322Y62130D01*
G01X5284Y62046D01*
G01X5284Y61954D01*
G01X5322Y61869D01*
G01X5389Y61809D01*
G01X5477Y61782D01*
G37*
G36*
G01X47150Y74630D02*
G01X47250Y74688D01*
G01X47330Y74773D01*
G01X47365Y74850D01*
G01X47150Y74850D01*
G01X47150Y74630D01*
G37*
G36*
G01X27530Y62102D02*
G01X27646Y62128D01*
G01X27750Y62188D01*
G01X27830Y62273D01*
G01X27852Y62319D01*
G01X29500Y62319D01*
G01X29527Y62321D01*
G01X29556Y62328D01*
G01X29581Y62340D01*
G01X29606Y62354D01*
G01X29627Y62371D01*
G01X30127Y62871D01*
G01X30146Y62894D01*
G01X30160Y62917D01*
G01X30172Y62944D01*
G01X30177Y62971D01*
G01X30180Y63000D01*
G01X30180Y66882D01*
G01X30200Y66909D01*
G01X30219Y67000D01*
G01X30200Y67090D01*
G01X30147Y67163D01*
G01X30068Y67209D01*
G01X29977Y67217D01*
G01X29889Y67190D01*
G01X29822Y67130D01*
G01X29784Y67046D01*
G01X29784Y66954D01*
G01X29819Y66873D01*
G01X29819Y63076D01*
G01X29423Y62680D01*
G01X27852Y62680D01*
G01X27830Y62726D01*
G01X27750Y62811D01*
G01X27646Y62871D01*
G01X27530Y62898D01*
G01X27410Y62890D01*
G01X27300Y62846D01*
G01X27206Y62771D01*
G01X27139Y62673D01*
G01X27103Y62559D01*
G01X27103Y62440D01*
G01X27139Y62326D01*
G01X27206Y62228D01*
G01X27300Y62154D01*
G01X27410Y62109D01*
G01X27530Y62102D01*
G37*
G36*
G01X43646Y62105D02*
G01X43793Y62105D01*
G01X43823Y62109D01*
G01X43852Y62126D01*
G01X43873Y62148D01*
G01X43889Y62176D01*
G01X43893Y62205D01*
G01X43893Y62354D01*
G01X43646Y62354D01*
G01X43646Y62105D01*
G37*
G36*
G01X43204Y62105D02*
G01X43354Y62105D01*
G01X43354Y62354D01*
G01X43104Y62354D01*
G01X43104Y62205D01*
G01X43107Y62176D01*
G01X43123Y62148D01*
G01X43146Y62126D01*
G01X43173Y62109D01*
G01X43204Y62105D01*
G37*
G36*
G01X52146Y62105D02*
G01X52293Y62105D01*
G01X52323Y62109D01*
G01X52352Y62126D01*
G01X52373Y62148D01*
G01X52389Y62176D01*
G01X52393Y62205D01*
G01X52393Y62354D01*
G01X52146Y62354D01*
G01X52146Y62105D01*
G37*
G36*
G01X51704Y62105D02*
G01X51854Y62105D01*
G01X51854Y62354D01*
G01X51604Y62354D01*
G01X51604Y62205D01*
G01X51607Y62176D01*
G01X51623Y62148D01*
G01X51646Y62126D01*
G01X51673Y62109D01*
G01X51704Y62105D01*
G37*
G36*
G01X6030Y74602D02*
G01X6146Y74628D01*
G01X6250Y74688D01*
G01X6330Y74773D01*
G01X6381Y74882D01*
G01X6400Y75000D01*
G01X6381Y75117D01*
G01X6330Y75226D01*
G01X6250Y75311D01*
G01X6146Y75371D01*
G01X6030Y75398D01*
G01X5910Y75390D01*
G01X5800Y75346D01*
G01X5706Y75271D01*
G01X5639Y75173D01*
G01X5603Y75059D01*
G01X5603Y74940D01*
G01X5639Y74826D01*
G01X5706Y74728D01*
G01X5800Y74654D01*
G01X5910Y74609D01*
G01X6030Y74602D01*
G37*
G36*
G01X41530Y62107D02*
G01X41643Y62134D01*
G01X41746Y62192D01*
G01X41826Y62278D01*
G01X41876Y62384D01*
G01X41893Y62500D01*
G01X41876Y62615D01*
G01X41826Y62721D01*
G01X41746Y62807D01*
G01X41643Y62865D01*
G01X41530Y62892D01*
G01X41411Y62884D01*
G01X41302Y62842D01*
G01X41211Y62767D01*
G01X41146Y62669D01*
G01X41110Y62557D01*
G01X41110Y62442D01*
G01X41146Y62330D01*
G01X41211Y62232D01*
G01X41302Y62157D01*
G01X41411Y62115D01*
G01X41530Y62107D01*
G37*
G36*
G01X38030Y74602D02*
G01X38146Y74628D01*
G01X38250Y74688D01*
G01X38330Y74773D01*
G01X38381Y74882D01*
G01X38400Y75000D01*
G01X38381Y75117D01*
G01X38330Y75226D01*
G01X38250Y75311D01*
G01X38146Y75371D01*
G01X38030Y75398D01*
G01X37910Y75390D01*
G01X37800Y75346D01*
G01X37706Y75271D01*
G01X37639Y75173D01*
G01X37604Y75059D01*
G01X37604Y74940D01*
G01X37639Y74826D01*
G01X37706Y74728D01*
G01X37800Y74654D01*
G01X37910Y74609D01*
G01X38030Y74602D01*
G37*
G36*
G01X53030Y62107D02*
G01X53143Y62134D01*
G01X53246Y62192D01*
G01X53326Y62278D01*
G01X53376Y62384D01*
G01X53393Y62500D01*
G01X53376Y62615D01*
G01X53326Y62721D01*
G01X53246Y62807D01*
G01X53219Y62821D01*
G01X53219Y65500D01*
G01X53218Y65534D01*
G01X53210Y65567D01*
G01X53196Y65600D01*
G01X53177Y65630D01*
G01X53156Y65656D01*
G01X52656Y66156D01*
G01X52630Y66178D01*
G01X52600Y66196D01*
G01X52568Y66209D01*
G01X52534Y66217D01*
G01X52500Y66219D01*
G01X48592Y66219D01*
G01X48219Y66592D01*
G01X48219Y74669D01*
G01X48250Y74688D01*
G01X48330Y74773D01*
G01X48381Y74882D01*
G01X48400Y75000D01*
G01X48381Y75117D01*
G01X48330Y75226D01*
G01X48250Y75311D01*
G01X48219Y75330D01*
G01X48219Y90669D01*
G01X48250Y90688D01*
G01X48330Y90773D01*
G01X48381Y90882D01*
G01X48400Y91000D01*
G01X48381Y91117D01*
G01X48330Y91226D01*
G01X48250Y91311D01*
G01X48146Y91371D01*
G01X48030Y91398D01*
G01X47910Y91390D01*
G01X47800Y91346D01*
G01X47706Y91271D01*
G01X47639Y91173D01*
G01X47604Y91059D01*
G01X47604Y90940D01*
G01X47639Y90826D01*
G01X47706Y90728D01*
G01X47780Y90669D01*
G01X47780Y75330D01*
G01X47706Y75271D01*
G01X47639Y75173D01*
G01X47604Y75059D01*
G01X47604Y74940D01*
G01X47639Y74826D01*
G01X47706Y74728D01*
G01X47780Y74669D01*
G01X47780Y66500D01*
G01X47781Y66465D01*
G01X47789Y66432D01*
G01X47804Y66400D01*
G01X47822Y66369D01*
G01X47843Y66344D01*
G01X47968Y66219D01*
G01X35592Y66219D01*
G01X35219Y66592D01*
G01X35219Y74669D01*
G01X35250Y74688D01*
G01X35330Y74773D01*
G01X35381Y74882D01*
G01X35400Y75000D01*
G01X35381Y75117D01*
G01X35330Y75226D01*
G01X35250Y75311D01*
G01X35219Y75330D01*
G01X35219Y90669D01*
G01X35250Y90688D01*
G01X35330Y90773D01*
G01X35381Y90882D01*
G01X35400Y91000D01*
G01X35381Y91117D01*
G01X35330Y91226D01*
G01X35250Y91311D01*
G01X35235Y91319D01*
G01X35765Y91319D01*
G01X35706Y91271D01*
G01X35639Y91173D01*
G01X35604Y91059D01*
G01X35604Y90940D01*
G01X35639Y90826D01*
G01X35706Y90728D01*
G01X35800Y90654D01*
G01X35819Y90646D01*
G01X35819Y90000D01*
G01X35822Y89971D01*
G01X35827Y89944D01*
G01X35839Y89917D01*
G01X35854Y89894D01*
G01X35872Y89871D01*
G01X36372Y89371D01*
G01X36393Y89354D01*
G01X36418Y89340D01*
G01X36443Y89328D01*
G01X36472Y89321D01*
G01X36500Y89319D01*
G01X42423Y89319D01*
G01X42819Y88923D01*
G01X42819Y73576D01*
G01X42423Y73180D01*
G01X39000Y73180D01*
G01X38972Y73178D01*
G01X38943Y73171D01*
G01X38918Y73159D01*
G01X38893Y73146D01*
G01X38872Y73128D01*
G01X38372Y72628D01*
G01X38354Y72606D01*
G01X38339Y72582D01*
G01X38327Y72556D01*
G01X38322Y72528D01*
G01X38319Y72500D01*
G01X38319Y67626D01*
G01X38284Y67546D01*
G01X38284Y67454D01*
G01X38322Y67369D01*
G01X38389Y67309D01*
G01X38477Y67282D01*
G01X38568Y67290D01*
G01X38647Y67336D01*
G01X38700Y67409D01*
G01X38719Y67500D01*
G01X38700Y67590D01*
G01X38680Y67617D01*
G01X38680Y72423D01*
G01X38784Y72528D01*
G01X38784Y72454D01*
G01X38822Y72369D01*
G01X38889Y72309D01*
G01X38977Y72282D01*
G01X39068Y72290D01*
G01X39119Y72319D01*
G01X44500Y72319D01*
G01X44527Y72321D01*
G01X44556Y72328D01*
G01X44581Y72340D01*
G01X44606Y72354D01*
G01X44627Y72371D01*
G01X45127Y72871D01*
G01X45146Y72894D01*
G01X45160Y72917D01*
G01X45172Y72944D01*
G01X45177Y72971D01*
G01X45180Y73000D01*
G01X45180Y74648D01*
G01X45250Y74688D01*
G01X45330Y74773D01*
G01X45381Y74882D01*
G01X45400Y75000D01*
G01X45381Y75117D01*
G01X45330Y75226D01*
G01X45250Y75311D01*
G01X45146Y75371D01*
G01X45030Y75398D01*
G01X44910Y75390D01*
G01X44800Y75346D01*
G01X44706Y75271D01*
G01X44639Y75173D01*
G01X44604Y75059D01*
G01X44604Y74940D01*
G01X44639Y74826D01*
G01X44706Y74728D01*
G01X44800Y74654D01*
G01X44819Y74646D01*
G01X44819Y73076D01*
G01X44423Y72680D01*
G01X39119Y72680D01*
G01X39068Y72709D01*
G01X38977Y72717D01*
G01X38972Y72715D01*
G01X39076Y72819D01*
G01X42500Y72819D01*
G01X42527Y72821D01*
G01X42556Y72828D01*
G01X42581Y72840D01*
G01X42606Y72854D01*
G01X42627Y72871D01*
G01X43127Y73371D01*
G01X43146Y73394D01*
G01X43160Y73417D01*
G01X43172Y73444D01*
G01X43177Y73471D01*
G01X43180Y73500D01*
G01X43180Y89000D01*
G01X43177Y89028D01*
G01X43172Y89056D01*
G01X43160Y89082D01*
G01X43146Y89106D01*
G01X43127Y89128D01*
G01X42627Y89628D01*
G01X42606Y89646D01*
G01X42581Y89659D01*
G01X42556Y89671D01*
G01X42527Y89678D01*
G01X42500Y89680D01*
G01X36576Y89680D01*
G01X36180Y90076D01*
G01X36180Y90648D01*
G01X36250Y90688D01*
G01X36330Y90773D01*
G01X36381Y90882D01*
G01X36400Y91000D01*
G01X36381Y91117D01*
G01X36330Y91226D01*
G01X36250Y91311D01*
G01X36235Y91319D01*
G01X36765Y91319D01*
G01X36706Y91271D01*
G01X36639Y91173D01*
G01X36604Y91059D01*
G01X36604Y90940D01*
G01X36639Y90826D01*
G01X36706Y90728D01*
G01X36800Y90654D01*
G01X36910Y90609D01*
G01X37030Y90602D01*
G01X37146Y90628D01*
G01X37250Y90688D01*
G01X37330Y90773D01*
G01X37381Y90882D01*
G01X37400Y91000D01*
G01X37381Y91117D01*
G01X37330Y91226D01*
G01X37250Y91311D01*
G01X37235Y91319D01*
G01X37765Y91319D01*
G01X37706Y91271D01*
G01X37639Y91173D01*
G01X37604Y91059D01*
G01X37604Y90940D01*
G01X37639Y90826D01*
G01X37706Y90728D01*
G01X37800Y90654D01*
G01X37910Y90609D01*
G01X38030Y90602D01*
G01X38146Y90628D01*
G01X38250Y90688D01*
G01X38330Y90773D01*
G01X38381Y90882D01*
G01X38400Y91000D01*
G01X38381Y91117D01*
G01X38330Y91226D01*
G01X38250Y91311D01*
G01X38235Y91319D01*
G01X38765Y91319D01*
G01X38706Y91271D01*
G01X38639Y91173D01*
G01X38631Y91150D01*
G01X38850Y91150D01*
G01X38850Y91319D01*
G01X39150Y91319D01*
G01X39150Y91150D01*
G01X39365Y91150D01*
G01X39330Y91226D01*
G01X39250Y91311D01*
G01X39235Y91319D01*
G01X43423Y91319D01*
G01X43623Y91119D01*
G01X43604Y91059D01*
G01X43604Y90940D01*
G01X43639Y90826D01*
G01X43706Y90728D01*
G01X43800Y90654D01*
G01X43819Y90646D01*
G01X43819Y86354D01*
G01X43800Y86346D01*
G01X43706Y86271D01*
G01X43639Y86173D01*
G01X43604Y86059D01*
G01X43604Y85940D01*
G01X43639Y85826D01*
G01X43706Y85728D01*
G01X43800Y85654D01*
G01X43819Y85646D01*
G01X43819Y75354D01*
G01X43800Y75346D01*
G01X43706Y75271D01*
G01X43639Y75173D01*
G01X43604Y75059D01*
G01X43604Y74940D01*
G01X43639Y74826D01*
G01X43706Y74728D01*
G01X43800Y74654D01*
G01X43910Y74609D01*
G01X44030Y74602D01*
G01X44146Y74628D01*
G01X44250Y74688D01*
G01X44330Y74773D01*
G01X44381Y74882D01*
G01X44400Y75000D01*
G01X44381Y75117D01*
G01X44330Y75226D01*
G01X44250Y75311D01*
G01X44180Y75352D01*
G01X44180Y85648D01*
G01X44250Y85688D01*
G01X44330Y85773D01*
G01X44381Y85882D01*
G01X44400Y86000D01*
G01X44381Y86117D01*
G01X44330Y86226D01*
G01X44250Y86311D01*
G01X44180Y86352D01*
G01X44180Y90648D01*
G01X44250Y90688D01*
G01X44330Y90773D01*
G01X44381Y90882D01*
G01X44400Y91000D01*
G01X44381Y91117D01*
G01X44330Y91226D01*
G01X44250Y91311D01*
G01X44146Y91371D01*
G01X44030Y91398D01*
G01X43910Y91390D01*
G01X43877Y91378D01*
G01X43627Y91628D01*
G01X43606Y91646D01*
G01X43581Y91659D01*
G01X43556Y91671D01*
G01X43527Y91678D01*
G01X43500Y91680D01*
G01X31500Y91680D01*
G01X31472Y91678D01*
G01X31443Y91671D01*
G01X31418Y91659D01*
G01X31393Y91646D01*
G01X31372Y91628D01*
G01X31122Y91378D01*
G01X31030Y91398D01*
G01X30910Y91390D01*
G01X30877Y91378D01*
G01X30627Y91628D01*
G01X30606Y91646D01*
G01X30581Y91659D01*
G01X30556Y91671D01*
G01X30527Y91678D01*
G01X30500Y91680D01*
G01X18500Y91680D01*
G01X18472Y91678D01*
G01X18443Y91671D01*
G01X18418Y91659D01*
G01X18393Y91646D01*
G01X18372Y91628D01*
G01X18122Y91378D01*
G01X18030Y91398D01*
G01X17910Y91390D01*
G01X17877Y91378D01*
G01X17627Y91628D01*
G01X17606Y91646D01*
G01X17581Y91659D01*
G01X17556Y91671D01*
G01X17527Y91678D01*
G01X17500Y91680D01*
G01X5500Y91680D01*
G01X5472Y91678D01*
G01X5443Y91671D01*
G01X5418Y91659D01*
G01X5393Y91646D01*
G01X5372Y91628D01*
G01X5122Y91378D01*
G01X5030Y91398D01*
G01X4910Y91390D01*
G01X4800Y91346D01*
G01X4706Y91271D01*
G01X4639Y91173D01*
G01X4603Y91059D01*
G01X4603Y90940D01*
G01X4639Y90826D01*
G01X4706Y90728D01*
G01X4800Y90654D01*
G01X4819Y90646D01*
G01X4819Y86354D01*
G01X4800Y86346D01*
G01X4706Y86271D01*
G01X4639Y86173D01*
G01X4603Y86059D01*
G01X4603Y85940D01*
G01X4639Y85826D01*
G01X4706Y85728D01*
G01X4800Y85654D01*
G01X4819Y85646D01*
G01X4819Y75354D01*
G01X4800Y75346D01*
G01X4706Y75271D01*
G01X4639Y75173D01*
G01X4603Y75059D01*
G01X4603Y74940D01*
G01X4639Y74826D01*
G01X4706Y74728D01*
G01X4800Y74654D01*
G01X4910Y74609D01*
G01X5030Y74602D01*
G01X5146Y74628D01*
G01X5250Y74688D01*
G01X5330Y74773D01*
G01X5381Y74882D01*
G01X5400Y75000D01*
G01X5381Y75117D01*
G01X5330Y75226D01*
G01X5250Y75311D01*
G01X5180Y75352D01*
G01X5180Y85648D01*
G01X5250Y85688D01*
G01X5330Y85773D01*
G01X5381Y85882D01*
G01X5400Y86000D01*
G01X5381Y86117D01*
G01X5330Y86226D01*
G01X5250Y86311D01*
G01X5180Y86352D01*
G01X5180Y90648D01*
G01X5250Y90688D01*
G01X5330Y90773D01*
G01X5381Y90882D01*
G01X5400Y91000D01*
G01X5381Y91117D01*
G01X5380Y91123D01*
G01X5576Y91319D01*
G01X5765Y91319D01*
G01X5706Y91271D01*
G01X5639Y91173D01*
G01X5603Y91059D01*
G01X5603Y90940D01*
G01X5639Y90826D01*
G01X5706Y90728D01*
G01X5800Y90654D01*
G01X5910Y90609D01*
G01X6030Y90602D01*
G01X6146Y90628D01*
G01X6250Y90688D01*
G01X6330Y90773D01*
G01X6381Y90882D01*
G01X6400Y91000D01*
G01X6381Y91117D01*
G01X6330Y91226D01*
G01X6250Y91311D01*
G01X6235Y91319D01*
G01X6765Y91319D01*
G01X6706Y91271D01*
G01X6639Y91173D01*
G01X6603Y91059D01*
G01X6603Y90940D01*
G01X6639Y90826D01*
G01X6706Y90728D01*
G01X6800Y90654D01*
G01X6819Y90646D01*
G01X6819Y86354D01*
G01X6800Y86346D01*
G01X6706Y86271D01*
G01X6639Y86173D01*
G01X6603Y86059D01*
G01X6603Y85940D01*
G01X6639Y85826D01*
G01X6706Y85728D01*
G01X6800Y85654D01*
G01X6819Y85646D01*
G01X6819Y75354D01*
G01X6800Y75346D01*
G01X6706Y75271D01*
G01X6639Y75173D01*
G01X6603Y75059D01*
G01X6603Y74940D01*
G01X6639Y74826D01*
G01X6706Y74728D01*
G01X6800Y74654D01*
G01X6910Y74609D01*
G01X7030Y74602D01*
G01X7146Y74628D01*
G01X7250Y74688D01*
G01X7330Y74773D01*
G01X7381Y74882D01*
G01X7400Y75000D01*
G01X7381Y75117D01*
G01X7330Y75226D01*
G01X7250Y75311D01*
G01X7180Y75352D01*
G01X7180Y85648D01*
G01X7250Y85688D01*
G01X7330Y85773D01*
G01X7381Y85882D01*
G01X7400Y86000D01*
G01X7381Y86117D01*
G01X7330Y86226D01*
G01X7250Y86311D01*
G01X7180Y86352D01*
G01X7180Y90648D01*
G01X7250Y90688D01*
G01X7330Y90773D01*
G01X7381Y90882D01*
G01X7400Y91000D01*
G01X7381Y91117D01*
G01X7330Y91226D01*
G01X7250Y91311D01*
G01X7235Y91319D01*
G01X7765Y91319D01*
G01X7706Y91271D01*
G01X7639Y91173D01*
G01X7631Y91150D01*
G01X7850Y91150D01*
G01X7850Y91319D01*
G01X8150Y91319D01*
G01X8150Y91150D01*
G01X8365Y91150D01*
G01X8330Y91226D01*
G01X8250Y91311D01*
G01X8235Y91319D01*
G01X8765Y91319D01*
G01X8706Y91271D01*
G01X8639Y91173D01*
G01X8603Y91059D01*
G01X8603Y90940D01*
G01X8639Y90826D01*
G01X8706Y90728D01*
G01X8780Y90669D01*
G01X8780Y75330D01*
G01X8706Y75271D01*
G01X8639Y75173D01*
G01X8603Y75059D01*
G01X8603Y74940D01*
G01X8639Y74826D01*
G01X8706Y74728D01*
G01X8780Y74669D01*
G01X8780Y68000D01*
G01X8781Y67965D01*
G01X8789Y67932D01*
G01X8803Y67900D01*
G01X8822Y67869D01*
G01X8843Y67844D01*
G01X9343Y67344D01*
G01X9369Y67321D01*
G01X9400Y67304D01*
G01X9431Y67290D01*
G01X9465Y67282D01*
G01X9500Y67280D01*
G01X34431Y67280D01*
G01X34780Y67036D01*
G01X34780Y66500D01*
G01X34781Y66465D01*
G01X34789Y66432D01*
G01X34804Y66400D01*
G01X34822Y66369D01*
G01X34843Y66344D01*
G01X35343Y65844D01*
G01X35369Y65821D01*
G01X35400Y65804D01*
G01X35431Y65790D01*
G01X35465Y65782D01*
G01X35500Y65780D01*
G01X52407Y65780D01*
G01X52780Y65407D01*
G01X52780Y62823D01*
G01X52711Y62767D01*
G01X52646Y62669D01*
G01X52610Y62557D01*
G01X52610Y62442D01*
G01X52646Y62330D01*
G01X52711Y62232D01*
G01X52802Y62157D01*
G01X52911Y62115D01*
G01X53030Y62107D01*
G37*
G36*
G01X50030Y62107D02*
G01X50143Y62134D01*
G01X50246Y62192D01*
G01X50326Y62278D01*
G01X50376Y62384D01*
G01X50393Y62500D01*
G01X50376Y62615D01*
G01X50326Y62721D01*
G01X50246Y62807D01*
G01X50143Y62865D01*
G01X50030Y62892D01*
G01X49911Y62884D01*
G01X49802Y62842D01*
G01X49711Y62767D01*
G01X49646Y62669D01*
G01X49610Y62557D01*
G01X49610Y62442D01*
G01X49646Y62330D01*
G01X49711Y62232D01*
G01X49802Y62157D01*
G01X49911Y62115D01*
G01X50030Y62107D01*
G37*
G36*
G01X49030Y62107D02*
G01X49143Y62134D01*
G01X49246Y62192D01*
G01X49326Y62278D01*
G01X49376Y62384D01*
G01X49393Y62500D01*
G01X49376Y62615D01*
G01X49326Y62721D01*
G01X49246Y62807D01*
G01X49143Y62865D01*
G01X49030Y62892D01*
G01X48911Y62884D01*
G01X48802Y62842D01*
G01X48711Y62767D01*
G01X48646Y62669D01*
G01X48610Y62557D01*
G01X48610Y62442D01*
G01X48646Y62330D01*
G01X48711Y62232D01*
G01X48802Y62157D01*
G01X48911Y62115D01*
G01X49030Y62107D01*
G37*
G36*
G01X37030Y74602D02*
G01X37146Y74628D01*
G01X37250Y74688D01*
G01X37330Y74773D01*
G01X37381Y74882D01*
G01X37400Y75000D01*
G01X37381Y75117D01*
G01X37330Y75226D01*
G01X37250Y75311D01*
G01X37146Y75371D01*
G01X37030Y75398D01*
G01X36910Y75390D01*
G01X36800Y75346D01*
G01X36706Y75271D01*
G01X36639Y75173D01*
G01X36604Y75059D01*
G01X36604Y74940D01*
G01X36639Y74826D01*
G01X36706Y74728D01*
G01X36800Y74654D01*
G01X36910Y74609D01*
G01X37030Y74602D01*
G37*
G36*
G01X51030Y74602D02*
G01X51146Y74628D01*
G01X51250Y74688D01*
G01X51330Y74773D01*
G01X51381Y74882D01*
G01X51400Y75000D01*
G01X51381Y75117D01*
G01X51330Y75226D01*
G01X51250Y75311D01*
G01X51146Y75371D01*
G01X51030Y75398D01*
G01X50910Y75390D01*
G01X50800Y75346D01*
G01X50706Y75271D01*
G01X50639Y75173D01*
G01X50604Y75059D01*
G01X50604Y74940D01*
G01X50639Y74826D01*
G01X50706Y74728D01*
G01X50800Y74654D01*
G01X50910Y74609D01*
G01X51030Y74602D01*
G37*
G36*
G01X46127Y62204D02*
G01X46272Y62204D01*
G01X46411Y62238D01*
G01X46539Y62305D01*
G01X46650Y62402D01*
G01X46731Y62521D01*
G01X46781Y62655D01*
G01X46800Y62800D01*
G01X46781Y62944D01*
G01X46731Y63078D01*
G01X46650Y63198D01*
G01X46539Y63294D01*
G01X46411Y63361D01*
G01X46272Y63396D01*
G01X46127Y63396D01*
G01X45988Y63361D01*
G01X45860Y63294D01*
G01X45750Y63198D01*
G01X45668Y63078D01*
G01X45618Y62944D01*
G01X45600Y62800D01*
G01X45618Y62655D01*
G01X45668Y62521D01*
G01X45750Y62402D01*
G01X45860Y62305D01*
G01X45988Y62238D01*
G01X46127Y62204D01*
G37*
G36*
G01X54627Y62204D02*
G01X54772Y62204D01*
G01X54911Y62238D01*
G01X55039Y62305D01*
G01X55150Y62402D01*
G01X55231Y62521D01*
G01X55281Y62655D01*
G01X55300Y62800D01*
G01X55281Y62944D01*
G01X55231Y63078D01*
G01X55150Y63198D01*
G01X55039Y63294D01*
G01X54911Y63361D01*
G01X54772Y63396D01*
G01X54627Y63396D01*
G01X54488Y63361D01*
G01X54360Y63294D01*
G01X54250Y63198D01*
G01X54168Y63078D01*
G01X54118Y62944D01*
G01X54100Y62800D01*
G01X54118Y62655D01*
G01X54168Y62521D01*
G01X54250Y62402D01*
G01X54360Y62305D01*
G01X54488Y62238D01*
G01X54627Y62204D01*
G37*
G36*
G01X43646Y62646D02*
G01X43893Y62646D01*
G01X43893Y62796D01*
G01X43889Y62826D01*
G01X43873Y62854D01*
G01X43852Y62876D01*
G01X43823Y62892D01*
G01X43793Y62896D01*
G01X43646Y62896D01*
G01X43646Y62646D01*
G37*
G36*
G01X43104Y62646D02*
G01X43354Y62646D01*
G01X43354Y62896D01*
G01X43204Y62896D01*
G01X43173Y62892D01*
G01X43146Y62876D01*
G01X43123Y62854D01*
G01X43107Y62826D01*
G01X43104Y62796D01*
G01X43104Y62646D01*
G37*
G36*
G01X52146Y62646D02*
G01X52393Y62646D01*
G01X52393Y62796D01*
G01X52389Y62826D01*
G01X52373Y62854D01*
G01X52352Y62876D01*
G01X52323Y62892D01*
G01X52293Y62896D01*
G01X52146Y62896D01*
G01X52146Y62646D01*
G37*
G36*
G01X51604Y62646D02*
G01X51854Y62646D01*
G01X51854Y62896D01*
G01X51704Y62896D01*
G01X51673Y62892D01*
G01X51646Y62876D01*
G01X51623Y62854D01*
G01X51607Y62826D01*
G01X51604Y62796D01*
G01X51604Y62646D01*
G37*
G36*
G01X50030Y74602D02*
G01X50146Y74628D01*
G01X50250Y74688D01*
G01X50330Y74773D01*
G01X50381Y74882D01*
G01X50400Y75000D01*
G01X50381Y75117D01*
G01X50330Y75226D01*
G01X50250Y75311D01*
G01X50146Y75371D01*
G01X50030Y75398D01*
G01X49910Y75390D01*
G01X49800Y75346D01*
G01X49706Y75271D01*
G01X49639Y75173D01*
G01X49604Y75059D01*
G01X49604Y74940D01*
G01X49639Y74826D01*
G01X49706Y74728D01*
G01X49800Y74654D01*
G01X49910Y74609D01*
G01X50030Y74602D01*
G37*
G36*
G01X46030Y74602D02*
G01X46146Y74628D01*
G01X46250Y74688D01*
G01X46330Y74773D01*
G01X46381Y74882D01*
G01X46400Y75000D01*
G01X46381Y75117D01*
G01X46330Y75226D01*
G01X46250Y75311D01*
G01X46180Y75352D01*
G01X46180Y85648D01*
G01X46250Y85688D01*
G01X46330Y85773D01*
G01X46381Y85882D01*
G01X46400Y86000D01*
G01X46381Y86117D01*
G01X46330Y86226D01*
G01X46250Y86311D01*
G01X46180Y86352D01*
G01X46180Y90648D01*
G01X46250Y90688D01*
G01X46330Y90773D01*
G01X46381Y90882D01*
G01X46400Y91000D01*
G01X46381Y91117D01*
G01X46330Y91226D01*
G01X46250Y91311D01*
G01X46146Y91371D01*
G01X46030Y91398D01*
G01X45910Y91390D01*
G01X45800Y91346D01*
G01X45706Y91271D01*
G01X45639Y91173D01*
G01X45604Y91059D01*
G01X45604Y90940D01*
G01X45639Y90826D01*
G01X45706Y90728D01*
G01X45800Y90654D01*
G01X45819Y90646D01*
G01X45819Y86354D01*
G01X45800Y86346D01*
G01X45706Y86271D01*
G01X45639Y86173D01*
G01X45604Y86059D01*
G01X45604Y85940D01*
G01X45639Y85826D01*
G01X45706Y85728D01*
G01X45800Y85654D01*
G01X45819Y85646D01*
G01X45819Y75354D01*
G01X45800Y75346D01*
G01X45706Y75271D01*
G01X45639Y75173D01*
G01X45604Y75059D01*
G01X45604Y74940D01*
G01X45639Y74826D01*
G01X45706Y74728D01*
G01X45800Y74654D01*
G01X45910Y74609D01*
G01X46030Y74602D01*
G37*
G36*
G01X27530Y63102D02*
G01X27646Y63128D01*
G01X27750Y63188D01*
G01X27830Y63273D01*
G01X27881Y63382D01*
G01X27900Y63500D01*
G01X27881Y63617D01*
G01X27830Y63726D01*
G01X27750Y63811D01*
G01X27646Y63871D01*
G01X27530Y63898D01*
G01X27410Y63890D01*
G01X27300Y63846D01*
G01X27206Y63771D01*
G01X27139Y63673D01*
G01X27103Y63559D01*
G01X27103Y63440D01*
G01X27139Y63326D01*
G01X27206Y63228D01*
G01X27300Y63154D01*
G01X27410Y63109D01*
G01X27530Y63102D01*
G37*
G36*
G01X33530Y63102D02*
G01X33646Y63128D01*
G01X33750Y63188D01*
G01X33830Y63273D01*
G01X33881Y63382D01*
G01X33900Y63500D01*
G01X33881Y63617D01*
G01X33830Y63726D01*
G01X33750Y63811D01*
G01X33646Y63871D01*
G01X33530Y63898D01*
G01X33410Y63890D01*
G01X33300Y63846D01*
G01X33206Y63771D01*
G01X33139Y63673D01*
G01X33104Y63559D01*
G01X33104Y63440D01*
G01X33139Y63326D01*
G01X33206Y63228D01*
G01X33300Y63154D01*
G01X33410Y63109D01*
G01X33530Y63102D01*
G37*
G36*
G01X48477Y70282D02*
G01X48568Y70290D01*
G01X48619Y70319D01*
G01X55000Y70319D01*
G01X55027Y70321D01*
G01X55056Y70328D01*
G01X55081Y70340D01*
G01X55106Y70354D01*
G01X55127Y70371D01*
G01X55627Y70871D01*
G01X55646Y70894D01*
G01X55660Y70917D01*
G01X55672Y70944D01*
G01X55677Y70971D01*
G01X55680Y71000D01*
G01X55680Y81500D01*
G01X55677Y81528D01*
G01X55672Y81556D01*
G01X55660Y81582D01*
G01X55646Y81606D01*
G01X55627Y81628D01*
G01X55127Y82128D01*
G01X55106Y82146D01*
G01X55081Y82159D01*
G01X55056Y82171D01*
G01X55027Y82178D01*
G01X55000Y82180D01*
G01X55000Y82300D01*
G01X54996Y82330D01*
G01X54980Y82358D01*
G01X54957Y82380D01*
G01X54930Y82396D01*
G01X54900Y82400D01*
G01X54100Y82400D01*
G01X54069Y82396D01*
G01X54042Y82380D01*
G01X54019Y82358D01*
G01X54004Y82330D01*
G01X54000Y82300D01*
G01X54000Y82180D01*
G01X49500Y82180D01*
G01X49472Y82178D01*
G01X49443Y82171D01*
G01X49418Y82159D01*
G01X49393Y82146D01*
G01X49372Y82128D01*
G01X48872Y81628D01*
G01X48854Y81606D01*
G01X48839Y81582D01*
G01X48827Y81556D01*
G01X48822Y81528D01*
G01X48819Y81500D01*
G01X48819Y75354D01*
G01X48800Y75346D01*
G01X48706Y75271D01*
G01X48639Y75173D01*
G01X48604Y75059D01*
G01X48604Y74940D01*
G01X48639Y74826D01*
G01X48706Y74728D01*
G01X48800Y74654D01*
G01X48910Y74609D01*
G01X49030Y74602D01*
G01X49146Y74628D01*
G01X49250Y74688D01*
G01X49330Y74773D01*
G01X49381Y74882D01*
G01X49400Y75000D01*
G01X49381Y75117D01*
G01X49330Y75226D01*
G01X49250Y75311D01*
G01X49180Y75352D01*
G01X49180Y81423D01*
G01X49576Y81819D01*
G01X54000Y81819D01*
G01X54000Y81700D01*
G01X54004Y81669D01*
G01X54019Y81642D01*
G01X54042Y81619D01*
G01X54069Y81604D01*
G01X54100Y81600D01*
G01X54900Y81600D01*
G01X54930Y81604D01*
G01X54957Y81619D01*
G01X54980Y81642D01*
G01X54996Y81669D01*
G01X55000Y81700D01*
G01X55000Y81744D01*
G01X55319Y81423D01*
G01X55319Y71076D01*
G01X54923Y70680D01*
G01X48619Y70680D01*
G01X48568Y70709D01*
G01X48477Y70717D01*
G01X48389Y70690D01*
G01X48322Y70630D01*
G01X48284Y70546D01*
G01X48284Y70454D01*
G01X48322Y70369D01*
G01X48389Y70309D01*
G01X48477Y70282D01*
G37*
G36*
G01X27530Y64102D02*
G01X27646Y64128D01*
G01X27750Y64188D01*
G01X27830Y64273D01*
G01X27881Y64382D01*
G01X27900Y64500D01*
G01X27881Y64617D01*
G01X27830Y64726D01*
G01X27750Y64811D01*
G01X27646Y64871D01*
G01X27530Y64898D01*
G01X27410Y64890D01*
G01X27300Y64846D01*
G01X27206Y64771D01*
G01X27139Y64673D01*
G01X27103Y64559D01*
G01X27103Y64440D01*
G01X27139Y64326D01*
G01X27206Y64228D01*
G01X27300Y64154D01*
G01X27410Y64109D01*
G01X27530Y64102D01*
G37*
G36*
G01X33530Y64102D02*
G01X33646Y64128D01*
G01X33750Y64188D01*
G01X33830Y64273D01*
G01X33881Y64382D01*
G01X33900Y64500D01*
G01X33881Y64617D01*
G01X33830Y64726D01*
G01X33750Y64811D01*
G01X33646Y64871D01*
G01X33530Y64898D01*
G01X33410Y64890D01*
G01X33300Y64846D01*
G01X33206Y64771D01*
G01X33139Y64673D01*
G01X33104Y64559D01*
G01X33104Y64440D01*
G01X33139Y64326D01*
G01X33206Y64228D01*
G01X33300Y64154D01*
G01X33410Y64109D01*
G01X33530Y64102D01*
G37*
G36*
G01X48477Y69782D02*
G01X48568Y69790D01*
G01X48619Y69819D01*
G01X55500Y69819D01*
G01X55527Y69821D01*
G01X55556Y69828D01*
G01X55581Y69840D01*
G01X55606Y69854D01*
G01X55627Y69871D01*
G01X56127Y70371D01*
G01X56146Y70394D01*
G01X56160Y70417D01*
G01X56172Y70444D01*
G01X56177Y70471D01*
G01X56180Y70500D01*
G01X56180Y89000D01*
G01X56177Y89028D01*
G01X56172Y89056D01*
G01X56160Y89082D01*
G01X56146Y89106D01*
G01X56127Y89128D01*
G01X55627Y89628D01*
G01X55606Y89646D01*
G01X55581Y89659D01*
G01X55556Y89671D01*
G01X55527Y89678D01*
G01X55500Y89680D01*
G01X49576Y89680D01*
G01X49180Y90076D01*
G01X49180Y90648D01*
G01X49250Y90688D01*
G01X49330Y90773D01*
G01X49381Y90882D01*
G01X49400Y91000D01*
G01X49381Y91117D01*
G01X49330Y91226D01*
G01X49250Y91311D01*
G01X49180Y91352D01*
G01X49180Y95423D01*
G01X49576Y95819D01*
G01X54000Y95819D01*
G01X54000Y95700D01*
G01X54004Y95669D01*
G01X54019Y95642D01*
G01X54042Y95619D01*
G01X54069Y95604D01*
G01X54100Y95600D01*
G01X54900Y95600D01*
G01X54930Y95604D01*
G01X54957Y95619D01*
G01X54980Y95642D01*
G01X54996Y95669D01*
G01X55000Y95700D01*
G01X55000Y96300D01*
G01X54996Y96330D01*
G01X54980Y96358D01*
G01X54957Y96380D01*
G01X54930Y96396D01*
G01X54900Y96400D01*
G01X54100Y96400D01*
G01X54069Y96396D01*
G01X54042Y96380D01*
G01X54019Y96358D01*
G01X54004Y96330D01*
G01X54000Y96300D01*
G01X54000Y96180D01*
G01X49500Y96180D01*
G01X49472Y96178D01*
G01X49443Y96171D01*
G01X49418Y96159D01*
G01X49393Y96146D01*
G01X49372Y96128D01*
G01X48872Y95628D01*
G01X48854Y95606D01*
G01X48839Y95582D01*
G01X48827Y95556D01*
G01X48822Y95528D01*
G01X48819Y95500D01*
G01X48819Y91354D01*
G01X48800Y91346D01*
G01X48706Y91271D01*
G01X48639Y91173D01*
G01X48604Y91059D01*
G01X48604Y90940D01*
G01X48639Y90826D01*
G01X48706Y90728D01*
G01X48800Y90654D01*
G01X48819Y90646D01*
G01X48819Y90000D01*
G01X48822Y89971D01*
G01X48827Y89944D01*
G01X48839Y89917D01*
G01X48854Y89894D01*
G01X48872Y89871D01*
G01X49372Y89371D01*
G01X49393Y89354D01*
G01X49418Y89340D01*
G01X49443Y89328D01*
G01X49472Y89321D01*
G01X49500Y89319D01*
G01X55423Y89319D01*
G01X55819Y88923D01*
G01X55819Y70576D01*
G01X55423Y70180D01*
G01X48619Y70180D01*
G01X48568Y70209D01*
G01X48477Y70217D01*
G01X48389Y70190D01*
G01X48322Y70130D01*
G01X48284Y70046D01*
G01X48284Y69954D01*
G01X48322Y69869D01*
G01X48389Y69809D01*
G01X48477Y69782D01*
G37*
G36*
G01X49227Y67604D02*
G01X49372Y67604D01*
G01X49511Y67638D01*
G01X49639Y67706D01*
G01X49750Y67802D01*
G01X49831Y67921D01*
G01X49881Y68056D01*
G01X49900Y68200D01*
G01X49881Y68344D01*
G01X49831Y68478D01*
G01X49750Y68598D01*
G01X49639Y68694D01*
G01X49511Y68761D01*
G01X49372Y68796D01*
G01X49227Y68796D01*
G01X49088Y68761D01*
G01X48960Y68694D01*
G01X48850Y68598D01*
G01X48768Y68478D01*
G01X48718Y68344D01*
G01X48700Y68200D01*
G01X48718Y68056D01*
G01X48768Y67921D01*
G01X48850Y67802D01*
G01X48960Y67706D01*
G01X49088Y67638D01*
G01X49227Y67604D01*
G37*
G36*
G01X27530Y65102D02*
G01X27646Y65128D01*
G01X27750Y65188D01*
G01X27830Y65273D01*
G01X27881Y65382D01*
G01X27900Y65500D01*
G01X27881Y65617D01*
G01X27830Y65726D01*
G01X27750Y65811D01*
G01X27646Y65871D01*
G01X27530Y65898D01*
G01X27410Y65890D01*
G01X27300Y65846D01*
G01X27206Y65771D01*
G01X27139Y65673D01*
G01X27103Y65559D01*
G01X27103Y65440D01*
G01X27139Y65326D01*
G01X27206Y65228D01*
G01X27300Y65154D01*
G01X27410Y65109D01*
G01X27530Y65102D01*
G37*
G36*
G01X40727Y67604D02*
G01X40872Y67604D01*
G01X41011Y67638D01*
G01X41139Y67706D01*
G01X41250Y67802D01*
G01X41331Y67921D01*
G01X41381Y68056D01*
G01X41400Y68200D01*
G01X41381Y68344D01*
G01X41331Y68478D01*
G01X41250Y68598D01*
G01X41139Y68694D01*
G01X41011Y68761D01*
G01X40872Y68796D01*
G01X40727Y68796D01*
G01X40588Y68761D01*
G01X40460Y68694D01*
G01X40350Y68598D01*
G01X40268Y68478D01*
G01X40218Y68344D01*
G01X40200Y68200D01*
G01X40218Y68056D01*
G01X40268Y67921D01*
G01X40350Y67802D01*
G01X40460Y67706D01*
G01X40588Y67638D01*
G01X40727Y67604D01*
G37*
G36*
G01X37977Y67282D02*
G01X38068Y67290D01*
G01X38147Y67336D01*
G01X38200Y67409D01*
G01X38219Y67500D01*
G01X38200Y67590D01*
G01X38180Y67617D01*
G01X38180Y72923D01*
G01X38576Y73319D01*
G01X42000Y73319D01*
G01X42027Y73321D01*
G01X42056Y73328D01*
G01X42081Y73340D01*
G01X42106Y73354D01*
G01X42127Y73371D01*
G01X42627Y73871D01*
G01X42646Y73894D01*
G01X42660Y73917D01*
G01X42672Y73944D01*
G01X42677Y73971D01*
G01X42680Y74000D01*
G01X42680Y81500D01*
G01X42677Y81528D01*
G01X42672Y81556D01*
G01X42660Y81582D01*
G01X42646Y81606D01*
G01X42627Y81628D01*
G01X42127Y82128D01*
G01X42106Y82146D01*
G01X42081Y82159D01*
G01X42056Y82171D01*
G01X42027Y82178D01*
G01X42000Y82180D01*
G01X42000Y82300D01*
G01X41996Y82330D01*
G01X41980Y82358D01*
G01X41957Y82380D01*
G01X41930Y82396D01*
G01X41900Y82400D01*
G01X41100Y82400D01*
G01X41069Y82396D01*
G01X41042Y82380D01*
G01X41019Y82358D01*
G01X41004Y82330D01*
G01X41000Y82300D01*
G01X41000Y82180D01*
G01X36500Y82180D01*
G01X36472Y82178D01*
G01X36443Y82171D01*
G01X36418Y82159D01*
G01X36393Y82146D01*
G01X36372Y82128D01*
G01X35872Y81628D01*
G01X35854Y81606D01*
G01X35839Y81582D01*
G01X35827Y81556D01*
G01X35822Y81528D01*
G01X35819Y81500D01*
G01X35819Y75354D01*
G01X35800Y75346D01*
G01X35706Y75271D01*
G01X35639Y75173D01*
G01X35604Y75059D01*
G01X35604Y74940D01*
G01X35639Y74826D01*
G01X35706Y74728D01*
G01X35800Y74654D01*
G01X35910Y74609D01*
G01X36030Y74602D01*
G01X36146Y74628D01*
G01X36250Y74688D01*
G01X36330Y74773D01*
G01X36381Y74882D01*
G01X36400Y75000D01*
G01X36381Y75117D01*
G01X36330Y75226D01*
G01X36250Y75311D01*
G01X36180Y75352D01*
G01X36180Y81423D01*
G01X36576Y81819D01*
G01X41000Y81819D01*
G01X41000Y81700D01*
G01X41004Y81669D01*
G01X41019Y81642D01*
G01X41042Y81619D01*
G01X41069Y81604D01*
G01X41100Y81600D01*
G01X41900Y81600D01*
G01X41930Y81604D01*
G01X41957Y81619D01*
G01X41980Y81642D01*
G01X41996Y81669D01*
G01X42000Y81700D01*
G01X42000Y81744D01*
G01X42319Y81423D01*
G01X42319Y74076D01*
G01X41923Y73680D01*
G01X38500Y73680D01*
G01X38472Y73678D01*
G01X38443Y73671D01*
G01X38418Y73659D01*
G01X38393Y73646D01*
G01X38372Y73628D01*
G01X37872Y73128D01*
G01X37854Y73106D01*
G01X37839Y73082D01*
G01X37827Y73056D01*
G01X37822Y73028D01*
G01X37819Y73000D01*
G01X37819Y67626D01*
G01X37784Y67546D01*
G01X37784Y67454D01*
G01X37822Y67369D01*
G01X37889Y67309D01*
G01X37977Y67282D01*
G37*
G36*
G01X48704Y66606D02*
G01X49293Y66606D01*
G01X49323Y66609D01*
G01X49352Y66626D01*
G01X49373Y66648D01*
G01X49389Y66676D01*
G01X49393Y66706D01*
G01X49393Y67296D01*
G01X49389Y67326D01*
G01X49373Y67354D01*
G01X49352Y67376D01*
G01X49323Y67392D01*
G01X49293Y67396D01*
G01X48704Y67396D01*
G01X48673Y67392D01*
G01X48646Y67376D01*
G01X48623Y67354D01*
G01X48607Y67326D01*
G01X48604Y67296D01*
G01X48604Y66706D01*
G01X48607Y66676D01*
G01X48623Y66648D01*
G01X48646Y66626D01*
G01X48673Y66609D01*
G01X48704Y66606D01*
G37*
G36*
G01X40204Y66606D02*
G01X40793Y66606D01*
G01X40823Y66609D01*
G01X40852Y66626D01*
G01X40873Y66648D01*
G01X40889Y66676D01*
G01X40893Y66706D01*
G01X40893Y67296D01*
G01X40889Y67326D01*
G01X40873Y67354D01*
G01X40852Y67376D01*
G01X40823Y67392D01*
G01X40793Y67396D01*
G01X40204Y67396D01*
G01X40173Y67392D01*
G01X40146Y67376D01*
G01X40123Y67354D01*
G01X40107Y67326D01*
G01X40104Y67296D01*
G01X40104Y66706D01*
G01X40107Y66676D01*
G01X40123Y66648D01*
G01X40146Y66626D01*
G01X40173Y66609D01*
G01X40204Y66606D01*
G37*

%LPD*%
G36*
G01X33852Y61680D02*
G01X33830Y61726D01*
G01X33750Y61811D01*
G01X33735Y61819D01*
G01X34000Y61819D01*
G01X34027Y61821D01*
G01X34056Y61828D01*
G01X34081Y61840D01*
G01X34106Y61854D01*
G01X34127Y61871D01*
G01X34627Y62371D01*
G01X34646Y62394D01*
G01X34660Y62417D01*
G01X34672Y62444D01*
G01X34677Y62471D01*
G01X34680Y62500D01*
G01X34680Y63923D01*
G01X35043Y64288D01*
G01X35068Y64290D01*
G01X35147Y64336D01*
G01X35200Y64409D01*
G01X35219Y64500D01*
G01X35214Y64530D01*
G01X35319Y64423D01*
G01X35319Y62076D01*
G01X34923Y61680D01*
G01X33852Y61680D01*
G37*

%LPC*%

%LPD*%
G36*
G01X34780Y67571D02*
G01X34626Y67680D01*
G01X34604Y67694D01*
G01X34577Y67706D01*
G01X34554Y67713D01*
G01X34526Y67717D01*
G01X34500Y67719D01*
G01X22592Y67719D01*
G01X22219Y68092D01*
G01X22219Y74669D01*
G01X22250Y74688D01*
G01X22330Y74773D01*
G01X22381Y74882D01*
G01X22400Y75000D01*
G01X22381Y75117D01*
G01X22330Y75226D01*
G01X22250Y75311D01*
G01X22219Y75330D01*
G01X22219Y90669D01*
G01X22250Y90688D01*
G01X22330Y90773D01*
G01X22381Y90882D01*
G01X22400Y91000D01*
G01X22381Y91117D01*
G01X22330Y91226D01*
G01X22250Y91311D01*
G01X22235Y91319D01*
G01X22765Y91319D01*
G01X22706Y91271D01*
G01X22639Y91173D01*
G01X22603Y91059D01*
G01X22603Y90940D01*
G01X22639Y90826D01*
G01X22706Y90728D01*
G01X22800Y90654D01*
G01X22819Y90646D01*
G01X22819Y89930D01*
G01X22822Y89900D01*
G01X22830Y89869D01*
G01X22843Y89842D01*
G01X22860Y89815D01*
G01X22881Y89794D01*
G01X23381Y89363D01*
G01X23403Y89348D01*
G01X23426Y89336D01*
G01X23450Y89328D01*
G01X23473Y89321D01*
G01X23500Y89319D01*
G01X29423Y89319D01*
G01X29819Y88923D01*
G01X29819Y68126D01*
G01X29784Y68046D01*
G01X29784Y67954D01*
G01X29822Y67869D01*
G01X29889Y67809D01*
G01X29977Y67782D01*
G01X30068Y67790D01*
G01X30147Y67836D01*
G01X30200Y67909D01*
G01X30219Y68000D01*
G01X30200Y68090D01*
G01X30180Y68117D01*
G01X30180Y89000D01*
G01X30177Y89028D01*
G01X30172Y89056D01*
G01X30160Y89082D01*
G01X30146Y89106D01*
G01X30127Y89128D01*
G01X29627Y89628D01*
G01X29606Y89646D01*
G01X29581Y89659D01*
G01X29556Y89671D01*
G01X29527Y89678D01*
G01X29500Y89680D01*
G01X23565Y89680D01*
G01X23180Y90011D01*
G01X23180Y90648D01*
G01X23250Y90688D01*
G01X23330Y90773D01*
G01X23381Y90882D01*
G01X23400Y91000D01*
G01X23381Y91117D01*
G01X23330Y91226D01*
G01X23250Y91311D01*
G01X23235Y91319D01*
G01X23765Y91319D01*
G01X23706Y91271D01*
G01X23639Y91173D01*
G01X23603Y91059D01*
G01X23603Y90940D01*
G01X23639Y90826D01*
G01X23706Y90728D01*
G01X23800Y90654D01*
G01X23910Y90609D01*
G01X24030Y90602D01*
G01X24146Y90628D01*
G01X24250Y90688D01*
G01X24330Y90773D01*
G01X24381Y90882D01*
G01X24400Y91000D01*
G01X24381Y91117D01*
G01X24330Y91226D01*
G01X24250Y91311D01*
G01X24235Y91319D01*
G01X24765Y91319D01*
G01X24706Y91271D01*
G01X24639Y91173D01*
G01X24603Y91059D01*
G01X24603Y90940D01*
G01X24639Y90826D01*
G01X24706Y90728D01*
G01X24800Y90654D01*
G01X24910Y90609D01*
G01X25030Y90602D01*
G01X25146Y90628D01*
G01X25250Y90688D01*
G01X25330Y90773D01*
G01X25381Y90882D01*
G01X25400Y91000D01*
G01X25381Y91117D01*
G01X25330Y91226D01*
G01X25250Y91311D01*
G01X25235Y91319D01*
G01X25765Y91319D01*
G01X25706Y91271D01*
G01X25639Y91173D01*
G01X25631Y91150D01*
G01X25850Y91150D01*
G01X25850Y91319D01*
G01X26150Y91319D01*
G01X26150Y91150D01*
G01X26365Y91150D01*
G01X26330Y91226D01*
G01X26250Y91311D01*
G01X26235Y91319D01*
G01X30423Y91319D01*
G01X30623Y91119D01*
G01X30603Y91059D01*
G01X30603Y90940D01*
G01X30639Y90826D01*
G01X30706Y90728D01*
G01X30800Y90654D01*
G01X30819Y90646D01*
G01X30819Y86354D01*
G01X30800Y86346D01*
G01X30706Y86271D01*
G01X30639Y86173D01*
G01X30603Y86059D01*
G01X30603Y85940D01*
G01X30639Y85826D01*
G01X30706Y85728D01*
G01X30800Y85654D01*
G01X30819Y85646D01*
G01X30819Y75354D01*
G01X30800Y75346D01*
G01X30706Y75271D01*
G01X30639Y75173D01*
G01X30603Y75059D01*
G01X30603Y74940D01*
G01X30639Y74826D01*
G01X30706Y74728D01*
G01X30800Y74654D01*
G01X30819Y74646D01*
G01X30819Y68126D01*
G01X30784Y68046D01*
G01X30784Y67954D01*
G01X30822Y67869D01*
G01X30889Y67809D01*
G01X30977Y67782D01*
G01X31068Y67790D01*
G01X31147Y67836D01*
G01X31200Y67909D01*
G01X31219Y68000D01*
G01X31200Y68090D01*
G01X31180Y68117D01*
G01X31180Y74648D01*
G01X31250Y74688D01*
G01X31330Y74773D01*
G01X31381Y74882D01*
G01X31400Y75000D01*
G01X31381Y75117D01*
G01X31330Y75226D01*
G01X31250Y75311D01*
G01X31180Y75352D01*
G01X31180Y85648D01*
G01X31250Y85688D01*
G01X31330Y85773D01*
G01X31381Y85882D01*
G01X31400Y86000D01*
G01X31381Y86117D01*
G01X31330Y86226D01*
G01X31250Y86311D01*
G01X31180Y86352D01*
G01X31180Y90648D01*
G01X31250Y90688D01*
G01X31330Y90773D01*
G01X31381Y90882D01*
G01X31400Y91000D01*
G01X31381Y91117D01*
G01X31380Y91123D01*
G01X31576Y91319D01*
G01X31765Y91319D01*
G01X31706Y91271D01*
G01X31639Y91173D01*
G01X31603Y91059D01*
G01X31603Y90940D01*
G01X31639Y90826D01*
G01X31706Y90728D01*
G01X31800Y90654D01*
G01X31910Y90609D01*
G01X32030Y90602D01*
G01X32146Y90628D01*
G01X32250Y90688D01*
G01X32330Y90773D01*
G01X32381Y90882D01*
G01X32400Y91000D01*
G01X32381Y91117D01*
G01X32330Y91226D01*
G01X32250Y91311D01*
G01X32235Y91319D01*
G01X32765Y91319D01*
G01X32706Y91271D01*
G01X32639Y91173D01*
G01X32603Y91059D01*
G01X32603Y90940D01*
G01X32639Y90826D01*
G01X32706Y90728D01*
G01X32800Y90654D01*
G01X32819Y90646D01*
G01X32819Y86354D01*
G01X32800Y86346D01*
G01X32706Y86271D01*
G01X32639Y86173D01*
G01X32603Y86059D01*
G01X32603Y85940D01*
G01X32639Y85826D01*
G01X32706Y85728D01*
G01X32800Y85654D01*
G01X32819Y85646D01*
G01X32819Y75354D01*
G01X32800Y75346D01*
G01X32706Y75271D01*
G01X32639Y75173D01*
G01X32603Y75059D01*
G01X32603Y74940D01*
G01X32639Y74826D01*
G01X32706Y74728D01*
G01X32800Y74654D01*
G01X32910Y74609D01*
G01X33030Y74602D01*
G01X33146Y74628D01*
G01X33250Y74688D01*
G01X33330Y74773D01*
G01X33381Y74882D01*
G01X33400Y75000D01*
G01X33381Y75117D01*
G01X33330Y75226D01*
G01X33250Y75311D01*
G01X33180Y75352D01*
G01X33180Y85648D01*
G01X33250Y85688D01*
G01X33330Y85773D01*
G01X33381Y85882D01*
G01X33400Y86000D01*
G01X33381Y86117D01*
G01X33330Y86226D01*
G01X33250Y86311D01*
G01X33180Y86352D01*
G01X33180Y90648D01*
G01X33250Y90688D01*
G01X33330Y90773D01*
G01X33381Y90882D01*
G01X33400Y91000D01*
G01X33381Y91117D01*
G01X33330Y91226D01*
G01X33250Y91311D01*
G01X33235Y91319D01*
G01X33765Y91319D01*
G01X33706Y91271D01*
G01X33639Y91173D01*
G01X33631Y91150D01*
G01X33850Y91150D01*
G01X33850Y91319D01*
G01X34150Y91319D01*
G01X34150Y91150D01*
G01X34365Y91150D01*
G01X34330Y91226D01*
G01X34250Y91311D01*
G01X34235Y91319D01*
G01X34765Y91319D01*
G01X34706Y91271D01*
G01X34639Y91173D01*
G01X34604Y91059D01*
G01X34604Y90940D01*
G01X34639Y90826D01*
G01X34706Y90728D01*
G01X34780Y90669D01*
G01X34780Y75330D01*
G01X34706Y75271D01*
G01X34639Y75173D01*
G01X34604Y75059D01*
G01X34604Y74940D01*
G01X34639Y74826D01*
G01X34706Y74728D01*
G01X34780Y74669D01*
G01X34780Y67571D01*
G37*

%LPC*%
G36*
G01X31977Y67782D02*
G01X32068Y67790D01*
G01X32147Y67836D01*
G01X32200Y67909D01*
G01X32219Y68000D01*
G01X32200Y68090D01*
G01X32180Y68117D01*
G01X32180Y74648D01*
G01X32250Y74688D01*
G01X32330Y74773D01*
G01X32381Y74882D01*
G01X32400Y75000D01*
G01X32381Y75117D01*
G01X32330Y75226D01*
G01X32250Y75311D01*
G01X32146Y75371D01*
G01X32030Y75398D01*
G01X31910Y75390D01*
G01X31800Y75346D01*
G01X31706Y75271D01*
G01X31639Y75173D01*
G01X31603Y75059D01*
G01X31603Y74940D01*
G01X31639Y74826D01*
G01X31706Y74728D01*
G01X31800Y74654D01*
G01X31819Y74646D01*
G01X31819Y68126D01*
G01X31784Y68046D01*
G01X31784Y67954D01*
G01X31822Y67869D01*
G01X31889Y67809D01*
G01X31977Y67782D01*
G37*
G36*
G01X29477Y67782D02*
G01X29568Y67790D01*
G01X29647Y67836D01*
G01X29700Y67909D01*
G01X29719Y68000D01*
G01X29700Y68090D01*
G01X29680Y68117D01*
G01X29680Y81500D01*
G01X29677Y81528D01*
G01X29672Y81556D01*
G01X29660Y81582D01*
G01X29646Y81606D01*
G01X29627Y81628D01*
G01X29127Y82128D01*
G01X29106Y82146D01*
G01X29081Y82159D01*
G01X29056Y82171D01*
G01X29027Y82178D01*
G01X29000Y82180D01*
G01X29000Y82300D01*
G01X28996Y82330D01*
G01X28980Y82358D01*
G01X28957Y82380D01*
G01X28930Y82396D01*
G01X28900Y82400D01*
G01X28100Y82400D01*
G01X28069Y82396D01*
G01X28042Y82380D01*
G01X28019Y82358D01*
G01X28003Y82330D01*
G01X28000Y82300D01*
G01X28000Y82180D01*
G01X23500Y82180D01*
G01X23472Y82178D01*
G01X23443Y82171D01*
G01X23418Y82159D01*
G01X23393Y82146D01*
G01X23372Y82128D01*
G01X22872Y81628D01*
G01X22853Y81606D01*
G01X22839Y81582D01*
G01X22827Y81556D01*
G01X22822Y81528D01*
G01X22819Y81500D01*
G01X22819Y75354D01*
G01X22800Y75346D01*
G01X22706Y75271D01*
G01X22639Y75173D01*
G01X22603Y75059D01*
G01X22603Y74940D01*
G01X22639Y74826D01*
G01X22706Y74728D01*
G01X22800Y74654D01*
G01X22910Y74609D01*
G01X23030Y74602D01*
G01X23146Y74628D01*
G01X23250Y74688D01*
G01X23330Y74773D01*
G01X23381Y74882D01*
G01X23400Y75000D01*
G01X23381Y75117D01*
G01X23330Y75226D01*
G01X23250Y75311D01*
G01X23180Y75352D01*
G01X23180Y81423D01*
G01X23576Y81819D01*
G01X28000Y81819D01*
G01X28000Y81700D01*
G01X28003Y81669D01*
G01X28019Y81642D01*
G01X28042Y81619D01*
G01X28069Y81604D01*
G01X28100Y81600D01*
G01X28900Y81600D01*
G01X28930Y81604D01*
G01X28957Y81619D01*
G01X28980Y81642D01*
G01X28996Y81669D01*
G01X29000Y81700D01*
G01X29000Y81744D01*
G01X29319Y81423D01*
G01X29319Y68126D01*
G01X29284Y68046D01*
G01X29284Y67954D01*
G01X29322Y67869D01*
G01X29389Y67809D01*
G01X29477Y67782D01*
G37*
G36*
G01X24030Y74602D02*
G01X24146Y74628D01*
G01X24250Y74688D01*
G01X24330Y74773D01*
G01X24381Y74882D01*
G01X24400Y75000D01*
G01X24381Y75117D01*
G01X24330Y75226D01*
G01X24250Y75311D01*
G01X24146Y75371D01*
G01X24030Y75398D01*
G01X23910Y75390D01*
G01X23800Y75346D01*
G01X23706Y75271D01*
G01X23639Y75173D01*
G01X23603Y75059D01*
G01X23603Y74940D01*
G01X23639Y74826D01*
G01X23706Y74728D01*
G01X23800Y74654D01*
G01X23910Y74609D01*
G01X24030Y74602D01*
G37*
G36*
G01X25030Y74602D02*
G01X25146Y74628D01*
G01X25250Y74688D01*
G01X25330Y74773D01*
G01X25381Y74882D01*
G01X25400Y75000D01*
G01X25381Y75117D01*
G01X25330Y75226D01*
G01X25250Y75311D01*
G01X25146Y75371D01*
G01X25030Y75398D01*
G01X24910Y75390D01*
G01X24800Y75346D01*
G01X24706Y75271D01*
G01X24639Y75173D01*
G01X24603Y75059D01*
G01X24603Y74940D01*
G01X24639Y74826D01*
G01X24706Y74728D01*
G01X24800Y74654D01*
G01X24910Y74609D01*
G01X25030Y74602D01*
G37*
G36*
G01X34150Y74630D02*
G01X34250Y74688D01*
G01X34330Y74773D01*
G01X34365Y74850D01*
G01X34150Y74850D01*
G01X34150Y74630D01*
G37*
G36*
G01X25850Y90634D02*
G01X25850Y90850D01*
G01X25631Y90850D01*
G01X25639Y90826D01*
G01X25706Y90728D01*
G01X25800Y90654D01*
G01X25850Y90634D01*
G37*
G36*
G01X26150Y74630D02*
G01X26250Y74688D01*
G01X26330Y74773D01*
G01X26365Y74850D01*
G01X26150Y74850D01*
G01X26150Y74630D01*
G37*
G36*
G01X33850Y74634D02*
G01X33850Y74850D01*
G01X33631Y74850D01*
G01X33639Y74826D01*
G01X33706Y74728D01*
G01X33800Y74654D01*
G01X33850Y74634D01*
G37*
G36*
G01X25850Y74634D02*
G01X25850Y74850D01*
G01X25631Y74850D01*
G01X25639Y74826D01*
G01X25706Y74728D01*
G01X25800Y74654D01*
G01X25850Y74634D01*
G37*
G36*
G01X34150Y75150D02*
G01X34365Y75150D01*
G01X34330Y75226D01*
G01X34250Y75311D01*
G01X34150Y75369D01*
G01X34150Y75150D01*
G37*
G36*
G01X33631Y75150D02*
G01X33850Y75150D01*
G01X33850Y75365D01*
G01X33800Y75346D01*
G01X33706Y75271D01*
G01X33639Y75173D01*
G01X33631Y75150D01*
G37*
G36*
G01X33850Y90634D02*
G01X33850Y90850D01*
G01X33631Y90850D01*
G01X33639Y90826D01*
G01X33706Y90728D01*
G01X33800Y90654D01*
G01X33850Y90634D01*
G37*
G36*
G01X25631Y75150D02*
G01X25850Y75150D01*
G01X25850Y75365D01*
G01X25800Y75346D01*
G01X25706Y75271D01*
G01X25639Y75173D01*
G01X25631Y75150D01*
G37*
G36*
G01X25477Y67782D02*
G01X25568Y67790D01*
G01X25647Y67836D01*
G01X25700Y67909D01*
G01X25719Y68000D01*
G01X25700Y68090D01*
G01X25680Y68117D01*
G01X25680Y71923D01*
G01X26043Y72288D01*
G01X26068Y72290D01*
G01X26147Y72336D01*
G01X26200Y72409D01*
G01X26219Y72500D01*
G01X26200Y72590D01*
G01X26147Y72663D01*
G01X26068Y72709D01*
G01X25977Y72717D01*
G01X25889Y72690D01*
G01X25822Y72630D01*
G01X25784Y72546D01*
G01X25784Y72540D01*
G01X25372Y72128D01*
G01X25353Y72106D01*
G01X25339Y72082D01*
G01X25327Y72056D01*
G01X25322Y72028D01*
G01X25319Y72000D01*
G01X25319Y68126D01*
G01X25284Y68046D01*
G01X25284Y67954D01*
G01X25322Y67869D01*
G01X25389Y67809D01*
G01X25477Y67782D01*
G37*
G36*
G01X28700Y80584D02*
G01X28900Y80584D01*
G01X28930Y80588D01*
G01X28957Y80604D01*
G01X28980Y80626D01*
G01X28996Y80654D01*
G01X29000Y80684D01*
G01X29000Y80834D01*
G01X28700Y80834D01*
G01X28700Y80584D01*
G37*
G36*
G01X28100Y80584D02*
G01X28300Y80584D01*
G01X28300Y80834D01*
G01X28000Y80834D01*
G01X28000Y80684D01*
G01X28003Y80654D01*
G01X28019Y80626D01*
G01X28042Y80604D01*
G01X28069Y80588D01*
G01X28100Y80584D01*
G37*
G36*
G01X28700Y81134D02*
G01X29000Y81134D01*
G01X29000Y81284D01*
G01X28996Y81313D01*
G01X28980Y81342D01*
G01X28957Y81363D01*
G01X28930Y81380D01*
G01X28900Y81384D01*
G01X28700Y81384D01*
G01X28700Y81134D01*
G37*
G36*
G01X28000Y81134D02*
G01X28300Y81134D01*
G01X28300Y81384D01*
G01X28100Y81384D01*
G01X28069Y81380D01*
G01X28042Y81363D01*
G01X28019Y81342D01*
G01X28003Y81313D01*
G01X28000Y81284D01*
G01X28000Y81134D01*
G37*
G36*
G01X28100Y82615D02*
G01X28900Y82615D01*
G01X28930Y82619D01*
G01X28957Y82636D01*
G01X28980Y82658D01*
G01X28996Y82686D01*
G01X29000Y82715D01*
G01X29000Y83315D01*
G01X28996Y83346D01*
G01X28980Y83373D01*
G01X28957Y83396D01*
G01X28930Y83411D01*
G01X28900Y83415D01*
G01X28100Y83415D01*
G01X28069Y83411D01*
G01X28042Y83396D01*
G01X28019Y83373D01*
G01X28003Y83346D01*
G01X28000Y83315D01*
G01X28000Y82715D01*
G01X28003Y82686D01*
G01X28019Y82658D01*
G01X28042Y82636D01*
G01X28069Y82619D01*
G01X28100Y82615D01*
G37*
G36*
G01X32030Y85602D02*
G01X32146Y85628D01*
G01X32250Y85688D01*
G01X32330Y85773D01*
G01X32381Y85882D01*
G01X32400Y86000D01*
G01X32381Y86117D01*
G01X32330Y86226D01*
G01X32250Y86311D01*
G01X32146Y86371D01*
G01X32030Y86398D01*
G01X31910Y86390D01*
G01X31800Y86346D01*
G01X31706Y86271D01*
G01X31639Y86173D01*
G01X31603Y86059D01*
G01X31603Y85940D01*
G01X31639Y85826D01*
G01X31706Y85728D01*
G01X31800Y85654D01*
G01X31910Y85609D01*
G01X32030Y85602D01*
G37*
G36*
G01X25477Y87782D02*
G01X25568Y87790D01*
G01X25619Y87819D01*
G01X26377Y87819D01*
G01X26389Y87809D01*
G01X26477Y87782D01*
G01X26568Y87790D01*
G01X26647Y87836D01*
G01X26700Y87909D01*
G01X26719Y88000D01*
G01X26700Y88090D01*
G01X26647Y88163D01*
G01X26568Y88209D01*
G01X26477Y88217D01*
G01X26389Y88190D01*
G01X26377Y88180D01*
G01X25619Y88180D01*
G01X25568Y88209D01*
G01X25477Y88217D01*
G01X25389Y88190D01*
G01X25322Y88130D01*
G01X25284Y88046D01*
G01X25284Y87954D01*
G01X25322Y87869D01*
G01X25389Y87809D01*
G01X25477Y87782D01*
G37*
G36*
G01X25477Y88282D02*
G01X25568Y88290D01*
G01X25619Y88319D01*
G01X26377Y88319D01*
G01X26389Y88309D01*
G01X26477Y88282D01*
G01X26568Y88290D01*
G01X26647Y88336D01*
G01X26700Y88409D01*
G01X26719Y88500D01*
G01X26700Y88590D01*
G01X26647Y88663D01*
G01X26568Y88709D01*
G01X26477Y88717D01*
G01X26389Y88690D01*
G01X26377Y88680D01*
G01X25619Y88680D01*
G01X25568Y88709D01*
G01X25477Y88717D01*
G01X25389Y88690D01*
G01X25322Y88630D01*
G01X25284Y88546D01*
G01X25284Y88454D01*
G01X25322Y88369D01*
G01X25389Y88309D01*
G01X25477Y88282D01*
G37*
G36*
G01X34150Y90630D02*
G01X34250Y90688D01*
G01X34330Y90773D01*
G01X34365Y90850D01*
G01X34150Y90850D01*
G01X34150Y90630D01*
G37*
G36*
G01X26150Y90630D02*
G01X26250Y90688D01*
G01X26330Y90773D01*
G01X26365Y90850D01*
G01X26150Y90850D01*
G01X26150Y90630D01*
G37*
G36*
G01X26150Y75150D02*
G01X26365Y75150D01*
G01X26330Y75226D01*
G01X26250Y75311D01*
G01X26150Y75369D01*
G01X26150Y75150D01*
G37*

%LPD*%
G36*
G01X9592Y67719D02*
G01X9219Y68092D01*
G01X9219Y74669D01*
G01X9250Y74688D01*
G01X9330Y74773D01*
G01X9381Y74882D01*
G01X9400Y75000D01*
G01X9381Y75117D01*
G01X9330Y75226D01*
G01X9250Y75311D01*
G01X9219Y75330D01*
G01X9219Y90669D01*
G01X9250Y90688D01*
G01X9330Y90773D01*
G01X9381Y90882D01*
G01X9400Y91000D01*
G01X9381Y91117D01*
G01X9330Y91226D01*
G01X9250Y91311D01*
G01X9235Y91319D01*
G01X9765Y91319D01*
G01X9706Y91271D01*
G01X9639Y91173D01*
G01X9603Y91059D01*
G01X9603Y90940D01*
G01X9639Y90826D01*
G01X9706Y90728D01*
G01X9800Y90654D01*
G01X9819Y90646D01*
G01X9819Y90000D01*
G01X9822Y89971D01*
G01X9827Y89944D01*
G01X9839Y89917D01*
G01X9853Y89894D01*
G01X9872Y89871D01*
G01X10372Y89371D01*
G01X10393Y89354D01*
G01X10418Y89340D01*
G01X10443Y89328D01*
G01X10472Y89321D01*
G01X10500Y89319D01*
G01X16423Y89319D01*
G01X16819Y88923D01*
G01X16819Y68126D01*
G01X16784Y68046D01*
G01X16784Y67954D01*
G01X16822Y67869D01*
G01X16889Y67809D01*
G01X16977Y67782D01*
G01X17068Y67790D01*
G01X17147Y67836D01*
G01X17200Y67909D01*
G01X17219Y68000D01*
G01X17200Y68090D01*
G01X17180Y68117D01*
G01X17180Y89000D01*
G01X17177Y89028D01*
G01X17172Y89056D01*
G01X17160Y89082D01*
G01X17146Y89106D01*
G01X17127Y89128D01*
G01X16627Y89628D01*
G01X16606Y89646D01*
G01X16581Y89659D01*
G01X16556Y89671D01*
G01X16527Y89678D01*
G01X16500Y89680D01*
G01X10576Y89680D01*
G01X10180Y90076D01*
G01X10180Y90648D01*
G01X10250Y90688D01*
G01X10330Y90773D01*
G01X10381Y90882D01*
G01X10400Y91000D01*
G01X10381Y91117D01*
G01X10330Y91226D01*
G01X10250Y91311D01*
G01X10235Y91319D01*
G01X10765Y91319D01*
G01X10706Y91271D01*
G01X10639Y91173D01*
G01X10603Y91059D01*
G01X10603Y90940D01*
G01X10639Y90826D01*
G01X10706Y90728D01*
G01X10800Y90654D01*
G01X10910Y90609D01*
G01X11030Y90602D01*
G01X11146Y90628D01*
G01X11250Y90688D01*
G01X11330Y90773D01*
G01X11381Y90882D01*
G01X11400Y91000D01*
G01X11381Y91117D01*
G01X11330Y91226D01*
G01X11250Y91311D01*
G01X11235Y91319D01*
G01X11765Y91319D01*
G01X11706Y91271D01*
G01X11639Y91173D01*
G01X11603Y91059D01*
G01X11603Y90940D01*
G01X11639Y90826D01*
G01X11706Y90728D01*
G01X11800Y90654D01*
G01X11910Y90609D01*
G01X12030Y90602D01*
G01X12146Y90628D01*
G01X12250Y90688D01*
G01X12330Y90773D01*
G01X12381Y90882D01*
G01X12400Y91000D01*
G01X12381Y91117D01*
G01X12330Y91226D01*
G01X12250Y91311D01*
G01X12235Y91319D01*
G01X12765Y91319D01*
G01X12706Y91271D01*
G01X12639Y91173D01*
G01X12631Y91150D01*
G01X12850Y91150D01*
G01X12850Y91319D01*
G01X13150Y91319D01*
G01X13150Y91150D01*
G01X13365Y91150D01*
G01X13330Y91226D01*
G01X13250Y91311D01*
G01X13235Y91319D01*
G01X17423Y91319D01*
G01X17623Y91119D01*
G01X17603Y91059D01*
G01X17603Y90940D01*
G01X17639Y90826D01*
G01X17706Y90728D01*
G01X17800Y90654D01*
G01X17819Y90646D01*
G01X17819Y86354D01*
G01X17800Y86346D01*
G01X17706Y86271D01*
G01X17639Y86173D01*
G01X17603Y86059D01*
G01X17603Y85940D01*
G01X17639Y85826D01*
G01X17706Y85728D01*
G01X17800Y85654D01*
G01X17819Y85646D01*
G01X17819Y75354D01*
G01X17800Y75346D01*
G01X17706Y75271D01*
G01X17639Y75173D01*
G01X17603Y75059D01*
G01X17603Y74940D01*
G01X17639Y74826D01*
G01X17706Y74728D01*
G01X17800Y74654D01*
G01X17910Y74609D01*
G01X18030Y74602D01*
G01X18146Y74628D01*
G01X18250Y74688D01*
G01X18330Y74773D01*
G01X18381Y74882D01*
G01X18400Y75000D01*
G01X18381Y75117D01*
G01X18330Y75226D01*
G01X18250Y75311D01*
G01X18180Y75352D01*
G01X18180Y85648D01*
G01X18250Y85688D01*
G01X18330Y85773D01*
G01X18381Y85882D01*
G01X18400Y86000D01*
G01X18381Y86117D01*
G01X18330Y86226D01*
G01X18250Y86311D01*
G01X18180Y86352D01*
G01X18180Y90648D01*
G01X18250Y90688D01*
G01X18330Y90773D01*
G01X18381Y90882D01*
G01X18400Y91000D01*
G01X18381Y91117D01*
G01X18380Y91123D01*
G01X18576Y91319D01*
G01X18765Y91319D01*
G01X18706Y91271D01*
G01X18639Y91173D01*
G01X18603Y91059D01*
G01X18603Y90940D01*
G01X18639Y90826D01*
G01X18706Y90728D01*
G01X18800Y90654D01*
G01X18910Y90609D01*
G01X19030Y90602D01*
G01X19146Y90628D01*
G01X19250Y90688D01*
G01X19330Y90773D01*
G01X19381Y90882D01*
G01X19400Y91000D01*
G01X19381Y91117D01*
G01X19330Y91226D01*
G01X19250Y91311D01*
G01X19235Y91319D01*
G01X19765Y91319D01*
G01X19706Y91271D01*
G01X19639Y91173D01*
G01X19603Y91059D01*
G01X19603Y90940D01*
G01X19639Y90826D01*
G01X19706Y90728D01*
G01X19800Y90654D01*
G01X19819Y90646D01*
G01X19819Y86354D01*
G01X19800Y86346D01*
G01X19706Y86271D01*
G01X19639Y86173D01*
G01X19603Y86059D01*
G01X19603Y85940D01*
G01X19639Y85826D01*
G01X19706Y85728D01*
G01X19800Y85654D01*
G01X19819Y85646D01*
G01X19819Y75354D01*
G01X19800Y75346D01*
G01X19706Y75271D01*
G01X19639Y75173D01*
G01X19603Y75059D01*
G01X19603Y74940D01*
G01X19639Y74826D01*
G01X19706Y74728D01*
G01X19800Y74654D01*
G01X19819Y74646D01*
G01X19819Y68126D01*
G01X19784Y68046D01*
G01X19784Y67954D01*
G01X19822Y67869D01*
G01X19889Y67809D01*
G01X19977Y67782D01*
G01X20068Y67790D01*
G01X20147Y67836D01*
G01X20200Y67909D01*
G01X20219Y68000D01*
G01X20200Y68090D01*
G01X20180Y68117D01*
G01X20180Y74648D01*
G01X20250Y74688D01*
G01X20330Y74773D01*
G01X20381Y74882D01*
G01X20400Y75000D01*
G01X20381Y75117D01*
G01X20330Y75226D01*
G01X20250Y75311D01*
G01X20180Y75352D01*
G01X20180Y85648D01*
G01X20250Y85688D01*
G01X20330Y85773D01*
G01X20381Y85882D01*
G01X20400Y86000D01*
G01X20381Y86117D01*
G01X20330Y86226D01*
G01X20250Y86311D01*
G01X20180Y86352D01*
G01X20180Y90648D01*
G01X20250Y90688D01*
G01X20330Y90773D01*
G01X20381Y90882D01*
G01X20400Y91000D01*
G01X20381Y91117D01*
G01X20330Y91226D01*
G01X20250Y91311D01*
G01X20235Y91319D01*
G01X20765Y91319D01*
G01X20706Y91271D01*
G01X20639Y91173D01*
G01X20631Y91150D01*
G01X20850Y91150D01*
G01X20850Y91319D01*
G01X21150Y91319D01*
G01X21150Y91150D01*
G01X21365Y91150D01*
G01X21330Y91226D01*
G01X21250Y91311D01*
G01X21235Y91319D01*
G01X21765Y91319D01*
G01X21706Y91271D01*
G01X21639Y91173D01*
G01X21603Y91059D01*
G01X21603Y90940D01*
G01X21639Y90826D01*
G01X21706Y90728D01*
G01X21780Y90669D01*
G01X21780Y75330D01*
G01X21706Y75271D01*
G01X21639Y75173D01*
G01X21603Y75059D01*
G01X21603Y74940D01*
G01X21639Y74826D01*
G01X21706Y74728D01*
G01X21780Y74669D01*
G01X21780Y68000D01*
G01X21781Y67965D01*
G01X21789Y67932D01*
G01X21803Y67900D01*
G01X21822Y67869D01*
G01X21843Y67844D01*
G01X21968Y67719D01*
G01X9592Y67719D01*
G37*

%LPC*%
G36*
G01X11030Y74602D02*
G01X11146Y74628D01*
G01X11250Y74688D01*
G01X11330Y74773D01*
G01X11381Y74882D01*
G01X11400Y75000D01*
G01X11381Y75117D01*
G01X11330Y75226D01*
G01X11250Y75311D01*
G01X11146Y75371D01*
G01X11030Y75398D01*
G01X10910Y75390D01*
G01X10800Y75346D01*
G01X10706Y75271D01*
G01X10639Y75173D01*
G01X10603Y75059D01*
G01X10603Y74940D01*
G01X10639Y74826D01*
G01X10706Y74728D01*
G01X10800Y74654D01*
G01X10910Y74609D01*
G01X11030Y74602D01*
G37*
G36*
G01X20850Y74634D02*
G01X20850Y74850D01*
G01X20631Y74850D01*
G01X20639Y74826D01*
G01X20706Y74728D01*
G01X20800Y74654D01*
G01X20850Y74634D01*
G37*
G36*
G01X15700Y80584D02*
G01X15900Y80584D01*
G01X15930Y80588D01*
G01X15957Y80604D01*
G01X15980Y80626D01*
G01X15996Y80654D01*
G01X16000Y80684D01*
G01X16000Y80834D01*
G01X15700Y80834D01*
G01X15700Y80584D01*
G37*
G36*
G01X15100Y80584D02*
G01X15300Y80584D01*
G01X15300Y80834D01*
G01X15000Y80834D01*
G01X15000Y80684D01*
G01X15003Y80654D01*
G01X15019Y80626D01*
G01X15042Y80604D01*
G01X15069Y80588D01*
G01X15100Y80584D01*
G37*
G36*
G01X12030Y74602D02*
G01X12146Y74628D01*
G01X12250Y74688D01*
G01X12330Y74773D01*
G01X12381Y74882D01*
G01X12400Y75000D01*
G01X12381Y75117D01*
G01X12330Y75226D01*
G01X12250Y75311D01*
G01X12146Y75371D01*
G01X12030Y75398D01*
G01X11910Y75390D01*
G01X11800Y75346D01*
G01X11706Y75271D01*
G01X11639Y75173D01*
G01X11603Y75059D01*
G01X11603Y74940D01*
G01X11639Y74826D01*
G01X11706Y74728D01*
G01X11800Y74654D01*
G01X11910Y74609D01*
G01X12030Y74602D01*
G37*
G36*
G01X12850Y74634D02*
G01X12850Y74850D01*
G01X12631Y74850D01*
G01X12639Y74826D01*
G01X12706Y74728D01*
G01X12800Y74654D01*
G01X12850Y74634D01*
G37*
G36*
G01X15700Y81134D02*
G01X16000Y81134D01*
G01X16000Y81284D01*
G01X15996Y81313D01*
G01X15980Y81342D01*
G01X15957Y81363D01*
G01X15930Y81380D01*
G01X15900Y81384D01*
G01X15700Y81384D01*
G01X15700Y81134D01*
G37*
G36*
G01X15000Y81134D02*
G01X15300Y81134D01*
G01X15300Y81384D01*
G01X15100Y81384D01*
G01X15069Y81380D01*
G01X15042Y81363D01*
G01X15019Y81342D01*
G01X15003Y81313D01*
G01X15000Y81284D01*
G01X15000Y81134D01*
G37*
G36*
G01X18977Y72282D02*
G01X19068Y72290D01*
G01X19147Y72336D01*
G01X19200Y72409D01*
G01X19219Y72500D01*
G01X19200Y72590D01*
G01X19180Y72617D01*
G01X19180Y74648D01*
G01X19250Y74688D01*
G01X19330Y74773D01*
G01X19381Y74882D01*
G01X19400Y75000D01*
G01X19381Y75117D01*
G01X19330Y75226D01*
G01X19250Y75311D01*
G01X19146Y75371D01*
G01X19030Y75398D01*
G01X18910Y75390D01*
G01X18800Y75346D01*
G01X18706Y75271D01*
G01X18639Y75173D01*
G01X18603Y75059D01*
G01X18603Y74940D01*
G01X18639Y74826D01*
G01X18706Y74728D01*
G01X18800Y74654D01*
G01X18819Y74646D01*
G01X18819Y72626D01*
G01X18784Y72546D01*
G01X18784Y72454D01*
G01X18822Y72369D01*
G01X18889Y72309D01*
G01X18977Y72282D01*
G37*
G36*
G01X15100Y82615D02*
G01X15900Y82615D01*
G01X15930Y82619D01*
G01X15957Y82636D01*
G01X15980Y82658D01*
G01X15996Y82686D01*
G01X16000Y82715D01*
G01X16000Y83315D01*
G01X15996Y83346D01*
G01X15980Y83373D01*
G01X15957Y83396D01*
G01X15930Y83411D01*
G01X15900Y83415D01*
G01X15100Y83415D01*
G01X15069Y83411D01*
G01X15042Y83396D01*
G01X15019Y83373D01*
G01X15003Y83346D01*
G01X15000Y83315D01*
G01X15000Y82715D01*
G01X15003Y82686D01*
G01X15019Y82658D01*
G01X15042Y82636D01*
G01X15069Y82619D01*
G01X15100Y82615D01*
G37*
G36*
G01X16477Y67782D02*
G01X16568Y67790D01*
G01X16647Y67836D01*
G01X16700Y67909D01*
G01X16719Y68000D01*
G01X16700Y68090D01*
G01X16680Y68117D01*
G01X16680Y81500D01*
G01X16677Y81528D01*
G01X16672Y81556D01*
G01X16660Y81582D01*
G01X16646Y81606D01*
G01X16627Y81628D01*
G01X16127Y82128D01*
G01X16106Y82146D01*
G01X16081Y82159D01*
G01X16056Y82171D01*
G01X16027Y82178D01*
G01X16000Y82180D01*
G01X16000Y82300D01*
G01X15996Y82330D01*
G01X15980Y82358D01*
G01X15957Y82380D01*
G01X15930Y82396D01*
G01X15900Y82400D01*
G01X15100Y82400D01*
G01X15069Y82396D01*
G01X15042Y82380D01*
G01X15019Y82358D01*
G01X15003Y82330D01*
G01X15000Y82300D01*
G01X15000Y82180D01*
G01X10500Y82180D01*
G01X10472Y82178D01*
G01X10443Y82171D01*
G01X10418Y82159D01*
G01X10393Y82146D01*
G01X10372Y82128D01*
G01X9872Y81628D01*
G01X9853Y81606D01*
G01X9839Y81582D01*
G01X9827Y81556D01*
G01X9822Y81528D01*
G01X9819Y81500D01*
G01X9819Y75354D01*
G01X9800Y75346D01*
G01X9706Y75271D01*
G01X9639Y75173D01*
G01X9603Y75059D01*
G01X9603Y74940D01*
G01X9639Y74826D01*
G01X9706Y74728D01*
G01X9800Y74654D01*
G01X9910Y74609D01*
G01X10030Y74602D01*
G01X10146Y74628D01*
G01X10250Y74688D01*
G01X10330Y74773D01*
G01X10381Y74882D01*
G01X10400Y75000D01*
G01X10381Y75117D01*
G01X10330Y75226D01*
G01X10250Y75311D01*
G01X10180Y75352D01*
G01X10180Y81423D01*
G01X10576Y81819D01*
G01X15000Y81819D01*
G01X15000Y81700D01*
G01X15003Y81669D01*
G01X15019Y81642D01*
G01X15042Y81619D01*
G01X15069Y81604D01*
G01X15100Y81600D01*
G01X15900Y81600D01*
G01X15930Y81604D01*
G01X15957Y81619D01*
G01X15980Y81642D01*
G01X15996Y81669D01*
G01X16000Y81700D01*
G01X16000Y81744D01*
G01X16319Y81423D01*
G01X16319Y68126D01*
G01X16284Y68046D01*
G01X16284Y67954D01*
G01X16322Y67869D01*
G01X16389Y67809D01*
G01X16477Y67782D01*
G37*
G36*
G01X19030Y85602D02*
G01X19146Y85628D01*
G01X19250Y85688D01*
G01X19330Y85773D01*
G01X19381Y85882D01*
G01X19400Y86000D01*
G01X19381Y86117D01*
G01X19330Y86226D01*
G01X19250Y86311D01*
G01X19146Y86371D01*
G01X19030Y86398D01*
G01X18910Y86390D01*
G01X18800Y86346D01*
G01X18706Y86271D01*
G01X18639Y86173D01*
G01X18603Y86059D01*
G01X18603Y85940D01*
G01X18639Y85826D01*
G01X18706Y85728D01*
G01X18800Y85654D01*
G01X18910Y85609D01*
G01X19030Y85602D01*
G37*
G36*
G01X21150Y75150D02*
G01X21365Y75150D01*
G01X21330Y75226D01*
G01X21250Y75311D01*
G01X21150Y75369D01*
G01X21150Y75150D01*
G37*
G36*
G01X12477Y87782D02*
G01X12568Y87790D01*
G01X12619Y87819D01*
G01X13377Y87819D01*
G01X13389Y87809D01*
G01X13477Y87782D01*
G01X13568Y87790D01*
G01X13647Y87836D01*
G01X13700Y87909D01*
G01X13719Y88000D01*
G01X13700Y88090D01*
G01X13647Y88163D01*
G01X13568Y88209D01*
G01X13477Y88217D01*
G01X13389Y88190D01*
G01X13377Y88180D01*
G01X12619Y88180D01*
G01X12568Y88209D01*
G01X12477Y88217D01*
G01X12389Y88190D01*
G01X12322Y88130D01*
G01X12284Y88046D01*
G01X12284Y87954D01*
G01X12322Y87869D01*
G01X12389Y87809D01*
G01X12477Y87782D01*
G37*
G36*
G01X12477Y88282D02*
G01X12568Y88290D01*
G01X12619Y88319D01*
G01X13377Y88319D01*
G01X13389Y88309D01*
G01X13477Y88282D01*
G01X13568Y88290D01*
G01X13647Y88336D01*
G01X13700Y88409D01*
G01X13719Y88500D01*
G01X13700Y88590D01*
G01X13647Y88663D01*
G01X13568Y88709D01*
G01X13477Y88717D01*
G01X13389Y88690D01*
G01X13377Y88680D01*
G01X12619Y88680D01*
G01X12568Y88709D01*
G01X12477Y88717D01*
G01X12389Y88690D01*
G01X12322Y88630D01*
G01X12284Y88546D01*
G01X12284Y88454D01*
G01X12322Y88369D01*
G01X12389Y88309D01*
G01X12477Y88282D01*
G37*
G36*
G01X20631Y75150D02*
G01X20850Y75150D01*
G01X20850Y75365D01*
G01X20800Y75346D01*
G01X20706Y75271D01*
G01X20639Y75173D01*
G01X20631Y75150D01*
G37*
G36*
G01X12477Y88782D02*
G01X12568Y88790D01*
G01X12619Y88819D01*
G01X13377Y88819D01*
G01X13389Y88809D01*
G01X13477Y88782D01*
G01X13568Y88790D01*
G01X13647Y88836D01*
G01X13700Y88909D01*
G01X13719Y89000D01*
G01X13700Y89090D01*
G01X13647Y89163D01*
G01X13568Y89209D01*
G01X13477Y89217D01*
G01X13389Y89190D01*
G01X13377Y89180D01*
G01X12619Y89180D01*
G01X12568Y89209D01*
G01X12477Y89217D01*
G01X12389Y89190D01*
G01X12322Y89130D01*
G01X12284Y89046D01*
G01X12284Y88954D01*
G01X12322Y88869D01*
G01X12389Y88809D01*
G01X12477Y88782D01*
G37*
G36*
G01X21150Y74630D02*
G01X21250Y74688D01*
G01X21330Y74773D01*
G01X21365Y74850D01*
G01X21150Y74850D01*
G01X21150Y74630D01*
G37*
G36*
G01X21150Y90630D02*
G01X21250Y90688D01*
G01X21330Y90773D01*
G01X21365Y90850D01*
G01X21150Y90850D01*
G01X21150Y90630D01*
G37*
G36*
G01X13150Y75150D02*
G01X13365Y75150D01*
G01X13330Y75226D01*
G01X13250Y75311D01*
G01X13150Y75369D01*
G01X13150Y75150D01*
G37*
G36*
G01X13150Y90630D02*
G01X13250Y90688D01*
G01X13330Y90773D01*
G01X13365Y90850D01*
G01X13150Y90850D01*
G01X13150Y90630D01*
G37*
G36*
G01X13150Y74630D02*
G01X13250Y74688D01*
G01X13330Y74773D01*
G01X13365Y74850D01*
G01X13150Y74850D01*
G01X13150Y74630D01*
G37*
G36*
G01X20850Y90634D02*
G01X20850Y90850D01*
G01X20631Y90850D01*
G01X20639Y90826D01*
G01X20706Y90728D01*
G01X20800Y90654D01*
G01X20850Y90634D01*
G37*
G36*
G01X12631Y75150D02*
G01X12850Y75150D01*
G01X12850Y75365D01*
G01X12800Y75346D01*
G01X12706Y75271D01*
G01X12639Y75173D01*
G01X12631Y75150D01*
G37*
G36*
G01X12850Y90634D02*
G01X12850Y90850D01*
G01X12631Y90850D01*
G01X12639Y90826D01*
G01X12706Y90728D01*
G01X12800Y90654D01*
G01X12850Y90634D01*
G37*

%LPD*%
G54D11*
G01X25500Y67000D02*
G01X25500Y56500D01*
G01X26000Y56000D01*
G01X26500Y56000D01*
G01X27000Y55500D01*
G01X27500Y55500D01*
G01X39500Y88000D02*
G01X38500Y88000D01*
G01X29000Y58500D02*
G01X29000Y58500D01*
G01X30000Y59500D01*
G01X32500Y59500D01*
G01X33500Y59500D01*
G01X27500Y56500D02*
G01X30000Y56500D01*
G01X32500Y54000D01*
G01X34000Y54000D01*
G01X34500Y54500D01*
G01X37500Y56500D02*
G01X37500Y56500D01*
G01X37500Y56500D01*
G01X37500Y56500D01*
G01X37000Y56000D01*
G01X36000Y56000D01*
G01X34500Y54500D01*
G01X39000Y92000D02*
G01X39000Y92484D01*
G01X39000Y94500D01*
G01X39500Y95000D01*
G01X41500Y94984D01*
G01X26000Y92000D02*
G01X26000Y92484D01*
G01X26000Y94500D01*
G01X26500Y95000D01*
G01X28500Y94984D01*
G01X13000Y92000D02*
G01X13000Y92484D01*
G01X13000Y94500D01*
G01X13500Y95000D01*
G01X15500Y94984D01*
G54D12*
G01X48000Y91000D02*
G01X48000Y75000D01*
G01X35000Y91000D02*
G01X35000Y75000D01*
G01X22000Y91000D02*
G01X22000Y75000D01*
G01X9000Y91000D02*
G01X9000Y75000D01*
G01X48000Y75000D02*
G01X48000Y66500D01*
G01X48500Y66000D01*
G01X52500Y66000D01*
G01X53000Y65500D01*
G01X53000Y62500D01*
G01X35000Y75000D02*
G01X35000Y66500D01*
G01X35500Y66000D01*
G01X48500Y66000D01*
G01X22000Y75000D02*
G01X22000Y68000D01*
G01X22500Y67500D01*
G01X34500Y67500D01*
G01X35000Y67148D01*
G01X35000Y66500D01*
G01X9000Y75000D02*
G01X9000Y68000D01*
G01X9500Y67500D01*
G01X22500Y67500D01*
G01X27500Y52500D02*
G01X27000Y52500D01*
G01X26500Y53000D01*
G01X26500Y54000D01*
G01X26000Y54500D01*
G01X24500Y54500D01*
G01X42500Y62500D02*
G01X42500Y60500D01*
G01X43000Y60000D01*
G01X45000Y60000D01*
G01X46000Y59500D01*
G01X46000Y58500D01*
G01X46119Y57259D01*
G01X46119Y57259D01*
G01X51000Y62500D02*
G01X51000Y61500D01*
G01X50500Y61000D01*
G01X47000Y61000D01*
G01X46500Y60500D01*
G01X46500Y58500D01*
G01X46119Y57259D01*
G01X44500Y62500D02*
G01X44500Y63000D01*
G01X44000Y63500D01*
G01X40500Y63500D01*
G01X40000Y63000D01*
G01X40000Y55000D01*
G01X39500Y54500D01*
G01X36500Y54500D01*
G01X36500Y54500D02*
G01X35000Y53000D01*
G01X29000Y53000D01*
G01X28500Y52500D01*
G54D11*
G01X44000Y91000D02*
G01X44000Y75000D01*
G01X31000Y91000D02*
G01X31000Y75000D01*
G01X18000Y91000D02*
G01X18000Y75000D01*
G01X5000Y91000D02*
G01X5000Y75000D01*
G01X5000Y91000D02*
G01X5000Y91000D01*
G01X5500Y91500D01*
G01X17500Y91500D01*
G01X18000Y91000D01*
G01X18000Y91000D01*
G01X18000Y91000D02*
G01X18000Y91000D01*
G01X18500Y91500D01*
G01X30500Y91500D01*
G01X31000Y91000D01*
G01X31000Y91000D01*
G01X31000Y91000D02*
G01X31000Y91000D01*
G01X31500Y91500D01*
G01X43500Y91500D01*
G01X44000Y91000D01*
G01X44000Y91000D01*
G01X46000Y91000D02*
G01X46000Y75000D01*
G01X33000Y91000D02*
G01X33000Y75000D01*
G01X20000Y91000D02*
G01X20000Y75000D01*
G01X7000Y91000D02*
G01X7000Y75000D01*
G01X20000Y75000D02*
G01X20000Y68000D01*
G01X36500Y58500D02*
G01X37000Y58500D01*
G01X37500Y59000D01*
G01X37500Y65000D01*
G01X37000Y65500D01*
G01X33500Y65500D01*
G01X36000Y92000D02*
G01X36000Y95500D01*
G01X36500Y96000D01*
G01X41500Y96000D01*
G01X49000Y91000D02*
G01X49000Y95500D01*
G01X49500Y96000D01*
G01X54500Y96000D01*
G01X23000Y92000D02*
G01X23000Y95500D01*
G01X23500Y96000D01*
G01X28500Y96000D01*
G01X10000Y92000D02*
G01X10000Y95500D01*
G01X10500Y96000D01*
G01X15500Y96000D01*
G01X49000Y75000D02*
G01X49000Y81500D01*
G01X49500Y82000D01*
G01X54500Y82000D01*
G01X36000Y75000D02*
G01X36000Y81500D01*
G01X36500Y82000D01*
G01X41500Y82000D01*
G01X23000Y75000D02*
G01X23000Y81500D01*
G01X23500Y82000D01*
G01X28500Y82000D01*
G01X10000Y75000D02*
G01X10000Y81500D01*
G01X10500Y82000D01*
G01X15500Y82000D01*
G01X28500Y82000D02*
G01X29000Y82000D01*
G01X29500Y81500D01*
G01X29500Y68000D01*
G01X23000Y91000D02*
G01X23000Y89929D01*
G01X23500Y89500D01*
G01X29500Y89500D01*
G01X30000Y89000D01*
G01X30000Y68000D01*
G01X10000Y91000D02*
G01X10000Y90000D01*
G01X10500Y89500D01*
G01X16500Y89500D01*
G01X17000Y89000D01*
G01X17000Y68000D01*
G01X15500Y82000D02*
G01X16000Y82000D01*
G01X16500Y81500D01*
G01X16500Y71000D01*
G01X16500Y68000D01*
G01X31000Y75000D02*
G01X31000Y68000D01*
G01X36000Y91000D02*
G01X36000Y90000D01*
G01X36500Y89500D01*
G01X42500Y89500D01*
G01X43000Y89000D01*
G01X43000Y73500D01*
G01X42500Y73000D01*
G01X39000Y73000D01*
G01X38500Y72500D01*
G01X38500Y67500D01*
G01X41500Y82000D02*
G01X42000Y82000D01*
G01X42500Y81500D01*
G01X42500Y74000D01*
G01X42000Y73500D01*
G01X38500Y73500D01*
G01X38000Y73000D01*
G01X38000Y67500D01*
G01X49000Y91000D02*
G01X49000Y90000D01*
G01X49500Y89500D01*
G01X55500Y89500D01*
G01X56000Y89000D01*
G01X56000Y70500D01*
G01X55500Y70000D01*
G01X48500Y70000D01*
G01X54500Y82000D02*
G01X55000Y82000D01*
G01X55500Y81500D01*
G01X55500Y71000D01*
G01X55000Y70500D01*
G01X48500Y70500D01*
G01X31000Y64000D02*
G01X31000Y64000D01*
G01X30500Y63740D01*
G01X30500Y62000D01*
G01X30000Y61500D01*
G01X27500Y61500D01*
G01X35000Y64500D02*
G01X34500Y64000D01*
G01X34500Y62500D01*
G01X34000Y62000D01*
G01X32000Y62000D01*
G01X27500Y57500D01*
G01X30000Y67000D02*
G01X30000Y63000D01*
G01X29500Y62500D01*
G01X27500Y62500D01*
G01X29500Y67000D02*
G01X29000Y66500D01*
G01X27000Y66500D01*
G01X26500Y66000D01*
G01X26500Y59500D01*
G01X27500Y58500D01*
G54D12*
G01X28500Y52500D02*
G01X28500Y52500D01*
G01X27500Y52500D01*
G54D11*
G01X53000Y61000D02*
G01X52500Y61500D01*
G01X32000Y75000D02*
G01X32000Y68000D01*
G01X34500Y65000D02*
G01X35000Y65000D01*
G01X35500Y64500D01*
G01X35500Y62000D01*
G01X35000Y61500D01*
G01X34000Y61500D01*
G01X34000Y61500D01*
G01X33500Y61500D01*
G01X26000Y58500D02*
G01X26000Y58500D01*
G01X26500Y58000D01*
G01X26500Y57500D01*
G01X27000Y57000D01*
G01X32000Y57000D01*
G01X32500Y56500D01*
G01X33500Y56500D01*
G01X13500Y88500D02*
G01X13500Y88500D01*
G01X12500Y88500D01*
G01X5500Y61000D02*
G01X17000Y61000D01*
G01X13500Y88000D02*
G01X12500Y88000D01*
G01X5500Y62000D02*
G01X17000Y62000D01*
G01X13500Y89000D02*
G01X12500Y89000D01*
G01X26500Y88000D02*
G01X25500Y88000D01*
G01X26500Y88500D02*
G01X25500Y88500D01*
G01X19000Y75000D02*
G01X19000Y73500D01*
G01X19000Y72500D01*
G01X36500Y65000D02*
G01X36500Y62000D01*
G01X36500Y61000D01*
G01X36000Y60500D01*
G01X33500Y60500D01*
G01X45000Y75000D02*
G01X45000Y73000D01*
G01X44500Y72500D01*
G01X39000Y72500D01*
G01X26000Y72500D02*
G01X25500Y72000D01*
G01X25500Y68000D01*
G54D15*
G01X33500Y52500D03*
G01X33500Y53500D03*
G01X33500Y54500D03*
G01X33500Y55500D03*
G01X33500Y56500D03*
G01X33500Y57500D03*
G01X33500Y58500D03*
G01X33500Y59500D03*
G01X33500Y60500D03*
G01X33500Y61500D03*
G01X33500Y62500D03*
G01X33500Y63500D03*
G01X33500Y64500D03*
G01X33500Y65500D03*
G01X27500Y65500D03*
G01X27500Y64500D03*
G01X27500Y63500D03*
G01X27500Y62500D03*
G01X27500Y61500D03*
G01X27500Y60500D03*
G01X27500Y59500D03*
G01X27500Y58500D03*
G01X27500Y57500D03*
G01X27500Y56500D03*
G01X27500Y55500D03*
G01X27500Y54500D03*
G01X27500Y53500D03*
G01X27500Y52500D03*
G54D17*
G01X28500Y94984D03*
G01X28500Y96000D03*
G01X28500Y97015D03*
G01X41500Y94984D03*
G01X41500Y96000D03*
G01X41500Y97015D03*
G01X54500Y94984D03*
G01X54500Y96000D03*
G01X54500Y97015D03*
G01X15500Y80984D03*
G01X15500Y82000D03*
G01X15500Y83015D03*
G01X28500Y80984D03*
G01X28500Y82000D03*
G01X28500Y83015D03*
G01X41500Y80984D03*
G01X41500Y82000D03*
G01X41500Y83015D03*
G01X54500Y80984D03*
G01X54500Y82000D03*
G01X54500Y83015D03*
G01X15500Y94984D03*
G01X15500Y96000D03*
G01X15500Y97015D03*
G54D15*
G01X36500Y59500D03*
G01X36500Y58500D03*
G01X36500Y57500D03*
G01X36500Y56500D03*
G01X36500Y55500D03*
G54D18*
G01X36500Y54500D03*
G01X24500Y54500D03*
G54D15*
G01X24500Y55500D03*
G01X24500Y56500D03*
G01X24500Y57500D03*
G01X13000Y91000D03*
G01X12000Y91000D03*
G01X11000Y91000D03*
G01X10000Y91000D03*
G01X9000Y91000D03*
G01X8000Y91000D03*
G01X7000Y91000D03*
G01X6000Y91000D03*
G01X5000Y91000D03*
G01X7000Y102000D03*
G01X6000Y102000D03*
G01X5000Y102000D03*
G01X26000Y91000D03*
G01X25000Y91000D03*
G01X24000Y91000D03*
G01X23000Y91000D03*
G01X22000Y91000D03*
G01X21000Y91000D03*
G01X20000Y91000D03*
G01X19000Y91000D03*
G01X18000Y91000D03*
G01X20000Y102000D03*
G01X19000Y102000D03*
G01X18000Y102000D03*
G01X39000Y91000D03*
G01X38000Y91000D03*
G01X37000Y91000D03*
G01X36000Y91000D03*
G01X35000Y91000D03*
G01X34000Y91000D03*
G01X33000Y91000D03*
G01X32000Y91000D03*
G01X31000Y91000D03*
G01X33000Y102000D03*
G01X32000Y102000D03*
G01X31000Y102000D03*
G01X52000Y91000D03*
G01X51000Y91000D03*
G01X50000Y91000D03*
G01X49000Y91000D03*
G01X48000Y91000D03*
G01X47000Y91000D03*
G01X46000Y91000D03*
G01X45000Y91000D03*
G01X44000Y91000D03*
G01X46000Y102000D03*
G01X45000Y102000D03*
G01X44000Y102000D03*
G01X13000Y75000D03*
G01X12000Y75000D03*
G01X11000Y75000D03*
G01X10000Y75000D03*
G01X9000Y75000D03*
G01X8000Y75000D03*
G01X7000Y75000D03*
G01X6000Y75000D03*
G01X5000Y75000D03*
G01X7000Y86000D03*
G01X6000Y86000D03*
G01X5000Y86000D03*
G01X26000Y75000D03*
G01X25000Y75000D03*
G01X24000Y75000D03*
G01X23000Y75000D03*
G01X22000Y75000D03*
G01X21000Y75000D03*
G01X20000Y75000D03*
G01X19000Y75000D03*
G01X18000Y75000D03*
G01X20000Y86000D03*
G01X19000Y86000D03*
G01X18000Y86000D03*
G01X39000Y75000D03*
G01X38000Y75000D03*
G01X37000Y75000D03*
G01X36000Y75000D03*
G01X35000Y75000D03*
G01X34000Y75000D03*
G01X33000Y75000D03*
G01X32000Y75000D03*
G01X31000Y75000D03*
G01X33000Y86000D03*
G01X32000Y86000D03*
G01X31000Y86000D03*
G01X52000Y75000D03*
G01X51000Y75000D03*
G01X50000Y75000D03*
G01X49000Y75000D03*
G01X48000Y75000D03*
G01X47000Y75000D03*
G01X46000Y75000D03*
G01X45000Y75000D03*
G01X44000Y75000D03*
G01X46000Y86000D03*
G01X45000Y86000D03*
G01X44000Y86000D03*
G54D19*
G01X46119Y57259D03*
G01X48869Y57259D03*
G54D20*
G01X54700Y62800D03*
G01X49300Y68200D03*
G54D22*
G01X49000Y62500D03*
G01X50000Y62500D03*
G01X51000Y62500D03*
G54D24*
G01X52000Y62500D03*
G54D22*
G01X53000Y62500D03*
G54D24*
G01X49000Y67000D03*
G01X40500Y67000D03*
G54D22*
G01X44500Y62500D03*
G54D24*
G01X43500Y62500D03*
G54D22*
G01X42500Y62500D03*
G01X41500Y62500D03*
G01X40500Y62500D03*
G54D20*
G01X40800Y68200D03*
G01X46200Y62800D03*
G54D25*
G01X55000Y102500D03*
G01X2000Y102500D03*
G01X55000Y53500D03*
G01X2000Y53500D03*
G54D13*
G01X45269Y58259D03*
G01X45602Y58261D03*
G01X45938Y58261D03*
G01X46271Y58261D03*
G01X46602Y58261D03*
G01X45271Y57594D03*
G01X45604Y57596D03*
G01X45939Y57596D03*
G01X46272Y57596D03*
G01X46604Y57596D03*
G01X45271Y56928D03*
G01X45604Y56929D03*
G01X45939Y56929D03*
G01X46272Y56929D03*
G01X46604Y56929D03*
G01X45272Y56261D03*
G01X45605Y56263D03*
G01X45939Y56263D03*
G01X46272Y56263D03*
G01X46605Y56263D03*
G01X46969Y58259D03*
G01X46971Y57594D03*
G01X46971Y56928D03*
G01X46972Y56261D03*
G01X48019Y58259D03*
G01X48352Y58261D03*
G01X48688Y58261D03*
G01X49021Y58261D03*
G01X49352Y58261D03*
G01X48021Y57594D03*
G01X48354Y57596D03*
G01X48689Y57596D03*
G01X49022Y57596D03*
G01X49354Y57596D03*
G01X48021Y56928D03*
G01X48354Y56929D03*
G01X48689Y56929D03*
G01X49022Y56929D03*
G01X49354Y56929D03*
G01X48022Y56261D03*
G01X48355Y56263D03*
G01X48689Y56263D03*
G01X49022Y56263D03*
G01X49355Y56263D03*
G01X49719Y58259D03*
G01X49721Y57594D03*
G01X49721Y56928D03*
G01X49722Y56261D03*
G54D14*
G01X31000Y68000D03*
G01X20000Y68000D03*
G01X36000Y92000D03*
G01X23000Y92000D03*
G01X10000Y92000D03*
G01X29500Y68000D03*
G01X30000Y68000D03*
G01X17000Y68000D03*
G01X16500Y68000D03*
G01X38000Y67500D03*
G01X38500Y67500D03*
G01X31000Y64000D03*
G01X35000Y64500D03*
G01X30000Y67000D03*
G01X29500Y67000D03*
G01X29000Y58500D03*
G01X48500Y70500D03*
G01X48500Y70000D03*
G01X37500Y56500D03*
G01X32000Y68000D03*
G01X34500Y65000D03*
G01X26000Y58500D03*
G01X13500Y89000D03*
G01X12500Y89000D03*
G01X26500Y88500D03*
G01X25500Y88500D03*
G01X5500Y61000D03*
G01X17000Y61000D03*
G01X17000Y62000D03*
G01X5500Y62000D03*
G01X13500Y88500D03*
G01X12500Y88500D03*
G01X12500Y88000D03*
G01X13500Y88000D03*
G01X26500Y88000D03*
G01X25500Y88000D03*
G01X39500Y88000D03*
G01X38500Y88000D03*
G01X19000Y72500D03*
G01X36500Y65000D03*
G01X39000Y72500D03*
G01X26000Y72500D03*
G01X25500Y68000D03*
G01X25500Y67000D03*
G01X34500Y62000D03*
G01X36000Y62000D03*
G01X27000Y57500D03*
G54D15*
G01X33500Y52500D03*
G01X33500Y53500D03*
G01X33500Y54500D03*
G01X33500Y55500D03*
G01X33500Y56500D03*
G01X33500Y57500D03*
G01X33500Y58500D03*
G01X33500Y59500D03*
G01X33500Y60500D03*
G01X33500Y61500D03*
G01X33500Y62500D03*
G01X33500Y63500D03*
G01X33500Y64500D03*
G01X33500Y65500D03*
G01X27500Y65500D03*
G01X27500Y64500D03*
G01X27500Y63500D03*
G01X27500Y62500D03*
G01X27500Y61500D03*
G01X27500Y60500D03*
G01X27500Y59500D03*
G01X27500Y58500D03*
G01X27500Y57500D03*
G01X27500Y56500D03*
G01X27500Y55500D03*
G01X27500Y54500D03*
G01X27500Y53500D03*
G01X27500Y52500D03*
G54D17*
G01X28500Y94984D03*
G01X28500Y96000D03*
G01X28500Y97015D03*
G01X41500Y94984D03*
G01X41500Y96000D03*
G01X41500Y97015D03*
G01X54500Y94984D03*
G01X54500Y96000D03*
G01X54500Y97015D03*
G01X15500Y80984D03*
G01X15500Y82000D03*
G01X15500Y83015D03*
G01X28500Y80984D03*
G01X28500Y82000D03*
G01X28500Y83015D03*
G01X41500Y80984D03*
G01X41500Y82000D03*
G01X41500Y83015D03*
G01X54500Y80984D03*
G01X54500Y82000D03*
G01X54500Y83015D03*
G01X15500Y94984D03*
G01X15500Y96000D03*
G01X15500Y97015D03*
G54D15*
G01X36500Y59500D03*
G01X36500Y58500D03*
G01X36500Y57500D03*
G01X36500Y56500D03*
G01X36500Y55500D03*
G54D18*
G01X36500Y54500D03*
G01X24500Y54500D03*
G54D15*
G01X24500Y55500D03*
G01X24500Y56500D03*
G01X24500Y57500D03*
G01X13000Y91000D03*
G01X12000Y91000D03*
G01X11000Y91000D03*
G01X10000Y91000D03*
G01X9000Y91000D03*
G01X8000Y91000D03*
G01X7000Y91000D03*
G01X6000Y91000D03*
G01X5000Y91000D03*
G01X7000Y102000D03*
G01X6000Y102000D03*
G01X5000Y102000D03*
G01X26000Y91000D03*
G01X25000Y91000D03*
G01X24000Y91000D03*
G01X23000Y91000D03*
G01X22000Y91000D03*
G01X21000Y91000D03*
G01X20000Y91000D03*
G01X19000Y91000D03*
G01X18000Y91000D03*
G01X20000Y102000D03*
G01X19000Y102000D03*
G01X18000Y102000D03*
G01X39000Y91000D03*
G01X38000Y91000D03*
G01X37000Y91000D03*
G01X36000Y91000D03*
G01X35000Y91000D03*
G01X34000Y91000D03*
G01X33000Y91000D03*
G01X32000Y91000D03*
G01X31000Y91000D03*
G01X33000Y102000D03*
G01X32000Y102000D03*
G01X31000Y102000D03*
G01X52000Y91000D03*
G01X51000Y91000D03*
G01X50000Y91000D03*
G01X49000Y91000D03*
G01X48000Y91000D03*
G01X47000Y91000D03*
G01X46000Y91000D03*
G01X45000Y91000D03*
G01X44000Y91000D03*
G01X46000Y102000D03*
G01X45000Y102000D03*
G01X44000Y102000D03*
G01X13000Y75000D03*
G01X12000Y75000D03*
G01X11000Y75000D03*
G01X10000Y75000D03*
G01X9000Y75000D03*
G01X8000Y75000D03*
G01X7000Y75000D03*
G01X6000Y75000D03*
G01X5000Y75000D03*
G01X7000Y86000D03*
G01X6000Y86000D03*
G01X5000Y86000D03*
G01X26000Y75000D03*
G01X25000Y75000D03*
G01X24000Y75000D03*
G01X23000Y75000D03*
G01X22000Y75000D03*
G01X21000Y75000D03*
G01X20000Y75000D03*
G01X19000Y75000D03*
G01X18000Y75000D03*
G01X20000Y86000D03*
G01X19000Y86000D03*
G01X18000Y86000D03*
G01X39000Y75000D03*
G01X38000Y75000D03*
G01X37000Y75000D03*
G01X36000Y75000D03*
G01X35000Y75000D03*
G01X34000Y75000D03*
G01X33000Y75000D03*
G01X32000Y75000D03*
G01X31000Y75000D03*
G01X33000Y86000D03*
G01X32000Y86000D03*
G01X31000Y86000D03*
G01X52000Y75000D03*
G01X51000Y75000D03*
G01X50000Y75000D03*
G01X49000Y75000D03*
G01X48000Y75000D03*
G01X47000Y75000D03*
G01X46000Y75000D03*
G01X45000Y75000D03*
G01X44000Y75000D03*
G01X46000Y86000D03*
G01X45000Y86000D03*
G01X44000Y86000D03*
G54D19*
G01X46119Y57259D03*
G01X48869Y57259D03*
G54D20*
G01X54700Y62800D03*
G01X49300Y68200D03*
G54D22*
G01X49000Y62500D03*
G01X50000Y62500D03*
G01X51000Y62500D03*
G54D24*
G01X52000Y62500D03*
G54D22*
G01X53000Y62500D03*
G54D24*
G01X49000Y67000D03*
G01X40500Y67000D03*
G54D22*
G01X44500Y62500D03*
G54D24*
G01X43500Y62500D03*
G54D22*
G01X42500Y62500D03*
G01X41500Y62500D03*
G01X40500Y62500D03*
G54D20*
G01X40800Y68200D03*
G01X46200Y62800D03*
G54D25*
G01X55000Y102500D03*
G01X2000Y102500D03*
G01X55000Y53500D03*
G01X2000Y53500D03*

M00*
M02*