;PTH Drill file created by EasyEDA 
M48
;Holesize 1 = 0.012 INCH
T01C0.012
;Holesize 2 = 0.038 INCH
T02C0.038
;Holesize 3 = 0.015 INCH
T03C0.015
;Holesize 4 = 0.130 INCH
T04C0.130
INCH,00.0000
%
G05
G90
T01
X019600Y112800
X019600Y112200
X018400Y112800
X018400Y112200
X018400Y112500
X019600Y112500
X032600Y112800
X032600Y112200
X031400Y112800
X031400Y112200
X031400Y112500
X032600Y112500
X045600Y112800
X045600Y112200
X044400Y112800
X044400Y112200
X044400Y112500
X045600Y112500
X006600Y094800
X006600Y094200
X005400Y094800
X005400Y094200
X005400Y094500
X006600Y094500
X019600Y094800
X019600Y094200
X018400Y094800
X018400Y094200
X018400Y094500
X019600Y094500
X032600Y094800
X032600Y094200
X031400Y094800
X031400Y094200
X031400Y094500
X032600Y094500
X045600Y094800
X045600Y094200
X044400Y094800
X044400Y094200
X044400Y094500
X045600Y094500
X006600Y112800
X006600Y112200
X005400Y112800
X005400Y112200
X005400Y112500
X006600Y112500
X011200Y099700
X011000Y099550
X010800Y099700
X010800Y100300
X011000Y100450
X011200Y100300
X013200Y099700
X013000Y099550
X012800Y099700
X012800Y100300
X013000Y100450
X013200Y100300
X012200Y099700
X012000Y099550
X011800Y099700
X011800Y100300
X012000Y100450
X012200Y100300
X010200Y099700
X010000Y099550
X009800Y099700
X009800Y100300
X010000Y100450
X010200Y100300
X009200Y099700
X009000Y099550
X008800Y099700
X008800Y100300
X009000Y100450
X009200Y100300
X008200Y099700
X008000Y099550
X007800Y099700
X007800Y100300
X008000Y100450
X008200Y100300
X007200Y099700
X007000Y099550
X006800Y099700
X006800Y100300
X007000Y100450
X007200Y100300
X006200Y099700
X006000Y099550
X005800Y099700
X005800Y100300
X006000Y100450
X006200Y100300
X005200Y099700
X005000Y099550
X004800Y099700
X004800Y100300
X005000Y100450
X005200Y100300
X005200Y110700
X005000Y110550
X004800Y110700
X004800Y111300
X005000Y111450
X005200Y111300
X007200Y110700
X007000Y110550
X006800Y110700
X006800Y111300
X007000Y111450
X007200Y111300
X024200Y099700
X024000Y099550
X023800Y099700
X023800Y100300
X024000Y100450
X024200Y100300
X026200Y099700
X026000Y099550
X025800Y099700
X025800Y100300
X026000Y100450
X026200Y100300
X025200Y099700
X025000Y099550
X024800Y099700
X024800Y100300
X025000Y100450
X025200Y100300
X023200Y099700
X023000Y099550
X022800Y099700
X022800Y100300
X023000Y100450
X023200Y100300
X022200Y099700
X022000Y099550
X021800Y099700
X021800Y100300
X022000Y100450
X022200Y100300
X021200Y099700
X021000Y099550
X020800Y099700
X020800Y100300
X021000Y100450
X021200Y100300
X020200Y099700
X020000Y099550
X019800Y099700
X019800Y100300
X020000Y100450
X020200Y100300
X019200Y099700
X019000Y099550
X018800Y099700
X018800Y100300
X019000Y100450
X019200Y100300
X018200Y099700
X018000Y099550
X017800Y099700
X017800Y100300
X018000Y100450
X018200Y100300
X018200Y110700
X018000Y110550
X017800Y110700
X017800Y111300
X018000Y111450
X018200Y111300
X020200Y110700
X020000Y110550
X019800Y110700
X019800Y111300
X020000Y111450
X020200Y111300
X037200Y099700
X037000Y099550
X036800Y099700
X036800Y100300
X037000Y100450
X037200Y100300
X039200Y099700
X039000Y099550
X038800Y099700
X038800Y100300
X039000Y100450
X039200Y100300
X038200Y099700
X038000Y099550
X037800Y099700
X037800Y100300
X038000Y100450
X038200Y100300
X036200Y099700
X036000Y099550
X035800Y099700
X035800Y100300
X036000Y100450
X036200Y100300
X035200Y099700
X035000Y099550
X034800Y099700
X034800Y100300
X035000Y100450
X035200Y100300
X034200Y099700
X034000Y099550
X033800Y099700
X033800Y100300
X034000Y100450
X034200Y100300
X033200Y099700
X033000Y099550
X032800Y099700
X032800Y100300
X033000Y100450
X033200Y100300
X032200Y099700
X032000Y099550
X031800Y099700
X031800Y100300
X032000Y100450
X032200Y100300
X031200Y099700
X031000Y099550
X030800Y099700
X030800Y100300
X031000Y100450
X031200Y100300
X031200Y110700
X031000Y110550
X030800Y110700
X030800Y111300
X031000Y111450
X031200Y111300
X033200Y110700
X033000Y110550
X032800Y110700
X032800Y111300
X033000Y111450
X033200Y111300
X050200Y099700
X050000Y099550
X049800Y099700
X049800Y100300
X050000Y100450
X050200Y100300
X052200Y099700
X052000Y099550
X051800Y099700
X051800Y100300
X052000Y100450
X052200Y100300
X051200Y099700
X051000Y099550
X050800Y099700
X050800Y100300
X051000Y100450
X051200Y100300
X049200Y099700
X049000Y099550
X048800Y099700
X048800Y100300
X049000Y100450
X049200Y100300
X048200Y099700
X048000Y099550
X047800Y099700
X047800Y100300
X048000Y100450
X048200Y100300
X047200Y099700
X047000Y099550
X046800Y099700
X046800Y100300
X047000Y100450
X047200Y100300
X046200Y099700
X046000Y099550
X045800Y099700
X045800Y100300
X046000Y100450
X046200Y100300
X045200Y099700
X045000Y099550
X044800Y099700
X044800Y100300
X045000Y100450
X045200Y100300
X044200Y099700
X044000Y099550
X043800Y099700
X043800Y100300
X044000Y100450
X044200Y100300
X044200Y110700
X044000Y110550
X043800Y110700
X043800Y111300
X044000Y111450
X044200Y111300
X046200Y110700
X046000Y110550
X045800Y110700
X045800Y111300
X046000Y111450
X046200Y111300
X011200Y081700
X011000Y081550
X010800Y081700
X010800Y082300
X011000Y082450
X011200Y082300
X013200Y081700
X013000Y081550
X012800Y081700
X012800Y082300
X013000Y082450
X013200Y082300
X012200Y081700
X012000Y081550
X011800Y081700
X011800Y082300
X012000Y082450
X012200Y082300
X010200Y081700
X010000Y081550
X009800Y081700
X009800Y082300
X010000Y082450
X010200Y082300
X009200Y081700
X009000Y081550
X008800Y081700
X008800Y082300
X009000Y082450
X009200Y082300
X008200Y081700
X008000Y081550
X007800Y081700
X007800Y082300
X008000Y082450
X008200Y082300
X007200Y081700
X007000Y081550
X006800Y081700
X006800Y082300
X007000Y082450
X007200Y082300
X006200Y081700
X006000Y081550
X005800Y081700
X005800Y082300
X006000Y082450
X006200Y082300
X005200Y081700
X005000Y081550
X004800Y081700
X004800Y082300
X005000Y082450
X005200Y082300
X005200Y092700
X005000Y092550
X004800Y092700
X004800Y093300
X005000Y093450
X005200Y093300
X007200Y092700
X007000Y092550
X006800Y092700
X006800Y093300
X007000Y093450
X007200Y093300
X024200Y081700
X024000Y081550
X023800Y081700
X023800Y082300
X024000Y082450
X024200Y082300
X026200Y081700
X026000Y081550
X025800Y081700
X025800Y082300
X026000Y082450
X026200Y082300
X025200Y081700
X025000Y081550
X024800Y081700
X024800Y082300
X025000Y082450
X025200Y082300
X023200Y081700
X023000Y081550
X022800Y081700
X022800Y082300
X023000Y082450
X023200Y082300
X022200Y081700
X022000Y081550
X021800Y081700
X021800Y082300
X022000Y082450
X022200Y082300
X021200Y081700
X021000Y081550
X020800Y081700
X020800Y082300
X021000Y082450
X021200Y082300
X020200Y081700
X020000Y081550
X019800Y081700
X019800Y082300
X020000Y082450
X020200Y082300
X019200Y081700
X019000Y081550
X018800Y081700
X018800Y082300
X019000Y082450
X019200Y082300
X018200Y081700
X018000Y081550
X017800Y081700
X017800Y082300
X018000Y082450
X018200Y082300
X018200Y092700
X018000Y092550
X017800Y092700
X017800Y093300
X018000Y093450
X018200Y093300
X020200Y092700
X020000Y092550
X019800Y092700
X019800Y093300
X020000Y093450
X020200Y093300
X037200Y081700
X037000Y081550
X036800Y081700
X036800Y082300
X037000Y082450
X037200Y082300
X039200Y081700
X039000Y081550
X038800Y081700
X038800Y082300
X039000Y082450
X039200Y082300
X038200Y081700
X038000Y081550
X037800Y081700
X037800Y082300
X038000Y082450
X038200Y082300
X036200Y081700
X036000Y081550
X035800Y081700
X035800Y082300
X036000Y082450
X036200Y082300
X035200Y081700
X035000Y081550
X034800Y081700
X034800Y082300
X035000Y082450
X035200Y082300
X034200Y081700
X034000Y081550
X033800Y081700
X033800Y082300
X034000Y082450
X034200Y082300
X033200Y081700
X033000Y081550
X032800Y081700
X032800Y082300
X033000Y082450
X033200Y082300
X032200Y081700
X032000Y081550
X031800Y081700
X031800Y082300
X032000Y082450
X032200Y082300
X031200Y081700
X031000Y081550
X030800Y081700
X030800Y082300
X031000Y082450
X031200Y082300
X031200Y092700
X031000Y092550
X030800Y092700
X030800Y093300
X031000Y093450
X031200Y093300
X033200Y092700
X033000Y092550
X032800Y092700
X032800Y093300
X033000Y093450
X033200Y093300
X050200Y081700
X050000Y081550
X049800Y081700
X049800Y082300
X050000Y082450
X050200Y082300
X052200Y081700
X052000Y081550
X051800Y081700
X051800Y082300
X052000Y082450
X052200Y082300
X051200Y081700
X051000Y081550
X050800Y081700
X050800Y082300
X051000Y082450
X051200Y082300
X049200Y081700
X049000Y081550
X048800Y081700
X048800Y082300
X049000Y082450
X049200Y082300
X048200Y081700
X048000Y081550
X047800Y081700
X047800Y082300
X048000Y082450
X048200Y082300
X047200Y081700
X047000Y081550
X046800Y081700
X046800Y082300
X047000Y082450
X047200Y082300
X046200Y081700
X046000Y081550
X045800Y081700
X045800Y082300
X046000Y082450
X046200Y082300
X045200Y081700
X045000Y081550
X044800Y081700
X044800Y082300
X045000Y082450
X045200Y082300
X044200Y081700
X044000Y081550
X043800Y081700
X043800Y082300
X044000Y082450
X044200Y082300
X044200Y092700
X044000Y092550
X043800Y092700
X043800Y093300
X044000Y093450
X044200Y093300
X046200Y092700
X046000Y092550
X045800Y092700
X045800Y093300
X046000Y093450
X046200Y093300
X031000Y078500
X020000Y078500
X036000Y101500
X023000Y101500
X010000Y101500
X029500Y078500
X030000Y078500
X017000Y078500
X016500Y078500
X037000Y078500
X037500Y078500
X037500Y073500
X037000Y072000
X030000Y072000
X029500Y072000
X029000Y063500
X048500Y079000
X048500Y078500
X032000Y078500
X034500Y070000
X026500Y063500
X005500Y066000
X017000Y066000
X017000Y067000
X005500Y067000
X019000Y079500
X036500Y070000
X036000Y077500
X043000Y100500
X043000Y101500
X030000Y101500
X030000Y100500
X017000Y101500
X017000Y100500
X032500Y074500
X038500Y064000
X038000Y063000
X038000Y068000
X039500Y073000
X038500Y074000
T02
X033500Y057500
X033500Y058500
X033500Y059500
X033500Y060500
X033500Y061500
X033500Y062500
X033500Y063500
X033500Y064500
X033500Y065500
X033500Y066500
X033500Y067500
X033500Y068500
X033500Y069500
X033500Y070500
X027500Y070500
X027500Y069500
X027500Y068500
X027500Y067500
X027500Y066500
X027500Y065500
X027500Y064500
X027500Y063500
X027500Y062500
X027500Y061500
X027500Y060500
X027500Y059500
X027500Y058500
X027500Y057500
X028500Y104000
X028500Y105000
X028500Y106000
X041500Y104000
X041500Y105000
X041500Y106000
X054500Y104000
X054500Y105000
X054500Y106000
X015500Y086000
X015500Y087000
X015500Y088000
X028500Y086000
X028500Y087000
X028500Y088000
X041500Y086000
X041500Y087000
X041500Y088000
X054500Y086000
X054500Y087000
X054500Y088000
X015500Y104000
X015500Y105000
X015500Y106000
X041500Y060500
X041500Y061500
X041500Y059500
X041500Y062500
X041500Y063500
X041500Y064500
X024500Y060500
X024500Y061500
X024500Y059500
X024500Y062500
X013000Y100000
X012000Y100000
X011000Y100000
X010000Y100000
X009000Y100000
X008000Y100000
X007000Y100000
X006000Y100000
X005000Y100000
X007000Y111000
X005000Y111000
X026000Y100000
X025000Y100000
X024000Y100000
X023000Y100000
X022000Y100000
X021000Y100000
X020000Y100000
X019000Y100000
X018000Y100000
X020000Y111000
X018000Y111000
X039000Y100000
X038000Y100000
X037000Y100000
X036000Y100000
X035000Y100000
X034000Y100000
X033000Y100000
X032000Y100000
X031000Y100000
X033000Y111000
X031000Y111000
X052000Y100000
X051000Y100000
X050000Y100000
X049000Y100000
X048000Y100000
X047000Y100000
X046000Y100000
X045000Y100000
X044000Y100000
X046000Y111000
X044000Y111000
X013000Y082000
X012000Y082000
X011000Y082000
X010000Y082000
X009000Y082000
X008000Y082000
X007000Y082000
X006000Y082000
X005000Y082000
X007000Y093000
X005000Y093000
X026000Y082000
X025000Y082000
X024000Y082000
X023000Y082000
X022000Y082000
X021000Y082000
X020000Y082000
X019000Y082000
X018000Y082000
X020000Y093000
X018000Y093000
X039000Y082000
X038000Y082000
X037000Y082000
X036000Y082000
X035000Y082000
X034000Y082000
X033000Y082000
X032000Y082000
X031000Y082000
X033000Y093000
X031000Y093000
X052000Y082000
X051000Y082000
X050000Y082000
X049000Y082000
X048000Y082000
X047000Y082000
X046000Y082000
X045000Y082000
X044000Y082000
X046000Y093000
X044000Y093000
X049000Y067500
X050000Y067500
X051000Y067500
X052000Y067500
X053000Y067500
X040500Y067500
X041500Y067500
X042500Y067500
X043500Y067500
X044500Y067500
T03
X045275Y063375
X045607Y063376
X045943Y063376
X046276Y063376
X046607Y063376
X045276Y062709
X045609Y062711
X045943Y062711
X046277Y062711
X046609Y062711
X045276Y062042
X045609Y062044
X045943Y062044
X046277Y062044
X046609Y062044
X045277Y061377
X045610Y061378
X045944Y061378
X046277Y061378
X046610Y061378
X046975Y063375
X046976Y062709
X046976Y062042
X046977Y061377
X048025Y063375
X048357Y063376
X048693Y063376
X049026Y063376
X049357Y063376
X048026Y062709
X048359Y062711
X048693Y062711
X049027Y062711
X049359Y062711
X048026Y062042
X048359Y062044
X048693Y062044
X049027Y062044
X049359Y062044
X048027Y061377
X048360Y061378
X048694Y061378
X049027Y061378
X049360Y061378
X049725Y063375
X049726Y062709
X049726Y062042
X049727Y061377
T04
X055000Y112000
X002000Y112000
X055000Y059000
X002000Y059000
M30
