G04 ---------------------------- Layer name :TOP LAYER*
G04 easyEDA 0.1*
G04 Scale: 100 percent, Rotated: No, Reflected: No *
G04 Dimensions in inches *
G04 leading zeros omitted , absolute positions ,2 integer and 4 * 
%FSLAX24Y24*%
%MOIN*%
G90*
G70D02*

%ADD11C,0.016000*%
%ADD12C,0.024000*%
%ADD13C,0.025000*%
%ADD14C,0.024400*%
%ADD15C,0.060000*%
%ADD17R,0.080000X0.060000*%
%ADD18R,0.060000X0.060000*%
%ADD19R,0.250000X0.250000*%
%ADD20C,0.200000*%
%ADD22C,0.100000*%
%ADD24C,0.059000*%
%ADD26R,0.059000X0.059000*%

%LPD*%
G54D11*
G01X39500Y88000D02*
G01X38500Y88000D01*
G01X29000Y58500D02*
G01X29000Y58500D01*
G01X30000Y59500D01*
G01X32500Y59500D01*
G01X33500Y59500D01*
G01X27500Y56500D02*
G01X30000Y56500D01*
G01X32500Y54000D01*
G01X34000Y54000D01*
G01X34500Y54500D01*
G01X37500Y56500D02*
G01X37500Y56500D01*
G01X37500Y56500D01*
G01X37500Y56500D01*
G01X37000Y56000D01*
G01X36000Y56000D01*
G01X34500Y54500D01*
G01X39000Y92000D02*
G01X39000Y92484D01*
G01X39000Y94500D01*
G01X39500Y95000D01*
G01X41500Y94984D01*
G01X26000Y92000D02*
G01X26000Y92484D01*
G01X26000Y94500D01*
G01X26500Y95000D01*
G01X28500Y94984D01*
G01X13000Y92000D02*
G01X13000Y92484D01*
G01X13000Y94500D01*
G01X13500Y95000D01*
G01X15500Y94984D01*
G54D12*
G01X48000Y91000D02*
G01X48000Y75000D01*
G01X35000Y91000D02*
G01X35000Y75000D01*
G01X22000Y91000D02*
G01X22000Y75000D01*
G01X9000Y91000D02*
G01X9000Y75000D01*
G01X48000Y75000D02*
G01X48000Y66500D01*
G01X48500Y66000D01*
G01X52500Y66000D01*
G01X53000Y65500D01*
G01X53000Y62500D01*
G01X35000Y75000D02*
G01X35000Y66500D01*
G01X35500Y66000D01*
G01X48500Y66000D01*
G01X22000Y75000D02*
G01X22000Y68000D01*
G01X22500Y67500D01*
G01X34500Y67500D01*
G01X35000Y67148D01*
G01X35000Y66500D01*
G01X9000Y75000D02*
G01X9000Y68000D01*
G01X9500Y67500D01*
G01X22500Y67500D01*
G01X27500Y52500D02*
G01X27000Y52500D01*
G01X26500Y53000D01*
G01X26500Y54000D01*
G01X26000Y54500D01*
G01X24500Y54500D01*
G01X42500Y62500D02*
G01X42500Y60500D01*
G01X43000Y60000D01*
G01X45000Y60000D01*
G01X46000Y59500D01*
G01X46000Y58500D01*
G01X46119Y57259D01*
G01X46119Y57259D01*
G01X51000Y62500D02*
G01X51000Y61500D01*
G01X50500Y61000D01*
G01X47000Y61000D01*
G01X46500Y60500D01*
G01X46500Y58500D01*
G01X46119Y57259D01*
G01X44500Y62500D02*
G01X44500Y63000D01*
G01X44000Y63500D01*
G01X40500Y63500D01*
G01X40000Y63000D01*
G01X40000Y55000D01*
G01X39500Y54500D01*
G01X36500Y54500D01*
G01X36500Y54500D02*
G01X35000Y53000D01*
G01X29000Y53000D01*
G01X28500Y52500D01*
G54D11*
G01X44000Y91000D02*
G01X44000Y75000D01*
G01X31000Y91000D02*
G01X31000Y75000D01*
G01X18000Y91000D02*
G01X18000Y75000D01*
G01X5000Y91000D02*
G01X5000Y75000D01*
G01X5000Y91000D02*
G01X5000Y91000D01*
G01X5500Y91500D01*
G01X17500Y91500D01*
G01X18000Y91000D01*
G01X18000Y91000D01*
G01X18000Y91000D02*
G01X18000Y91000D01*
G01X18500Y91500D01*
G01X30500Y91500D01*
G01X31000Y91000D01*
G01X31000Y91000D01*
G01X31000Y91000D02*
G01X31000Y91000D01*
G01X31500Y91500D01*
G01X43500Y91500D01*
G01X44000Y91000D01*
G01X44000Y91000D01*
G01X46000Y91000D02*
G01X46000Y75000D01*
G01X33000Y91000D02*
G01X33000Y75000D01*
G01X20000Y91000D02*
G01X20000Y75000D01*
G01X7000Y91000D02*
G01X7000Y75000D01*
G01X20000Y75000D02*
G01X20000Y68000D01*
G01X36500Y58500D02*
G01X37000Y58500D01*
G01X37500Y59000D01*
G01X37500Y65000D01*
G01X37000Y65500D01*
G01X33500Y65500D01*
G01X36000Y92000D02*
G01X36000Y95500D01*
G01X36500Y96000D01*
G01X41500Y96000D01*
G01X49000Y91000D02*
G01X49000Y95500D01*
G01X49500Y96000D01*
G01X54500Y96000D01*
G01X23000Y92000D02*
G01X23000Y95500D01*
G01X23500Y96000D01*
G01X28500Y96000D01*
G01X10000Y92000D02*
G01X10000Y95500D01*
G01X10500Y96000D01*
G01X15500Y96000D01*
G01X49000Y75000D02*
G01X49000Y81500D01*
G01X49500Y82000D01*
G01X54500Y82000D01*
G01X36000Y75000D02*
G01X36000Y81500D01*
G01X36500Y82000D01*
G01X41500Y82000D01*
G01X23000Y75000D02*
G01X23000Y81500D01*
G01X23500Y82000D01*
G01X28500Y82000D01*
G01X10000Y75000D02*
G01X10000Y81500D01*
G01X10500Y82000D01*
G01X15500Y82000D01*
G01X28500Y82000D02*
G01X29000Y82000D01*
G01X29500Y81500D01*
G01X29500Y68000D01*
G01X23000Y91000D02*
G01X23000Y89929D01*
G01X23500Y89500D01*
G01X29500Y89500D01*
G01X30000Y89000D01*
G01X30000Y68000D01*
G01X10000Y91000D02*
G01X10000Y90000D01*
G01X10500Y89500D01*
G01X16500Y89500D01*
G01X17000Y89000D01*
G01X17000Y68000D01*
G01X15500Y82000D02*
G01X16000Y82000D01*
G01X16500Y81500D01*
G01X16500Y71000D01*
G01X16500Y68000D01*
G01X31000Y75000D02*
G01X31000Y68000D01*
G01X36000Y91000D02*
G01X36000Y90000D01*
G01X36500Y89500D01*
G01X42500Y89500D01*
G01X43000Y89000D01*
G01X43000Y73500D01*
G01X42500Y73000D01*
G01X39000Y73000D01*
G01X38500Y72500D01*
G01X38500Y67500D01*
G01X41500Y82000D02*
G01X42000Y82000D01*
G01X42500Y81500D01*
G01X42500Y74000D01*
G01X42000Y73500D01*
G01X38500Y73500D01*
G01X38000Y73000D01*
G01X38000Y67500D01*
G01X49000Y91000D02*
G01X49000Y90000D01*
G01X49500Y89500D01*
G01X55500Y89500D01*
G01X56000Y89000D01*
G01X56000Y70500D01*
G01X55500Y70000D01*
G01X48500Y70000D01*
G01X54500Y82000D02*
G01X55000Y82000D01*
G01X55500Y81500D01*
G01X55500Y71000D01*
G01X55000Y70500D01*
G01X48500Y70500D01*
G01X31000Y64000D02*
G01X31000Y64000D01*
G01X30500Y63740D01*
G01X30500Y62000D01*
G01X30000Y61500D01*
G01X27500Y61500D01*
G01X35000Y64500D02*
G01X34500Y64000D01*
G01X34500Y62500D01*
G01X34000Y62000D01*
G01X32000Y62000D01*
G01X27500Y57500D01*
G01X30000Y67000D02*
G01X30000Y63000D01*
G01X29500Y62500D01*
G01X27500Y62500D01*
G01X29500Y67000D02*
G01X29000Y66500D01*
G01X27000Y66500D01*
G01X26500Y66000D01*
G01X26500Y59500D01*
G01X27500Y58500D01*
G54D12*
G01X28500Y52500D02*
G01X28500Y52500D01*
G01X27500Y52500D01*
G54D11*
G01X53000Y61000D02*
G01X52500Y61500D01*
G01X32000Y75000D02*
G01X32000Y68000D01*
G01X34500Y65000D02*
G01X35000Y65000D01*
G01X35500Y64500D01*
G01X35500Y62000D01*
G01X35000Y61500D01*
G01X34000Y61500D01*
G01X34000Y61500D01*
G01X33500Y61500D01*
G01X26000Y58500D02*
G01X26000Y58500D01*
G01X26500Y58000D01*
G01X26500Y57500D01*
G01X27000Y57000D01*
G01X32000Y57000D01*
G01X32500Y56500D01*
G01X33500Y56500D01*
G01X13500Y88500D02*
G01X13500Y88500D01*
G01X12500Y88500D01*
G01X5500Y61000D02*
G01X17000Y61000D01*
G01X13500Y88000D02*
G01X12500Y88000D01*
G01X5500Y62000D02*
G01X17000Y62000D01*
G01X13500Y89000D02*
G01X12500Y89000D01*
G01X26500Y88000D02*
G01X25500Y88000D01*
G01X26500Y88500D02*
G01X25500Y88500D01*
G01X19000Y75000D02*
G01X19000Y73500D01*
G01X19000Y72500D01*
G01X36500Y65000D02*
G01X36500Y62000D01*
G01X36500Y61000D01*
G01X36000Y60500D01*
G01X33500Y60500D01*
G01X45000Y75000D02*
G01X45000Y73000D01*
G01X44500Y72500D01*
G01X39000Y72500D01*
G01X26000Y72500D02*
G01X25500Y72000D01*
G01X25500Y68000D01*
G01X25500Y67000D02*
G01X25500Y56500D01*
G01X26000Y56000D01*
G01X26500Y56000D01*
G01X27000Y55500D01*
G01X27500Y55500D01*
G54D15*
G01X33500Y52500D03*
G01X33500Y53500D03*
G01X33500Y54500D03*
G01X33500Y55500D03*
G01X33500Y56500D03*
G01X33500Y57500D03*
G01X33500Y58500D03*
G01X33500Y59500D03*
G01X33500Y60500D03*
G01X33500Y61500D03*
G01X33500Y62500D03*
G01X33500Y63500D03*
G01X33500Y64500D03*
G01X33500Y65500D03*
G01X27500Y65500D03*
G01X27500Y64500D03*
G01X27500Y63500D03*
G01X27500Y62500D03*
G01X27500Y61500D03*
G01X27500Y60500D03*
G01X27500Y59500D03*
G01X27500Y58500D03*
G01X27500Y57500D03*
G01X27500Y56500D03*
G01X27500Y55500D03*
G01X27500Y54500D03*
G01X27500Y53500D03*
G01X27500Y52500D03*
G54D17*
G01X28500Y94984D03*
G01X28500Y96000D03*
G01X28500Y97015D03*
G01X41500Y94984D03*
G01X41500Y96000D03*
G01X41500Y97015D03*
G01X54500Y94984D03*
G01X54500Y96000D03*
G01X54500Y97015D03*
G01X15500Y80984D03*
G01X15500Y82000D03*
G01X15500Y83015D03*
G01X28500Y80984D03*
G01X28500Y82000D03*
G01X28500Y83015D03*
G01X41500Y80984D03*
G01X41500Y82000D03*
G01X41500Y83015D03*
G01X54500Y80984D03*
G01X54500Y82000D03*
G01X54500Y83015D03*
G01X15500Y94984D03*
G01X15500Y96000D03*
G01X15500Y97015D03*
G54D15*
G01X36500Y59500D03*
G01X36500Y58500D03*
G01X36500Y57500D03*
G01X36500Y56500D03*
G01X36500Y55500D03*
G54D18*
G01X36500Y54500D03*
G01X24500Y54500D03*
G54D15*
G01X24500Y55500D03*
G01X24500Y56500D03*
G01X24500Y57500D03*
G01X13000Y91000D03*
G01X12000Y91000D03*
G01X11000Y91000D03*
G01X10000Y91000D03*
G01X9000Y91000D03*
G01X8000Y91000D03*
G01X7000Y91000D03*
G01X6000Y91000D03*
G01X5000Y91000D03*
G01X7000Y102000D03*
G01X6000Y102000D03*
G01X5000Y102000D03*
G01X26000Y91000D03*
G01X25000Y91000D03*
G01X24000Y91000D03*
G01X23000Y91000D03*
G01X22000Y91000D03*
G01X21000Y91000D03*
G01X20000Y91000D03*
G01X19000Y91000D03*
G01X18000Y91000D03*
G01X20000Y102000D03*
G01X19000Y102000D03*
G01X18000Y102000D03*
G01X39000Y91000D03*
G01X38000Y91000D03*
G01X37000Y91000D03*
G01X36000Y91000D03*
G01X35000Y91000D03*
G01X34000Y91000D03*
G01X33000Y91000D03*
G01X32000Y91000D03*
G01X31000Y91000D03*
G01X33000Y102000D03*
G01X32000Y102000D03*
G01X31000Y102000D03*
G01X52000Y91000D03*
G01X51000Y91000D03*
G01X50000Y91000D03*
G01X49000Y91000D03*
G01X48000Y91000D03*
G01X47000Y91000D03*
G01X46000Y91000D03*
G01X45000Y91000D03*
G01X44000Y91000D03*
G01X46000Y102000D03*
G01X45000Y102000D03*
G01X44000Y102000D03*
G01X13000Y75000D03*
G01X12000Y75000D03*
G01X11000Y75000D03*
G01X10000Y75000D03*
G01X9000Y75000D03*
G01X8000Y75000D03*
G01X7000Y75000D03*
G01X6000Y75000D03*
G01X5000Y75000D03*
G01X7000Y86000D03*
G01X6000Y86000D03*
G01X5000Y86000D03*
G01X26000Y75000D03*
G01X25000Y75000D03*
G01X24000Y75000D03*
G01X23000Y75000D03*
G01X22000Y75000D03*
G01X21000Y75000D03*
G01X20000Y75000D03*
G01X19000Y75000D03*
G01X18000Y75000D03*
G01X20000Y86000D03*
G01X19000Y86000D03*
G01X18000Y86000D03*
G01X39000Y75000D03*
G01X38000Y75000D03*
G01X37000Y75000D03*
G01X36000Y75000D03*
G01X35000Y75000D03*
G01X34000Y75000D03*
G01X33000Y75000D03*
G01X32000Y75000D03*
G01X31000Y75000D03*
G01X33000Y86000D03*
G01X32000Y86000D03*
G01X31000Y86000D03*
G01X52000Y75000D03*
G01X51000Y75000D03*
G01X50000Y75000D03*
G01X49000Y75000D03*
G01X48000Y75000D03*
G01X47000Y75000D03*
G01X46000Y75000D03*
G01X45000Y75000D03*
G01X44000Y75000D03*
G01X46000Y86000D03*
G01X45000Y86000D03*
G01X44000Y86000D03*
G54D19*
G01X46119Y57259D03*
G01X48869Y57259D03*
G54D20*
G01X55000Y102500D03*
G01X2000Y102500D03*
G01X55000Y53500D03*
G01X2000Y53500D03*
G54D22*
G01X54700Y62800D03*
G01X49300Y68200D03*
G54D24*
G01X49000Y62500D03*
G01X50000Y62500D03*
G01X51000Y62500D03*
G54D26*
G01X52000Y62500D03*
G54D24*
G01X53000Y62500D03*
G54D26*
G01X49000Y67000D03*
G01X40500Y67000D03*
G54D24*
G01X44500Y62500D03*
G54D26*
G01X43500Y62500D03*
G54D24*
G01X42500Y62500D03*
G01X41500Y62500D03*
G01X40500Y62500D03*
G54D22*
G01X40800Y68200D03*
G01X46200Y62800D03*
G54D13*
G01X45269Y58259D03*
G01X45602Y58261D03*
G01X45938Y58261D03*
G01X46271Y58261D03*
G01X46602Y58261D03*
G01X45271Y57594D03*
G01X45604Y57596D03*
G01X45939Y57596D03*
G01X46272Y57596D03*
G01X46604Y57596D03*
G01X45271Y56928D03*
G01X45604Y56929D03*
G01X45939Y56929D03*
G01X46272Y56929D03*
G01X46604Y56929D03*
G01X45272Y56261D03*
G01X45605Y56263D03*
G01X45939Y56263D03*
G01X46272Y56263D03*
G01X46605Y56263D03*
G01X46969Y58259D03*
G01X46971Y57594D03*
G01X46971Y56928D03*
G01X46972Y56261D03*
G01X48019Y58259D03*
G01X48352Y58261D03*
G01X48688Y58261D03*
G01X49021Y58261D03*
G01X49352Y58261D03*
G01X48021Y57594D03*
G01X48354Y57596D03*
G01X48689Y57596D03*
G01X49022Y57596D03*
G01X49354Y57596D03*
G01X48021Y56928D03*
G01X48354Y56929D03*
G01X48689Y56929D03*
G01X49022Y56929D03*
G01X49354Y56929D03*
G01X48022Y56261D03*
G01X48355Y56263D03*
G01X48689Y56263D03*
G01X49022Y56263D03*
G01X49355Y56263D03*
G01X49719Y58259D03*
G01X49721Y57594D03*
G01X49721Y56928D03*
G01X49722Y56261D03*
G54D14*
G01X31000Y68000D03*
G01X20000Y68000D03*
G01X39000Y92000D03*
G01X13000Y92000D03*
G01X26000Y92000D03*
G01X36000Y92000D03*
G01X23000Y92000D03*
G01X10000Y92000D03*
G01X29500Y68000D03*
G01X30000Y68000D03*
G01X17000Y68000D03*
G01X16500Y68000D03*
G01X38000Y67500D03*
G01X38500Y67500D03*
G01X31000Y64000D03*
G01X35000Y64500D03*
G01X30000Y67000D03*
G01X29500Y67000D03*
G01X29000Y58500D03*
G01X48500Y70500D03*
G01X48500Y70000D03*
G01X37500Y56500D03*
G01X32000Y68000D03*
G01X34500Y65000D03*
G01X26000Y58500D03*
G01X13500Y89000D03*
G01X12500Y89000D03*
G01X26500Y88500D03*
G01X25500Y88500D03*
G01X5500Y61000D03*
G01X17000Y61000D03*
G01X17000Y62000D03*
G01X5500Y62000D03*
G01X13500Y88500D03*
G01X12500Y88500D03*
G01X12500Y88000D03*
G01X13500Y88000D03*
G01X26500Y88000D03*
G01X25500Y88000D03*
G01X39500Y88000D03*
G01X38500Y88000D03*
G01X19000Y72500D03*
G01X36500Y65000D03*
G01X39000Y72500D03*
G01X26000Y72500D03*
G01X25500Y68000D03*
G01X25500Y67000D03*
G54D15*
G01X33500Y52500D03*
G01X33500Y53500D03*
G01X33500Y54500D03*
G01X33500Y55500D03*
G01X33500Y56500D03*
G01X33500Y57500D03*
G01X33500Y58500D03*
G01X33500Y59500D03*
G01X33500Y60500D03*
G01X33500Y61500D03*
G01X33500Y62500D03*
G01X33500Y63500D03*
G01X33500Y64500D03*
G01X33500Y65500D03*
G01X27500Y65500D03*
G01X27500Y64500D03*
G01X27500Y63500D03*
G01X27500Y62500D03*
G01X27500Y61500D03*
G01X27500Y60500D03*
G01X27500Y59500D03*
G01X27500Y58500D03*
G01X27500Y57500D03*
G01X27500Y56500D03*
G01X27500Y55500D03*
G01X27500Y54500D03*
G01X27500Y53500D03*
G01X27500Y52500D03*
G54D17*
G01X28500Y94984D03*
G01X28500Y96000D03*
G01X28500Y97015D03*
G01X41500Y94984D03*
G01X41500Y96000D03*
G01X41500Y97015D03*
G01X54500Y94984D03*
G01X54500Y96000D03*
G01X54500Y97015D03*
G01X15500Y80984D03*
G01X15500Y82000D03*
G01X15500Y83015D03*
G01X28500Y80984D03*
G01X28500Y82000D03*
G01X28500Y83015D03*
G01X41500Y80984D03*
G01X41500Y82000D03*
G01X41500Y83015D03*
G01X54500Y80984D03*
G01X54500Y82000D03*
G01X54500Y83015D03*
G01X15500Y94984D03*
G01X15500Y96000D03*
G01X15500Y97015D03*
G54D15*
G01X36500Y59500D03*
G01X36500Y58500D03*
G01X36500Y57500D03*
G01X36500Y56500D03*
G01X36500Y55500D03*
G54D18*
G01X36500Y54500D03*
G01X24500Y54500D03*
G54D15*
G01X24500Y55500D03*
G01X24500Y56500D03*
G01X24500Y57500D03*
G01X13000Y91000D03*
G01X12000Y91000D03*
G01X11000Y91000D03*
G01X10000Y91000D03*
G01X9000Y91000D03*
G01X8000Y91000D03*
G01X7000Y91000D03*
G01X6000Y91000D03*
G01X5000Y91000D03*
G01X7000Y102000D03*
G01X6000Y102000D03*
G01X5000Y102000D03*
G01X26000Y91000D03*
G01X25000Y91000D03*
G01X24000Y91000D03*
G01X23000Y91000D03*
G01X22000Y91000D03*
G01X21000Y91000D03*
G01X20000Y91000D03*
G01X19000Y91000D03*
G01X18000Y91000D03*
G01X20000Y102000D03*
G01X19000Y102000D03*
G01X18000Y102000D03*
G01X39000Y91000D03*
G01X38000Y91000D03*
G01X37000Y91000D03*
G01X36000Y91000D03*
G01X35000Y91000D03*
G01X34000Y91000D03*
G01X33000Y91000D03*
G01X32000Y91000D03*
G01X31000Y91000D03*
G01X33000Y102000D03*
G01X32000Y102000D03*
G01X31000Y102000D03*
G01X52000Y91000D03*
G01X51000Y91000D03*
G01X50000Y91000D03*
G01X49000Y91000D03*
G01X48000Y91000D03*
G01X47000Y91000D03*
G01X46000Y91000D03*
G01X45000Y91000D03*
G01X44000Y91000D03*
G01X46000Y102000D03*
G01X45000Y102000D03*
G01X44000Y102000D03*
G01X13000Y75000D03*
G01X12000Y75000D03*
G01X11000Y75000D03*
G01X10000Y75000D03*
G01X9000Y75000D03*
G01X8000Y75000D03*
G01X7000Y75000D03*
G01X6000Y75000D03*
G01X5000Y75000D03*
G01X7000Y86000D03*
G01X6000Y86000D03*
G01X5000Y86000D03*
G01X26000Y75000D03*
G01X25000Y75000D03*
G01X24000Y75000D03*
G01X23000Y75000D03*
G01X22000Y75000D03*
G01X21000Y75000D03*
G01X20000Y75000D03*
G01X19000Y75000D03*
G01X18000Y75000D03*
G01X20000Y86000D03*
G01X19000Y86000D03*
G01X18000Y86000D03*
G01X39000Y75000D03*
G01X38000Y75000D03*
G01X37000Y75000D03*
G01X36000Y75000D03*
G01X35000Y75000D03*
G01X34000Y75000D03*
G01X33000Y75000D03*
G01X32000Y75000D03*
G01X31000Y75000D03*
G01X33000Y86000D03*
G01X32000Y86000D03*
G01X31000Y86000D03*
G01X52000Y75000D03*
G01X51000Y75000D03*
G01X50000Y75000D03*
G01X49000Y75000D03*
G01X48000Y75000D03*
G01X47000Y75000D03*
G01X46000Y75000D03*
G01X45000Y75000D03*
G01X44000Y75000D03*
G01X46000Y86000D03*
G01X45000Y86000D03*
G01X44000Y86000D03*
G54D19*
G01X46119Y57259D03*
G01X48869Y57259D03*
G54D20*
G01X55000Y102500D03*
G01X2000Y102500D03*
G01X55000Y53500D03*
G01X2000Y53500D03*
G54D22*
G01X54700Y62800D03*
G01X49300Y68200D03*
G54D24*
G01X49000Y62500D03*
G01X50000Y62500D03*
G01X51000Y62500D03*
G54D26*
G01X52000Y62500D03*
G54D24*
G01X53000Y62500D03*
G54D26*
G01X49000Y67000D03*
G01X40500Y67000D03*
G54D24*
G01X44500Y62500D03*
G54D26*
G01X43500Y62500D03*
G54D24*
G01X42500Y62500D03*
G01X41500Y62500D03*
G01X40500Y62500D03*
G54D22*
G01X40800Y68200D03*
G01X46200Y62800D03*

M00*
M02*